<svg xmlns="http://www.w3.org/2000/svg" viewBox="0 0 14 14"><path d="M12.117 11.53q.117-.046.203-.022t.086.137-.117.262q-.11.125-.35.34t-.75.53-1.11.58-1.47.452-1.79.19q-.93 0-1.86-.25t-1.63-.6-1.348-.816-1.036-.82-.654-.68q-.06-.07-.077-.13t.01-.094.063-.06.09-.015.09.038q1.5.914 2.343 1.297 3.04 1.376 6.24.704 1.485-.31 3.056-1.053zm1.617-.897q.086.125.02.543t-.223.8q-.26.65-.66.97-.13.11-.2.07t0-.187q.17-.36.35-.95t.05-.77q-.04-.06-.12-.09t-.21-.05-.23-.02-.27 0-.242.01-.242.02-.173.01q-.046.01-.1.012t-.087.007-.067.01-.055.005h-.08l-.02-.005-.017-.01-.013-.02q-.047-.12.367-.31t.806-.232q.36-.055.84-.008t.594.185zm-3.078-3.46q0 .24.105.5t.25.452.3.36.26.25l.1.085-1.77 1.75q-.31-.29-.61-.59t-.452-.457l-.147-.156q-.09-.087-.2-.257-.3.46-.76.8t-1 .495-1.093.18-1.08-.164-.92-.51-.647-.88-.245-1.27q0-.65.22-1.2t.562-.91.83-.65.958-.44 1.018-.27.936-.14.773-.05v-1q0-.506-.166-.756-.268-.415-.947-.415-.046 0-.13.01t-.314.093-.44.23-.44.47-.373.75L2.94 3.26q0-.47.173-.93t.523-.884.843-.742T5.66.19 7.15 0q.782 0 1.415.194t1.012.48.633.648.352.672.098.574V7.17zm-5.25.163q0 .672.547 1.04.516.343 1.086.17.65-.194.89-.96.11-.352.11-.79V5.532q-.47.017-.87.095t-.83.262-.68.55-.26.89z" /></svg>