<svg xmlns="http://www.w3.org/2000/svg" viewBox="0 0 14 14"><path d="M7.5 2q0-.203-.148-.352T7 1.5t-.352.148T6.5 2t.148.352T7 2.5t.352-.148T7.5 2zM14 9.25V12q0 .172-.156.234-.062.016-.094.016-.102 0-.18-.07l-.727-.727q-.93 1.117-2.488 1.77T7 13.875t-3.355-.652-2.488-1.77l-.727.727q-.07.07-.18.07-.03 0-.094-.016Q0 12.172 0 12V9.25q0-.11.07-.18T.25 9H3q.172 0 .234.156.062.148-.055.273l-.784.78q.523.71 1.48 1.2t2.12.642V7H4.5q-.202 0-.35-.15T4 6.5v-1q0-.204.15-.353T4.497 5H6V3.725q-.452-.266-.726-.723T5 2q0-.83.585-1.415T7 0t1.413.585T9 2q0 .546-.274 1.003T8 3.726V5h1.5q.202 0 .35.147T10 5.5v1q0 .202-.15.35T9.5 7H8v5.054q1.163-.156 2.12-.645t1.48-1.2l-.78-.78q-.118-.128-.056-.276.062-.156.234-.156h2.75q.11 0 .18.07t.07.18z" /></svg>