<svg xmlns="http://www.w3.org/2000/svg" viewBox="0 0 11 14"><path d="M10.883 9.492q-.305.977-.96 1.953-1.01 1.53-2.01 1.53-.382 0-1.093-.25-.672-.25-1.18-.25-.477 0-1.11.26Q3.9 13 3.5 13q-1.187 0-2.352-2.023Q0 8.937 0 7.047q0-1.78.883-2.922Q1.758 3 3.103 3q.562 0 1.382.234.813.234 1.078.234.352 0 1.117-.266.797-.266 1.352-.266.93 0 1.664.508.406.28.813.78-.62.524-.898.923-.508.734-.508 1.617 0 .97.54 1.742t1.232.984zM7.945.328q0 .477-.227 1.062-.234.586-.727 1.078-.42.422-.84.563-.29.09-.81.14.023-1.164.61-2.01Q6.52.32 7.898 0l.02.086.02.086v.156z" /></svg>