<svg xmlns="http://www.w3.org/2000/svg" viewBox="0 0 12 14"><path d="M8.734 6.844Q8.672 7 8.5 7H7v2.75q0 .11-.07.18t-.18.07h-1.5q-.11 0-.18-.07T5 9.75V7H3.5q-.11 0-.18-.07t-.07-.18q0-.094.078-.187L5.82 4.07Q5.906 4 6 4t.18.07l2.5 2.5q.117.126.055.274zM6 2.75q-1.156 0-2.133.57T2.32 4.867 1.75 7t.57 2.133 1.547 1.547T6 11.25t2.133-.57T9.68 9.133 10.25 7t-.57-2.133T8.133 3.32 6 2.75zM12 7q0 1.633-.805 3.012T9.01 12.196 6 13t-3.013-.804-2.184-2.184T-.002 7t.805-3.012 2.184-2.184T6 1t3.01.804 2.185 2.184T12 7z" /></svg>