<svg xmlns="http://www.w3.org/2000/svg" viewBox="0 0 13 14"><path d="M11.578 8.203q.36.203.465.605t-.098.762l-.5.86q-.203.358-.605.464t-.762-.098L8 9.6V12q0 .405-.297.702T7 13H6q-.406 0-.703-.298T5 12V9.6l-2.078 1.196q-.36.203-.762.098t-.605-.465l-.5-.86q-.203-.36-.098-.763t.465-.605L3.5 7 1.422 5.797q-.36-.203-.465-.605t.098-.762l.5-.86q.203-.358.605-.464t.762.098L5 4.4V2q0-.405.297-.702T6 1h1q.406 0 .703.298T8 2v2.4l2.078-1.196q.36-.203.762-.098t.605.465l.5.86q.203.36.098.763t-.465.605L9.5 7z" /></svg>