<svg xmlns="http://www.w3.org/2000/svg" viewBox="0 0 12 14"><path d="M7.594 6.055q0-.844-.418-1.32t-1.152-.477q-.492 0-.97.238t-.858.66-.62 1.07-.24 1.406q0 .875.42 1.352t1.175.477q.75 0 1.38-.52t.96-1.29.33-1.59zM12 7q0 .867-.29 1.54t-.77 1.054-1.026.582-1.133.215q-.04 0-.12.01t-.13.008q-.74 0-1.1-.414-.22-.26-.26-.65-.404.518-1.025.86t-1.355.345q-1.26 0-1.95-.746t-.69-2.107q0-1.23.515-2.268t1.393-1.65 1.922-.605q.68 0 1.21.277t.83.775l.01-.148.087-.44q.006-.05.04-.1t.075-.047h.922q.04 0 .102.085.04.04.022.125l-.938 4.8q-.04.187-.04.375 0 .307.1.408t.347.1q.22-.007.444-.04t.57-.19.608-.39.444-.7T11 7q0-2.28-1.36-3.64T6.003 2q-1.015 0-1.94.4T2.467 3.464 1.4 5.06 1.004 7 1.4 8.94t1.067 1.595T4.06 11.6t1.942.4q1.78 0 3.164-1.126.086-.07.187-.062t.164.094l.32.383q.062.09.055.18-.016.1-.094.17-.797.65-1.777 1T6 13q-1.218 0-2.327-.477t-1.914-1.28T.47 9.327 0 7t.48-2.328 1.28-1.914 1.915-1.28T6 1q2.688 0 4.345 1.656T12 7z" /></svg>