<svg xmlns="http://www.w3.org/2000/svg" viewBox="0 0 17 14"><path d="M13.5 3.5l-3 5.5h6zm-10 0L.5 9h6zM9.914 2q-.11.312-.355.56T9 2.913V13h4.75q.11 0 .18.07t.07.18v.5q0 .11-.07.18t-.18.07H3.25q-.11 0-.18-.07T3 13.75v-.5q0-.11.07-.18t.18-.07H8V2.914q-.312-.11-.56-.355T7.087 2H3.25q-.11 0-.18-.07T3 1.75v-.5q0-.11.07-.18T3.25 1h3.836q.164-.445.547-.723T8.5 0t.867.277.547.723h3.836q.11 0 .18.07t.07.18v.5q0 .11-.07.18t-.18.07H9.914zM8.5 2.125q.258 0 .44-.184t.185-.44-.184-.44T8.5.875t-.44.184-.185.44.184.44.44.185zM17 9q0 .57-.363 1.023t-.918.71-1.13.388-1.09.13-1.09-.13-1.13-.385-.918-.71T10 9q0-.086.273-.633t.72-1.363.835-1.527.797-1.438.438-.783Q13.203 3 13.5 3t.44.258q.03.055.437.78t.797 1.44.836 1.526.72 1.363T17 9zM7 9q0 .57-.363 1.023t-.918.71-1.13.388-1.09.13-1.09-.13-1.13-.385-.918-.71T0 9q0-.086.273-.633t.72-1.363.835-1.527.797-1.438.438-.783Q3.203 3 3.5 3t.44.258q.03.055.437.78t.797 1.44.836 1.526.72 1.363T7 9z" /></svg>