<svg xmlns="http://www.w3.org/2000/svg" viewBox="0 0 14 14"><path d="M.492 12H0V1h.492v11zm.492-.008h-.25V1h.25v10.992zm.735 0h-.244V1h.242v10.992zm1.224 0h-.242V1h.242v10.992zm1.227 0h-.483V1h.484v10.992zm.985 0h-.242V1h.242v10.992zm.492 0h-.242V1h.242v10.992zm.493 0H5.9V1h.24v10.992zm1.227 0h-.492V1h.492v10.992zm1.227 0h-.492V1h.492v10.992zm.984 0h-.492V1h.492v10.992zm.984 0h-.492V1h.492v10.992zm.735 0h-.492V1h.492v10.992zm1.476 0h-.734V1h.732v10.992zm.493 0h-.25V1h.25v10.992zM14 12h-.492V1H14v11z" /></svg>