<svg xmlns="http://www.w3.org/2000/svg" viewBox="0 0 12 14"><path d="M9.75 1q.93 0 1.59.66T12 3.25v7.5q0 .93-.66 1.59T9.75 13h-7.5q-.93 0-1.59-.66T0 10.75v-7.5q0-.93.66-1.59T2.25 1h7.5zM3.898 3.867H1v6.148h2.984q.914 0 1.54-.45t.624-1.33Q6.148 7 5.03 6.67q.837-.405.837-1.28 0-.445-.152-.754t-.44-.473-.618-.23-.758-.066zm-.17 2.485H2.35V4.914h1.273q.93 0 .93.703 0 .734-.828.734zm.07 2.617H2.35v-1.7h1.48q.968 0 .968.882 0 .813-1 .813zm5.077.25q-.53 0-.813-.3t-.28-.838h3.21q.008-.075.008-.23 0-1.03-.582-1.724t-1.59-.695q-1 0-1.64.672t-.642 1.687q0 1.055.617 1.695t1.664.64q1.602 0 2.086-1.49H9.835q-.086.264-.37.42t-.59.156zm-.078-2.86q.883 0 .97.95H7.78q.03-.44.305-.697t.71-.258zM7.53 4.28h2.493v.603H7.53V4.28z" /></svg>