<svg xmlns="http://www.w3.org/2000/svg" viewBox="0 0 18 14"><path d="M5.953 9H3.5q-.312 0-.45-.273t.052-.523l1.47-1.96Q4.06 6 3.5 6q-1.032 0-1.767.735T1 8.5t.735 1.767T3.5 11q.9 0 1.587-.565T5.954 9zM4.5 8h1.453q-.14-.664-.586-1.156zm3.75 0l2.25-3H6.75l-.773 1.03q.82.806.984 1.97h1.29zm8.75.5q0-1.03-.734-1.766T14.5 6q-.47 0-.945.187l1.36 2.03q.116.18.077.384t-.21.314Q14.662 9 14.5 9q-.273 0-.414-.228l-1.36-2.03Q12 7.48 12 8.498q0 1.03.734 1.765T14.5 11t1.766-.735T17 8.5zm1 0q0 1.445-1.027 2.473T14.5 12t-2.473-1.027T11 8.5q0-.758.31-1.434t.854-1.168l-.508-.766-2.758 3.664Q8.758 9 8.5 9H6.96q-.18 1.28-1.163 2.14T3.5 12q-1.445 0-2.473-1.028T0 8.5t1.027-2.474T3.5 5q.89 0 1.68.43L6.25 4H4.5q-.203 0-.352-.15T4 3.5t.148-.353T4.5 3h3v1h3.398l-.664-1H8.5q-.203 0-.352-.15T8 2.5t.148-.353T8.5 2h2q.258 0 .414.218L13 5.343Q13.71 5 14.5 5q1.445 0 2.473 1.026T18 8.5z" /></svg>