<svg xmlns="http://www.w3.org/2000/svg" viewBox="0 0 14 14"><path d="M14 11v3H0v-3q.352 0 .664-.11t.46-.214.368-.293q.234-.21.402-.297t.44-.086.435.086.41.297q.22.195.36.297t.45.21.67.11q.353 0 .665-.113t.453-.21.375-.294q.163-.148.253-.21t.24-.118T7 10q.272 0 .44.086t.402.297q.22.187.367.293t.46.215.66.11.66-.11.46-.21.37-.29q.232-.21.4-.295t.44-.086q.267 0 .435.086t.402.297q.22.188.366.294t.46.212.665.11zm0-2.5V10q-.273 0-.434-.086t-.41-.297q-.227-.195-.367-.297t-.46-.21-.66-.11q-.36 0-.67.11t-.458.21-.367.297q-.177.148-.26.21t-.24.118-.35.055q-.273 0-.44-.086t-.403-.297q-.227-.195-.367-.297t-.453-.21T7 9q-.35 0-.663.113t-.453.21-.375.294q-.17.148-.26.21t-.24.118-.34.055q-.278 0-.44-.086t-.408-.297q-.22-.187-.368-.293T3 9.11 2.337 9q-.36 0-.672.11t-.453.21-.367.297q-.234.21-.402.297T.003 10V8.5q0-.625.438-1.062T1.51 7h.5V3.5h2V7h2V3.5h2V7h2V3.5h2V7h.5q.625 0 1.062.438T14.01 8.5zM4 1.75q0 .602-.28.926T3 3q-.414 0-.707-.293T2 2q0-.227.074-.398t.184-.266.242-.22.242-.245.184-.34T3 0q.297 0 .648.578T4 1.75zm4 0q0 .602-.28.926T7 3q-.414 0-.707-.293T6 2q0-.227.074-.398t.184-.266.242-.22.242-.245.184-.34T7 0q.297 0 .648.578T8 1.75zm4 0q0 .602-.28.926T11 3q-.414 0-.707-.293T10 2q0-.227.074-.398t.184-.266.242-.22.242-.245.184-.34T11 0q.297 0 .648.578T12 1.75z" /></svg>