<svg xmlns="http://www.w3.org/2000/svg" viewBox="0 0 12 14"><path d="M6.625 6.797q0-.336-.32-.516t-.602 0q-.336.157-.332.567t.34.55q.31.18.64-.03t.28-.563zm.625-.125q.062.516-.28.945t-.86.477-.93-.312-.438-.883q-.016-.39.2-.73t.565-.5q.547-.24 1.105.08t.637.92zm1.344-3.055q-.156.164-.418.266t-.414.125-.496.062q-1.21.156-2.53 0-.345-.047-.493-.074t-.41-.125-.426-.25q.102-.15.28-.24T4 3.26t.367-.07q1.547-.273 3.188-.008.258.04.398.065t.336.125.3.25zm.328 5.828q0-.055.043-.207t.023-.25-.137-.13q-1.25.83-2.85.83t-2.86-.83l-.09.048L3.01 9q.203 1.203.32 1.64.367.634 1.594.845 1.946.36 3.345-.414.26-.14.38-.4t.18-.67.093-.55zM9.937 4.03q.07-.413-.062-.585-.336-.43-1.21-.688-1.69-.492-3.806-.28-1.04.093-1.77.358-.3.117-.47.195t-.367.266-.23.422q.062.53.15 1.078T2.4 6.132t.188 1.07q.007.04.04.242t.053.28.098.212.174.22q.82.624 2.22.78 2.023.22 3.438-.492.19-.102.31-.18t.24-.227.154-.312q.38-2.085.63-3.695zM12 3.25v7.5q0 .93-.66 1.59T9.75 13h-7.5q-.93 0-1.59-.66T0 10.75v-7.5q0-.93.66-1.59T2.25 1h7.5q.93 0 1.59.66T12 3.25z" /></svg>