<svg xmlns="http://www.w3.org/2000/svg" viewBox="0 0 11 14"><path d="M4.336 11.883q.578.25 1.094.25 2.937 0 2.937-2.617 0-.89-.32-1.406-.21-.344-.48-.578T7.04 7.17t-.63-.196-.655-.082-.738-.016q-.57 0-.79.078 0 .414-.003 1.242T4.22 9.43q0 .062-.008.527t-.004.754.035.657.094.52zm-.11-5.828q.33.055.853.055.64 0 1.112-.102t.86-.348.58-.7.2-1.108q0-.547-.227-.957t-.618-.64-.845-.34-.97-.11q-.39 0-1.015.102 0 .39.03 1.18t.033 1.187q0 .21-.003.625t-.005.612q0 .36.008.54zM0 13l.016-.734q.117-.03.664-.125t.828-.21q.055-.09.098-.21t.066-.26.043-.253.023-.293.004-.265v-.513q0-7.672-.172-8.008-.03-.063-.172-.114T1.05 1.93t-.387-.056-.38-.035-.237-.026l-.03-.648q.765-.016 2.655-.09T5.59 1q.18 0 .535.004t.528.004q.548 0 1.067.102t1.004.328.845.555.58.816.217 1.07q0 .405-.13.745t-.304.562-.505.45-.57.35T8.2 6.3q1.2.276 2 1.05t.8 1.937q0 .78-.272 1.4t-.73 1.02-1.078.67-1.277.378-1.374.11q-.348 0-1.03-.024t-1.036-.02q-.828 0-2.398.088T0 13z" /></svg>