<svg xmlns="http://www.w3.org/2000/svg" viewBox="0 0 14 14"><path d="M4.46 4.602q-.077-.195-.265-.273t-.383 0q-.844.34-1.492.99t-.992 1.49q-.078.192 0 .38t.273.266q.108.04.19.04.33 0 .47-.313.268-.657.77-1.16t1.16-.77q.197-.087.27-.274t0-.383zm7.36-2.782l.36.36-1.907 1.897.53.53q.15.15.15.356t-.15.355l-.5.5Q11 7.076 11 8.498q0 1.117-.435 2.137t-1.172 1.758-1.758 1.172T5.498 14t-2.137-.435-1.752-1.172T.43 10.635t-.433-2.137T.43 6.36t1.173-1.757T3.36 3.43t2.14-.432q1.422 0 2.68.695l.5-.5q.148-.148.355-.148t.355.148l.53.53zm.063-.437q-.078.078-.172.078-.1 0-.18-.072L10.82.68q-.07-.078-.07-.18t.07-.18q.078-.07.18-.07t.18.07l.703.71q.078.07.078.177t-.072.176zM13.68 3.18q-.086.07-.18.07t-.18-.07l-.703-.71q-.078-.07-.078-.177t.072-.176q.07-.078.176-.078t.176.072l.71.703q.07.077.07.18t-.07.18zM14 1.75q0 .11-.07.18t-.18.07H13q-.11 0-.18-.07t-.07-.18.07-.18.18-.07h.75q.11 0 .18.07t.07.18zM12.5.25V1q0 .11-.07.18t-.18.07-.18-.07T12 1V.25q0-.11.07-.18t.18-.07.18.07.07.18zm1.18.43l-.71.703q-.08.078-.173.078-.102 0-.18-.072-.078-.07-.078-.176t.072-.176l.703-.71q.077-.07.18-.07t.18.07q.07.078.07.18t-.07.18z" /></svg>