<svg xmlns="http://www.w3.org/2000/svg" viewBox="0 0 13 14"><path d="M12.805 3.734q.312.445.14 1.008L10.8 11.82q-.148.5-.598.84t-.957.34h-7.21q-.603 0-1.16-.418t-.778-1.027q-.187-.523-.016-.992 0-.03.03-.21t.03-.29Q.15 10 .11 9.895t-.023-.152q.016-.086.062-.164t.12-.19.13-.19q.18-.297.35-.715t.236-.71q.024-.075.004-.23t-.003-.22q.027-.085.137-.218t.133-.18q.162-.283.326-.72t.195-.704q.01-.07-.02-.25t.005-.22q.03-.1.172-.237t.172-.177q.146-.206.33-.66t.213-.757q.008-.063-.023-.2t-.013-.207q.016-.062.07-.14t.14-.18.134-.165q.06-.1.13-.24t.115-.277.125-.28.15-.25.208-.185.28-.09.37.042l-.007.024q.3-.068.4-.068h5.944q.575 0 .89.434t.14 1.017L9.57 9.53q-.28.93-.56 1.2T8.008 11h-6.79q-.21 0-.296.117-.085.125-.007.336Q1.1 12 2.038 12h7.21q.228 0 .44-.12t.272-.325l2.344-7.71q.055-.173.04-.446.296.11.46.33zm-8.313.016q-.03.102.016.176T4.664 4h4.75q.102 0 .2-.074t.128-.176l.164-.5q.03-.102-.016-.176T9.734 3h-4.75q-.102 0-.2.074t-.128.176zm-.648 2q-.03.102.016.176T4.016 6h4.75q.102 0 .2-.074t.128-.176l.164-.5q.03-.102-.016-.176T9.086 5h-4.75q-.102 0-.2.074t-.128.176z" /></svg>