<svg xmlns="http://www.w3.org/2000/svg" viewBox="0 0 12 14"><path d="M8 7q0 .828-.586 1.414T6 9t-1.414-.586T4 7t.586-1.414T6 5t1.414.586T8 7zm1 0q0-1.242-.88-2.12T6 4t-2.12.88T3 7t.88 2.12T6 10t2.12-.88T9 7zm1 0q0 1.656-1.172 2.828T6 11 3.172 9.828 2 7t1.172-2.828T6 3t2.828 1.172T10 7zm1 0q0-1.016-.398-1.94T9.536 3.464 7.942 2.4 6.002 2t-1.942.4-1.594 1.065T1.4 5.06 1.002 7 1.4 8.94t1.066 1.595T4.06 11.6 6 12t1.942-.4 1.594-1.065 1.066-1.594T11 7zm1 0q0 1.633-.805 3.012T9.01 12.196 6 13t-3.013-.804-2.184-2.184T-.002 7t.805-3.012 2.184-2.184T6 1t3.01.804 2.185 2.184T12 7z" /></svg>