<svg xmlns="http://www.w3.org/2000/svg" viewBox="0 0 12 14"><path d="M3 9.5q0-.414-.293-.707T2 8.5t-.707.293T1 9.5t.293.707T2 10.5t.707-.293T3 9.5zm8 0q0-.414-.293-.707T10 8.5t-.707.293T9 9.5t.293.707.707.293.707-.293T11 9.5zm-.36-3.094l-.562-3q-.04-.18-.176-.293T9.586 3H2.414q-.18 0-.316.113t-.176.293l-.563 3q-.04.234.106.414T1.85 7h8.298q.234 0 .383-.18t.11-.414zm-1.765-4.78q0-.157-.11-.267T8.5 1.25h-5q-.156 0-.266.11t-.11.265.11.266T3.5 2h5q.156 0 .266-.11t.11-.265zM12 7.288V12h-1v1q0 .414-.293.707T10 14t-.707-.293T9 13v-1H3v1q0 .414-.293.707T2 14t-.707-.293T1 13v-1H0V7.29q0-.876.195-1.743L1 2q.07-.61.762-1.07T3.56.235 6 0t2.44.235 1.8.695T11 2l.82 3.547q.18.797.18 1.742z" /></svg>