<svg xmlns="http://www.w3.org/2000/svg" viewBox="0 0 13 14"><path d="M8.68 10.82l-.36.36q-.07.07-.17.07t-.18-.07L6.5 9.7 5.03 11.18q-.077.07-.18.07t-.17-.07l-.36-.36q-.07-.07-.07-.172t.07-.18l1.477-1.47L4.32 7.53q-.07-.078-.07-.18t.07-.172l.36-.36q.07-.07.17-.07t.18.07L6.5 8.29l1.47-1.47q.077-.07.18-.07t.17.07l.36.36q.07.07.07.172t-.07.18L7.21 9l1.47 1.468q.07.078.07.18t-.07.172zM1 13h11V5H1v8zm3-9.5V1.25q0-.11-.07-.18T3.75 1h-.5q-.11 0-.18.07T3 1.25V3.5q0 .11.07.18t.18.07h.5q.11 0 .18-.07T4 3.5zm6 0V1.25q0-.11-.07-.18T9.75 1h-.5q-.11 0-.18.07T9 1.25V3.5q0 .11.07.18t.18.07h.5q.11 0 .18-.07T10 3.5zm3-.5v10q0 .406-.297.703T12 14H1q-.406 0-.703-.297T0 13V3q0-.406.297-.703T1 2h1v-.75q0-.516.367-.883T3.25 0h.5q.516 0 .883.367T5 1.25V2h3v-.75q0-.516.367-.883T9.25 0h.5q.516 0 .883.367T11 1.25V2h1q.406 0 .703.297T13 3z" /></svg>