<svg xmlns="http://www.w3.org/2000/svg" viewBox="0 0 14 14"><path d="M7.25 6.5q0-.11-.07-.18T7 6.25q-.516 0-.883.367T5.75 7.5q0 .11.07.18t.18.07.18-.07.07-.18q0-.312.22-.53T7 6.75q.11 0 .18-.07t.07-.18zM9 7.516q0 .828-.586 1.414T7 9.516 5.586 8.93 5 7.516t.586-1.414T7 5.516t1.414.586T9 7.516zM1 12h12v-1H1v1zm9-4.484q0-1.242-.88-2.12T7 4.515t-2.12.88T4 7.515t.88 2.12 2.12.88 2.12-.88.88-2.12zM2 2.5h3v-1H2v1zM1 4h12V2H6.53l-.5 1H1v1zm13-2v10q0 .414-.293.707T13 13H1q-.414 0-.707-.293T0 12V2q0-.414.293-.707T1 1h12q.414 0 .707.293T14 2z" /></svg>