<svg xmlns="http://www.w3.org/2000/svg" viewBox="0 0 13 14"><path d="M10 5.5q0-.203-.148-.352T9.5 5t-.352.148L8 6.288V4q0-.203-.148-.352T7.5 3.5t-.352.148T7 4v2.29L5.852 5.147Q5.704 5 5.5 5t-.352.148T5 5.5t.148.352l2 2Q7.296 8 7.5 8t.352-.148l2-2Q10 5.704 10 5.5zM5 12q0 .414-.293.707T4 13t-.707-.293T3 12t.293-.707T4 11t.707.293T5 12zm7 0q0 .414-.293.707T11 13t-.707-.293T10 12t.293-.707T11 11t.707.293T12 12zm1-8.5v4q0 .187-.125.332t-.32.168L4.4 8.953q.007.055.034.168t.047.208.02.172q0 .125-.186.5H11.5q.204 0 .353.148T12 10.5t-.147.352T11.5 11h-8q-.202 0-.35-.148T3 10.5q0-.11.087-.31t.23-.464.16-.297L2.094 3H.5q-.203 0-.352-.15T0 2.5t.148-.353T.5 2h2q.125 0 .223.05t.156.12.1.192.06.207.043.23.035.198H12.5q.204 0 .353.148t.148.352z" /></svg>