<svg xmlns="http://www.w3.org/2000/svg" viewBox="0 0 18 14"><path d="M2.445 6.07q0 .398-.28.656-.228.203-.696.203h-.134V5.21h.133q.476 0 .694.21.28.243.28.65zm13.875-.508q0 .406-.5.406h-.148v-.79h.156q.492 0 .492.384zM2.97 6.07q0-.578-.392-.94T1.57 4.765H.828v2.602h.742q.578 0 .93-.297.47-.397.47-1zm.233 1.297h.508V4.765h-.507v2.602zm2.5-.79q0-.31-.16-.483t-.59-.328q-.227-.078-.31-.148t-.08-.18q0-.125.104-.207t.27-.08q.227 0 .414.21l.267-.344q-.32-.29-.766-.29-.343 0-.577.216t-.234.527q0 .272.14.433t.5.285q.29.102.352.148.148.094.148.266 0 .156-.11.262t-.28.105q-.375 0-.555-.345l-.328.312q.344.5.898.5.398 0 .648-.238t.25-.622zm2.172.704v-.6q-.29.288-.61.288-.382 0-.628-.254T6.39 6.07q0-.376.247-.638t.605-.262q.336 0 .633.297v-.602q-.312-.156-.625-.156-.578 0-.98.394t-.402.965.398.964.977.395q.328 0 .633-.15zM17.5 12V7.883q-.508.312-1.13.656t-1.854.913-2.574 1.074-3.262 1.05-3.938.923H17q.203 0 .352-.148T17.5 12zm-6.648-5.914q0-.586-.414-1t-1-.414-1 .414-.414 1 .414 1 1 .414 1-.414.414-1zm1.187 1.352l1.124-2.672h-.555l-.704 1.75-.695-1.75h-.554l1.11 2.672h.272zm1.35-.07h1.44v-.44h-.93v-.702h.897v-.438H13.9V5.21h.93v-.445h-1.44v2.602zm3.055 0h.625l-.82-1.095q.594-.125.594-.734 0-.368-.242-.57t-.68-.204h-.758v2.602h.508v-1.04h.07zM18 2.047v9.905q0 .438-.3.742t-.73.305H1.03q-.43 0-.73-.305t-.3-.742V2.047q0-.438.3-.742T1.032 1H16.97q.43 0 .73.305t.3.742z" /></svg>