<svg xmlns="http://www.w3.org/2000/svg" viewBox="0 0 18 14"><path d="M6.703 9.695V4.28q-.828.32-1.344 1.06t-.517 1.652.516 1.652 1.343 1.05zm3.938-2.703q0-.914-.515-1.652T8.78 4.28v5.423q.83-.32 1.345-1.06t.516-1.65zm1.68 0q0 1.242-.613 2.297t-1.668 1.667-2.298.613q-.93 0-1.777-.363t-1.46-.977-.978-1.46-.363-1.778q0-1.242.613-2.297t1.668-1.668 2.297-.613 2.297.613 1.667 1.668.613 2.297zm2.993.055q0-1.086-.434-2.043T13.726 3.4 12.06 2.375 10.085 2H7.734q-1.375 0-2.527.634T3.37 4.43 2.688 7.05q0 1.336.68 2.48t1.844 1.81T7.735 12h2.352q1.008 0 1.965-.394t1.677-1.055 1.152-1.58.433-1.923zM18 2v10q0 .406-.297.703T17 13H1q-.406 0-.703-.297T0 12V2q0-.406.297-.703T1 1h16q.406 0 .703.297T18 2z" /></svg>