<svg xmlns="http://www.w3.org/2000/svg" viewBox="0 0 18 14"><path d="M15.242 7.797q0 .203-.12.348t-.302.184q-.062.015-.14.015h-1.196V7.25h1.195q.077 0 .14.017.18.04.3.184t.122.35zm-.14-1.664q0 .195-.117.328t-.297.165q-.023.008-.117.008h-1.085V5.625h1.086q.024 0 .067.004t.05.003q.18.03.298.168t.117.333zm-9.414 1.28V5.01h-1.78v2.406q0 .453-.298.738t-.82.285q-.844 0-1.79-.46v.874q.415.118.946.18t.852.07l.328.01q2.563 0 2.563-1.696zm5.578 1.44v-.884q-.773.405-1.563.46-.844.062-1.32-.32T7.906 7t.477-1.108 1.32-.32q.79.055 1.563.453V5.15q-.375-.094-.78-.152t-.626-.074l-.22-.016q-.99-.047-1.706.11t-1.098.468-.555.688-.17.828.17.828.556.688 1.098.47 1.707.108q.79-.03 1.626-.242zm5.734-.9q0-.422-.336-.69t-.852-.31V6.93q.445-.062.695-.324t.25-.62q0-.43-.32-.69t-.836-.28q-.022 0-.093-.004t-.11-.004h-3.554v3.984h3.836q.577 0 .948-.285t.37-.754zM18 2v10q0 .406-.297.703T17 13H1q-.406 0-.703-.297T0 12V2q0-.406.297-.703T1 1h16q.406 0 .703.297T18 2z" /></svg>