<svg xmlns="http://www.w3.org/2000/svg" viewBox="0 0 18 14"><path d="M5.242 7.29H5.14q-.367 0-.367.25 0 .17.156.17.132 0 .218-.116t.094-.305zm3.086-.282h.484v-.023q.008-.03.004-.05t-.008-.056-.016-.063-.035-.05-.06-.04-.09-.016q-.218 0-.28.298zm4.22.28h-.095q-.375 0-.375.25 0 .173.156.173.133 0 .22-.116t.093-.305zm2.49-.202q0-.32-.233-.32-.148 0-.242.156t-.094.398q0 .328.218.328.156 0 .254-.156t.098-.406zM3.75 5.984h.68L4.086 8.03h-.438l.25-1.57-.555 1.57h-.305l-.03-1.562L2.74 8.03h-.413l.344-2.046h.634l.016 1.273zm1.977.836q0 .047-.03.328-.126.79-.134.883h-.367l.008-.17q-.156.202-.453.202-.18 0-.292-.125t-.113-.328q0-.306.203-.474t.57-.168q.11 0 .18.008 0-.023.004-.043t.008-.035.004-.023q0-.156-.28-.156-.228 0-.462.077 0-.03.055-.375.297-.086.523-.086.578 0 .578.484zm1.218-.453l-.062.383q-.172-.023-.32-.023-.21 0-.21.133 0 .062.034.094t.168.086q.312.148.312.47 0 .562-.68.554-.266 0-.453-.047 0-.016.055-.383.226.062.397.062.25 0 .25-.148 0-.055-.035-.09t-.168-.098q-.336-.156-.336-.46 0-.564.656-.564.234 0 .39.03zm.688 0h.22l-.056.406H7.57q-.016.133-.05.316t-.056.3-.02.14q0 .126.148.126.062 0 .125-.016l-.062.367q-.164.055-.312.055-.336 0-.352-.367 0-.094.063-.438.023-.156.195-1.14h.43zm1.586.57q0 .18-.056.407h-.867q-.023.172.078.258t.297.086q.234 0 .453-.11l-.07.423q-.234.063-.445.063-.742 0-.742-.742 0-.43.215-.706t.543-.277q.273 0 .434.164t.16.44zm1.085-.578q-.102.18-.172.483-.172-.016-.242.187t-.194 1h-.438l.023-.11q.173-1.015.228-1.554h.398l-.023.258q.11-.164.2-.23t.222-.035zm1.46-.32l-.07.444q-.218-.11-.39-.11-.242 0-.398.216t-.156.55q0 .235.106.368t.3.133q.165 0 .376-.1l-.078.46q-.22.062-.39.062-.353 0-.56-.238t-.207-.645q0-.548.277-.896t.715-.348q.202 0 .476.102zm1.266.78q0 .14-.03.328-.102.617-.133.883h-.36l.01-.17q-.157.202-.462.202-.18 0-.29-.125t-.108-.328q0-.306.2-.474t.565-.168q.117 0 .18.008.016-.055.016-.102 0-.156-.28-.156-.228 0-.462.078 0-.03.062-.375.297-.085.523-.085.57 0 .57.484zm1.103-.46q-.11.186-.164.483-.18-.016-.247.18t-.2 1.008h-.437l.023-.108q.147-.813.226-1.555h.406q0 .086-.03.258.116-.164.206-.23t.215-.035zm1.1-.376h.44l-.337 2.047h-.414l.023-.147q-.18.18-.406.18-.243 0-.388-.187t-.145-.5q0-.414.215-.72t.504-.304q.242 0 .414.227zM16.104 7q0-1.156-.567-2.133T13.99 3.32t-2.138-.57q-1.414 0-2.563.86.99.905 1.335 2.218h-.39Q9.89 4.656 9 3.85q-.89.806-1.234 1.978h-.39q.343-1.313 1.335-2.22Q7.564 2.75 6.15 2.75q-1.156 0-2.137.57T2.465 4.867 1.898 7t.566 2.133T4.01 10.68t2.138.57q1.414 0 2.563-.86-.936-.866-1.288-2.06h.39Q8.173 9.406 9 10.15q.828-.743 1.187-1.82h.39q-.35 1.194-1.288 2.06 1.147.86 2.562.86 1.156 0 2.137-.57t1.546-1.547T16.102 7zM18 2v10q0 .406-.297.703T17 13H1q-.406 0-.703-.297T0 12V2q0-.406.297-.703T1 1h16q.406 0 .703.297T18 2z" /></svg>