<svg xmlns="http://www.w3.org/2000/svg" viewBox="0 0 18 14"><path d="M5.82 7.078q0 .29-.2.48t-.487.19q-.227 0-.363-.124t-.137-.344q0-.29.195-.488t.484-.2q.22 0 .363.13t.145.355zm6.133-1.164q0 .328-.172.445t-.515.116l-.25.008.133-.836q.016-.086.102-.086h.14q.173 0 .274.016t.195.098.093.238zm2.742 1.164q0 .28-.2.477t-.48.195q-.226 0-.366-.125t-.142-.344q0-.288.195-.487t.484-.2q.22 0 .363.13t.145.355zM4.008 5.742q0-.46-.3-.668t-.786-.207h-1.25q-.148 0-.164.148L1 8.203q-.008.047.023.086t.078.038h.595q.156 0 .172-.148l.14-.86q.01-.06.056-.1t.117-.052.133-.012.148.008.11.008q.672 0 1.055-.38t.383-1.05zM6.422 8.18l.32-2.04q.008-.046-.023-.085t-.08-.04h-.593q-.11 0-.133.26-.21-.313-.742-.313-.563 0-.957.422t-.395.992q0 .46.27.734t.723.273q.22 0 .453-.094t.375-.25q-.03.093-.03.163 0 .125.102.125h.54q.147 0 .17-.148zm3.492-2.055q0-.04-.03-.074t-.07-.034H9.21q-.085 0-.14.078l-.828 1.22-.344-1.173q-.04-.124-.172-.124H7.14q-.04 0-.07.035t-.03.075q0 .016.15.46t.33.962.183.547q-.64.875-.64.937 0 .103.1.103h.603q.086 0 .14-.078L9.9 6.18q.015-.016.015-.055zm2.97-.383q0-.46-.302-.668t-.785-.207h-1.242q-.156 0-.172.148l-.508 3.188q-.008.047.023.086t.078.038h.64q.095 0 .126-.102l.14-.906q.01-.062.056-.102t.117-.05.133-.013.148.008.11.008q.67 0 1.054-.378t.383-1.05zm2.413 2.438l.32-2.04q.008-.046-.023-.085t-.078-.04h-.594q-.11 0-.133.26-.204-.313-.743-.313-.563 0-.957.422t-.395.992q0 .46.27.734t.723.273q.227 0 .46-.094t.368-.25q0 .007-.016.07t-.016.093q0 .125.102.125h.54q.147 0 .17-.148zM17 4.984v-.008q0-.11-.102-.11h-.578q-.086 0-.102.087l-.508 3.25-.008.016q0 .038.03.073t.08.035h.515q.148 0 .164-.148zM3.063 6.03q-.04.274-.203.36t-.47.086l-.257.008.133-.836q.016-.086.102-.086h.148q.312 0 .453.09t.093.38zM18 2v10q0 .406-.297.703T17 13H1q-.406 0-.703-.297T0 12V2q0-.406.297-.703T1 1h16q.406 0 .703.297T18 2z" /></svg>