<svg xmlns="http://www.w3.org/2000/svg" viewBox="0 0 18 14"><path d="M15.43 7.734h-1.078q.11-.29.516-1.398l.023-.07q.032-.078.08-.203t.07-.203l.093.43zM4.148 7.227l-.453-2.305Q3.61 4.5 3.11 4.5H1.014L1 4.602q2.43.617 3.147 2.625zm1.4-2.727L4.28 7.922l-.132-.695q-.203-.547-.664-1.012t-1.023-.69l1.056 3.983h1.367L6.923 4.5H5.546zm1.085 5.016H7.93L8.743 4.5H7.446zm6-4.89q-.54-.212-1.164-.212-.962 0-1.57.46T9.28 6.07q-.008.797 1.133 1.36.375.18.523.32t.148.304q0 .234-.234.36t-.54.124q-.67 0-1.218-.258l-.172-.086-.18 1.125q.578.265 1.445.265 1.016.008 1.63-.46t.628-1.25q0-.83-1.094-1.36-.382-.195-.554-.328t-.172-.297q0-.172.19-.3t.552-.13q.547-.008.97.187l.116.062zm3.32-.126h-1q-.508 0-.68.422L12.35 9.516h1.36l.273-.75h1.656q.038.172.155.75h1.203zM18 2v10q0 .406-.297.703T17 13H1q-.406 0-.703-.297T0 12V2q0-.406.297-.703T1 1h16q.406 0 .703.297T18 2z" /></svg>