<svg xmlns="http://www.w3.org/2000/svg" viewBox="0 0 12 14"><path d="M9.148 6.352L5.85 9.65q-.147.147-.35.147t-.353-.148L2.85 7.35Q2.702 7.204 2.702 7t.148-.352l.797-.797q.148-.147.352-.147t.35.148L5.5 7l2.147-2.15q.148-.147.352-.147t.35.148l.798.798q.148.148.148.352t-.148.352zM10.25 7q0-1.156-.57-2.133T8.133 3.32 6 2.75t-2.133.57T2.32 4.867 1.75 7t.57 2.133 1.547 1.547T6 11.25t2.133-.57T9.68 9.133 10.25 7zM12 7q0 1.633-.805 3.012T9.01 12.196 6 13t-3.013-.804-2.184-2.184T-.002 7t.805-3.012 2.184-2.184T6 1t3.01.804 2.185 2.184T12 7z" /></svg>