<svg xmlns="http://www.w3.org/2000/svg" viewBox="0 0 14 14"><path d="M6.977 0Q8.852-.016 10.5.937q1.812 1.047 2.75 2.906l-5.797-.305q-1.25-.07-2.297.582T3.71 5.913L1.556 2.6q1-1.242 2.43-1.918t2.992-.684zM1.14 3.164l2.634 5.18q.563 1.117 1.648 1.695t2.29.35l-1.798 3.524q-1.656-.258-3.008-1.23t-2.13-2.47T0 7q0-2.086 1.14-3.836zm12.39 1.32q.454 1.172.466 2.426t-.38 2.39-1.194 2.126-1.922 1.637q-1.797 1.04-3.89.93l3.163-4.867q.688-1.023.645-2.27t-.832-2.168zM7 4.64q.977 0 1.668.692T9.358 7t-.69 1.668T7 9.358t-1.668-.69T4.642 7t.69-1.668T7 4.642z" /></svg>