<svg xmlns="http://www.w3.org/2000/svg" viewBox="0 0 15 14"><path d="M10 7.25q0-.11-.07-.18T9.75 7H8V4.25q0-.102-.074-.176T7.75 4h-1.5q-.102 0-.176.074T6 4.25V7H4.25q-.102 0-.176.074T4 7.25q0 .11.07.18l2.75 2.75q.07.07.18.07t.18-.07l2.742-2.742Q10 7.344 10 7.25zM15 9q0 1.242-.88 2.12T12 12H3.5q-1.445 0-2.473-1.027T0 8.5q0-1.016.547-1.875t1.47-1.29Q2 5.103 2 5q0-1.656 1.172-2.828T6 1q1.22 0 2.23.68t1.473 1.805Q10.258 3 11 3q.828 0 1.414.587T13 5q0 .595-.32 1.08 1.016.24 1.668 1.058T15 9z" /></svg>