<svg xmlns="http://www.w3.org/2000/svg" viewBox="0 0 8 14"><path d="M4.71 12H3.368q-.102 0-.176-.07t-.073-.18V9.172H.867q-.102 0-.176-.07t-.073-.18v-.805q0-.102.074-.176t.177-.073h2.25v-.664H.867q-.102 0-.176-.07t-.073-.18V6.14q0-.102.074-.176t.177-.074H2.54L.03 1.374q-.06-.125 0-.25Q.11 1 .25 1h1.516q.148 0 .227.14l1.68 3.32q.148.297.438.977.08-.187.24-.53t.214-.478l1.492-3.282Q6.118 1 6.283 1h1.492q.133 0 .21.125.07.11.01.242L5.548 5.89h1.68q.1 0 .175.074t.074.176v.813q0 .11-.075.18t-.176.07H4.962v.664H7.23q.1 0 .175.074t.074.177v.805q0 .11-.075.18t-.176.07H4.962v2.578q0 .102-.074.176T4.712 12z" /></svg>