<svg xmlns="http://www.w3.org/2000/svg" viewBox="0 0 8 14"><path d="M2.25 11.5q0-.312-.22-.53t-.53-.22-.53.22-.22.53.22.53.53.22.53-.22.22-.53zm0-9q0-.312-.22-.53t-.53-.22-.53.22-.22.53.22.53.53.22.53-.22.22-.53zm5 1q0-.312-.22-.53t-.53-.22-.53.22-.22.53.22.53.53.22.53-.22.22-.53zm.75 0q0 .406-.203.754t-.547.543Q7.234 7.04 5.484 8.03q-.53.298-1.586.634-1 .312-1.324.555T2.25 10v.203q.344.195.547.543T3 11.5q0 .625-.438 1.062T1.5 13t-1.062-.438T0 11.5q0-.406.203-.754t.547-.543V3.797q-.344-.195-.547-.543T0 2.5q0-.625.438-1.062T1.5 1t1.062.438T3 2.5q0 .406-.203.754t-.547.543V7.68q.422-.203 1.203-.445.43-.133.684-.23t.55-.242.462-.31.315-.397.22-.543.065-.715q-.344-.195-.547-.543T5 3.5q0-.624.438-1.06T6.5 2t1.062.44T8 3.5z" /></svg>