<svg xmlns="http://www.w3.org/2000/svg" viewBox="0 0 15 14"><path d="M4.82 10.93l-.39.39q-.08.08-.18.08t-.18-.08L.427 7.68Q.35 7.602.35 7.5t.078-.18l3.64-3.64q.08-.08.18-.08t.18.08l.392.39q.078.078.078.18t-.078.18L1.75 7.5l3.07 3.07q.078.078.078.18t-.078.18zm4.618-8.336L6.524 12.68q-.03.102-.12.152t-.185.02l-.485-.133q-.102-.032-.152-.122t-.02-.19L8.477 2.32q.03-.1.12-.15t.185-.02l.484.132q.102.03.152.12t.02.192zM14.57 7.68l-3.64 3.64q-.08.08-.18.08t-.18-.08l-.392-.39q-.078-.078-.078-.18t.078-.18l3.07-3.07-3.07-3.07q-.078-.078-.078-.18t.078-.18l.39-.39q.08-.08.18-.08t.18.08l3.642 3.64q.078.078.078.18t-.078.18z" /></svg>