<svg xmlns="http://www.w3.org/2000/svg" viewBox="0 0 15 14"><path d="M7 7q0-.828-.586-1.414T5 5t-1.414.586T3 7t.586 1.414T5 9t1.414-.586T7 7zm6 4q0-.406-.297-.703T12 10t-.703.297T11 11q0 .414.293.707T12 12t.707-.293T13 11zm0-8q0-.406-.297-.703T12 2t-.703.297T11 3q0 .414.293.707T12 4t.707-.293T13 3zm-3 3.29v1.444q0 .078-.055.152t-.125.082l-1.21.187q-.087.273-.25.594.265.374.702.897.055.078.055.156 0 .094-.055.148-.18.235-.645.7t-.613.465q-.086 0-.164-.055l-.898-.703q-.29.148-.602.242-.086.843-.18 1.21-.055.187-.234.187H4.273q-.086 0-.156-.06t-.078-.136l-.18-1.194q-.267-.078-.587-.242l-.922.695q-.054.054-.155.054-.086 0-.164-.062-1.124-1.04-1.124-1.25 0-.07.055-.148.08-.11.32-.414t.368-.477q-.18-.344-.273-.64L.188 7.934Q.11 7.927.055 7.86T0 7.71V6.263q0-.078.055-.152T.18 6.03l1.21-.187q.087-.273.25-.594-.265-.376-.702-.9-.055-.085-.055-.155 0-.094.055-.156.172-.235.64-.696t.618-.46q.086 0 .164.054l.898.703q.266-.14.602-.25.086-.843.18-1.202Q4.095 2 4.274 2h1.453q.086 0 .156.06t.078.137l.18 1.195q.267.078.587.242l.922-.695q.06-.056.155-.056.086 0 .164.062 1.124 1.04 1.124 1.25 0 .07-.055.148-.095.125-.33.422t-.35.47q.18.374.265.64l1.187.18q.078.016.133.082T10 6.29zm5 4.163v1.094q0 .125-1.164.242-.094.21-.234.405.398.883.398 1.078 0 .03-.03.055-.954.555-.97.555-.062 0-.36-.367t-.405-.53Q12.08 13 12 13t-.233-.015q-.11.164-.406.53t-.358.368q-.016 0-.97-.555-.03-.023-.03-.055 0-.195.398-1.078-.14-.195-.234-.406-1.164-.118-1.164-.243v-1.094q0-.125 1.164-.242.102-.226.234-.405-.398-.883-.398-1.078 0-.03.03-.055.032-.016.274-.156t.46-.266.235-.125q.063 0 .36.363t.406.527Q11.922 9 12 9t.234.015q.398-.555.72-.875L13 8.124q.03 0 .97.547.03.024.03.056 0 .195-.398 1.078.133.18.234.406 1.164.117 1.164.242zm0-8v1.094q0 .125-1.164.242-.094.21-.234.405.398.883.398 1.078 0 .03-.03.055-.954.555-.97.555-.062 0-.36-.367t-.405-.53Q12.08 5 12 5t-.233-.015q-.11.164-.406.53t-.358.368q-.016 0-.97-.555-.03-.023-.03-.055 0-.195.398-1.078-.14-.195-.234-.406-1.164-.118-1.164-.243V2.453q0-.125 1.164-.242.102-.226.234-.405-.398-.883-.398-1.078 0-.03.03-.055.032-.016.274-.156t.46-.266.235-.125q.063 0 .36.363t.406.527Q11.922 1 12 1t.234.015q.398-.555.72-.875L13 .124q.03 0 .97.547.03.024.03.056 0 .195-.398 1.078.133.18.234.406Q15 2.327 15 2.452z" /></svg>