<svg xmlns="http://www.w3.org/2000/svg" viewBox="0 0 14 14"><path d="M5.5 3q-1.195 0-2.234.406T1.614 4.508 1 6q0 .64.415 1.234t1.164 1.03l.757.44-.273.655q.266-.157.484-.306l.344-.242.414.078Q4.916 9 5.5 9q1.196 0 2.235-.407T9.387 7.49 10 6t-.613-1.493-1.652-1.102T5.5 3zm0-1q1.492 0 2.762.535t2.004 1.457T11 6t-.734 2.008-2.004 1.457T5.5 10q-.672 0-1.375-.125-.97.688-2.172 1-.28.07-.672.125H1.26q-.086 0-.16-.062t-.09-.164Q1 10.75 1 10.724t.004-.052.016-.047l.02-.04.027-.042.03-.04.036-.038.03-.035q.04-.047.18-.195t.204-.23.176-.227.195-.3.16-.345Q1.108 8.57.555 7.75T0 6q0-1.086.734-2.008t2.004-1.457T5.5 2zm6.422 9.133q.078.187.16.344t.195.3.176.228.203.23.18.195l.03.035.036.04.03.038.028.043.02.04.016.046.004.05-.008.052q-.023.11-.102.172t-.172.055q-.39-.054-.672-.124-1.203-.312-2.172-1Q9.17 12 8.5 12 6.38 12 4.81 10.97q.453.03.688.03 1.258 0 2.414-.35t2.062-1.01q.977-.718 1.5-1.655T12 6q0-.6-.18-1.186 1.007.555 1.593 1.39T14 8.003q0 .937-.556 1.754t-1.523 1.38z" /></svg>