<svg xmlns="http://www.w3.org/2000/svg" viewBox="0 0 16 14"><path d="M16 6.992q0 .164-.102.285t-.258.152l-1.602 2.78q.023.07.023.14 0 .157-.097.278t-.254.152l-1.51 2.633q.024.062.024.125 0 .18-.13.312t-.315.133q-.196 0-.32-.14H8.333q-.133.155-.336.155t-.336-.156H4.545q-.133.156-.336.156-.18 0-.313-.13t-.133-.315q0-.062.03-.156L2.288 10.78q-.156-.03-.254-.152t-.098-.277q0-.07.023-.14L.348 7.43q-.155-.04-.253-.16t-.098-.278q0-.164.105-.285t.262-.152L1.92 3.868q0-.008-.005-.023t-.004-.023q0-.28.267-.398L3.81.588Q3.78.51 3.78.448q0-.188.132-.317t.312-.128q.203 0 .344.164h3.094q.125-.164.336-.164t.336.164h3.11q.14-.164.343-.164.18 0 .312.13t.132.315q0 .047-.03.14l1.616 2.798q.18.008.305.137t.125.3q0 .103-.055.212l1.46 2.53q.15.032.247.153t.098.277zm-7.695 6.242h3.04L8.67 10.468H7.555l-2.672 2.766h2.812q.14-.125.305-.125t.305.124zM.875 6.89q.008.032.008.103 0 .078-.016.117l1.625 2.812q.016 0 .035.008t.043.02l.04.02 1.468-1.555v-2.71l-1.46-1.517q-.103.062-.228.078zM7.703.767h-3.03L6.155 2.33 10.484.765H8.296Q8.17.89 8 .89T7.7.767zm5.492 9.468q.008-.047.04-.086l-.5-.53-.134.616h.595zm-.828 0l.172-.82-1.97-2.078-2.313 2.398.492.5h3.616zm-.687 2.875l.125-.22.508-2.422H8.977l2.602 2.68q.06-.03.1-.04zm-7.164.124h.04l2.67-2.766H4.314v2.617l.03.047q.11.04.173.102zm-.203-3h3.14l.5-.516L5.54 7.21 4.313 8.507v1.727zm-1.508 0h1.273V8.757L2.765 10.14q.03.062.04.094zM2.797 3.79q0 .007.004.015t.005.016q0 .126-.062.228L4.08 5.43v-2.1zm1.516-.548v2.43L5.508 6.9l2.32-2.454-1.742-1.844zm.03-2.375l-.03.062v2.06l1.602-.577L4.423.843q-.047.016-.078.023zm6.962-.1h-.125l-4.852 1.75 1.664 1.757zM7.992 4.608l-2.32 2.46 2.43 2.492 2.313-2.398zM5.375 7.046L4.313 5.945v2.22zM8.11 9.89l-.33.345h.665zm2.624-2.718l1.86 1.96 1.03-4.874-.023-.04-.007-.007zm2.688-3.125q-.062-.102-.062-.227v-.016L11.672.867q-.04-.008-.102-.04L8.156 4.446 10.578 7zm-9.344-.97v-1.74L2.805 3.538zm0 7.392H2.805l1.273 2.21v-2.21zm8.477 0l-.375 1.772 1.016-1.773h-.64zm.953-.548l1.617-2.82q-.016-.078-.016-.11 0-.007.022-.124l-1.336-2.313-1.008 4.78.602.642q.04-.023.117-.055z" /></svg>