<svg xmlns="http://www.w3.org/2000/svg" viewBox="0 0 12 14"><path d="M8.984 8.39v.853q0 .39-.285.695t-.735.473-.922.255-.918.086q-1.602 0-2.676-1.085T2.374 6.962q0-1.586 1.062-2.648t2.648-1.062q.266 0 .59.035t.727.14.723.267.54.44.218.634v.852q0 .125-.125.125h-.922q-.125 0-.125-.125v-.547q0-.336-.51-.527t-1.075-.19q-1.094 0-1.785.714t-.69 1.855q0 1.18.714 1.95t1.824.77q.53 0 1.078-.188t.547-.516v-.546q0-.055.035-.09t.082-.035h.93q.047 0 .086.034t.04.09zM6 2q-1.016 0-1.94.398T2.464 3.464 1.4 5.058 1 6.998t.4 1.942 1.065 1.594T4.06 11.6t1.94.398 1.94-.398 1.595-1.066T10.6 8.94 11 7t-.4-1.942-1.065-1.594T7.94 2.398 6 2zm6 5q0 1.633-.805 3.012T9.01 12.196 6 13t-3.013-.804-2.184-2.184T-.002 7t.805-3.012 2.184-2.184T6 1t3.01.804 2.185 2.184T12 7z" /></svg>