<svg xmlns="http://www.w3.org/2000/svg" viewBox="0 0 14 14"><path d="M4.727 9.633q1.195 0 2.008-.813.11-.14.023-.28l-.352-.642q-.047-.102-.187-.133-.126-.016-.212.086l-.03.024q-.032.03-.09.078t-.138.102-.184.113-.223.105-.262.074-.292.027q-.594 0-.977-.39T3.43 6.99q0-.594.375-.98t.953-.387q.29 0 .56.11t.394.218l.125.11q.086.086.203.078.125-.016.187-.11l.414-.608q.1-.156-.017-.305-.023-.03-.086-.094t-.234-.183-.38-.22-.526-.175-.672-.078q-1.156 0-1.922.754t-.766 1.88q0 1.14.758 1.886t1.93.746zm4.92 0q1.196 0 2.01-.813.108-.14.03-.28l-.352-.642q-.062-.11-.195-.133-.125-.016-.21.086l-.032.024q-.03.03-.09.078t-.137.102-.183.113-.223.105-.262.074-.293.027q-.595 0-.978-.39T8.35 6.99q0-.594.374-.98t.953-.387q.29 0 .56.11t.394.218l.126.11q.086.086.203.078.124-.016.186-.11l.414-.608q.102-.156-.016-.305-.023-.03-.086-.094t-.234-.183-.38-.22-.526-.175-.672-.078q-1.148 0-1.918.754t-.77 1.88q0 1.14.758 1.886t1.93.746zM7 1.25q-1.172 0-2.234.457T2.934 2.934 1.707 4.766 1.25 7t.457 2.234 1.227 1.832 1.832 1.227T7 12.75t2.234-.457 1.832-1.227 1.227-1.832T12.75 7t-.457-2.234-1.227-1.832-1.832-1.227T7 1.25zM7 0q1.422 0 2.72.555t2.233 1.492 1.492 2.234T14 7t-.555 2.72-1.492 2.233-2.234 1.492T7 14t-2.72-.555-2.233-1.492T.555 9.72 0 7t.555-2.72 1.492-2.233T4.28.555 7 0z" /></svg>