<svg xmlns="http://www.w3.org/2000/svg" viewBox="0 0 12 14"><path d="M9.352 8H8.5q-.203 0-.352-.148T8 7.5v-1q0-.203.148-.352T8.5 6h.852q-.25-.844-.88-1.473T7 3.647V4.5q0 .203-.148.352T6.5 5h-1q-.203 0-.352-.148T5 4.5v-.852q-.844.25-1.473.88T2.647 6H3.5q.203 0 .352.148T4 6.5v1q0 .203-.148.352T3.5 8h-.852q.25.844.88 1.473t1.472.88V9.5q0-.203.148-.352T5.5 9h1q.203 0 .352.148T7 9.5v.852q.844-.25 1.473-.88T9.353 8zM12 6.5v1q0 .203-.148.352T11.5 8h-1.117q-.29 1.258-1.207 2.176T7 11.383V12.5q0 .203-.148.352T6.5 13h-1q-.203 0-.352-.148T5 12.5v-1.117q-1.258-.29-2.176-1.207T1.617 8H.5q-.203 0-.352-.148T0 7.5v-1q0-.203.148-.352T.5 6h1.117q.29-1.258 1.207-2.176T5 2.617V1.5q0-.203.148-.352T5.5 1h1q.203 0 .352.148T7 1.5v1.117q1.258.29 2.176 1.207T10.383 6H11.5q.203 0 .352.148T12 6.5z" /></svg>