<svg xmlns="http://www.w3.org/2000/svg" viewBox="0 0 17 14"><path d="M5 12.75l3-1.5V8.797l-3 1.28v2.673zm-.5-3.547L7.656 7.85 4.5 6.5 1.344 7.85zM13 12.75l3-1.5V8.797l-3 1.28v2.673zm-.5-3.547l3.156-1.352L12.5 6.5 9.344 7.85zM9 6.913l3-1.288V3.547l-3 1.28v2.087zm-.5-2.96l3.445-1.477L8.5 1 5.055 2.475zM17 8v3.25q0 .28-.148.523t-.406.367l-3.5 1.75q-.195.11-.445.11t-.444-.11l-3.5-1.75q-.04-.016-.055-.03-.015.015-.054.03l-3.5 1.75Q4.75 14 4.5 14t-.444-.11l-3.5-1.75q-.258-.125-.406-.367t-.148-.523V8q0-.297.168-.547t.44-.375l3.392-1.453V2.5q0-.297.168-.547t.44-.375l3.5-1.5Q8.29 0 8.503 0t.39.078l3.5 1.5q.274.125.442.375t.168.547v3.125l3.39 1.453q.282.125.446.375t.164.547z" /></svg>