<svg xmlns="http://www.w3.org/2000/svg" viewBox="0 0 14 14"><path d="M3 9q0-.414-.293-.707T2 8t-.707.293T1 9t.293.707T2 10t.707-.293T3 9zm1.5-3.5q0-.414-.293-.707T3.5 4.5t-.707.293T2.5 5.5t.293.707.707.293.707-.293T4.5 5.5zm3.344 3.758l.79-2.984q.046-.203-.06-.38t-.3-.23-.376.052-.234.31l-.79 2.983q-.468.038-.835.34t-.493.77q-.156.6.156 1.14t.914.695 1.14-.156.696-.915q.125-.47-.047-.914t-.563-.71zM13 9q0-.414-.293-.707T12 8t-.707.293T11 9t.293.707T12 10t.707-.293T13 9zM8 4q0-.414-.293-.707T7 3t-.707.293T6 4t.293.707T7 5t.707-.293T8 4zm3.5 1.5q0-.414-.293-.707T10.5 4.5t-.707.293T9.5 5.5t.293.707.707.293.707-.293.293-.707zM14 9q0 2.04-1.102 3.773-.148.227-.422.227H1.523q-.273 0-.422-.227Q0 11.046 0 9q0-1.422.554-2.72t1.492-2.233T4.28 2.555 7 2t2.718.555 2.234 1.492 1.492 2.234T14 9z" /></svg>