<svg xmlns="http://www.w3.org/2000/svg" viewBox="0 0 12 14"><path d="M6 6q1.852 0 3.46-.336T12 4.672V6q0 .54-.805 1t-2.188.73T6 8t-3.01-.27T.804 7t-.805-1V4.672q.93.656 2.54.992T5.997 6zm0 6q1.852 0 3.46-.336t2.54-.992V12q0 .54-.805 1t-2.188.73T6 14t-3.01-.27T.804 13t-.805-1v-1.328q.93.656 2.54.992t3.46.336zm0-3q1.852 0 3.46-.336T12 7.672V9q0 .54-.805 1t-2.188.73T6 11t-3.01-.27T.804 10t-.805-1V7.672q.93.656 2.54.992T5.997 9zm0-9q1.625 0 3.008.27t2.188.73T12 2v1q0 .54-.804 1t-2.188.73T6 5t-3.008-.27T.804 4 0 3V2q0-.54.804-1T2.992.27 6 0z" /></svg>