<svg xmlns="http://www.w3.org/2000/svg" viewBox="0 0 8 14"><path d="M7.64 9.258q0 1.195-.776 2.06t-2.02 1.065v1.367q0 .11-.07.18t-.18.07H3.54q-.103 0-.177-.074t-.074-.176v-1.367q-.517-.07-.997-.242t-.793-.347-.578-.375-.363-.293-.138-.14q-.133-.165-.016-.32l.805-1.056q.056-.08.18-.095.118-.016.188.07l.016.016q.883.774 1.898.978.29.062.578.062.633 0 1.113-.336t.48-.953q0-.218-.117-.413t-.262-.328-.457-.294-.516-.25-.624-.254q-.305-.125-.48-.195t-.48-.207-.488-.242-.44-.277-.42-.33-.34-.384-.276-.453-.164-.52-.066-.61q0-1.077.766-1.89T3.29 1.656V.25q0-.102.074-.176T3.54 0h1.055q.11 0 .18.07t.07.18v1.375q.445.047.863.18t.68.262.496.293.305.227.116.11q.133.14.04.296l-.634 1.14q-.062.118-.18.126-.11.022-.21-.056-.024-.023-.114-.094t-.305-.207-.457-.25-.582-.203-.668-.09q-.742 0-1.21.336t-.47.867q0 .203.066.375t.23.324.31.258.437.242.472.21.547.216q.413.156.632.246t.594.273.59.332.484.39.414.496.246.598.102.734z" /></svg>