<svg xmlns="http://www.w3.org/2000/svg" viewBox="0 0 13 14"><path d="M10 10.5q0-.203-.148-.352T9.5 10t-.352.148T9 10.5t.148.352T9.5 11t.352-.148T10 10.5zm2 0q0-.203-.148-.352T11.5 10t-.352.148T11 10.5t.148.352.352.148.352-.148T12 10.5zm1-1.75v2.5q0 .312-.22.53t-.53.22H.75q-.312 0-.53-.22T0 11.25v-2.5q0-.312.22-.53T.75 8h3.633l1.055 1.062Q5.89 9.5 6.5 9.5t1.062-.438L8.624 8h3.625q.31 0 .53.22t.22.53zm-2.54-4.445q.134.32-.108.547l-3.5 3.5q-.14.148-.352.148t-.352-.148l-3.5-3.5q-.242-.227-.11-.547Q2.673 4 3 4h2V.5q0-.203.148-.352T5.5 0h2q.203 0 .352.148T8 .5V4h2q.328 0 .46.305z" /></svg>