<svg xmlns="http://www.w3.org/2000/svg" viewBox="0 0 12 14"><path d="M9.117 12.39q-.04-.147-.187-.038-.234.172-.68.305t-1.023.133q-1.008 0-1.508-.383-.04-.03-.103-.03-.086 0-.203.093-.055.047-.06.125t.06.156q.266.25.684.36t.8.098.774-.035q.32-.03.66-.16t.508-.234.223-.16q.094-.095.055-.228zm-.305-.898q-.148-.367-.305-.477-.18-.117-.594-.117-.367 0-.555.078-.227.094-.61.438-.202.187-.093.344.07.062.137.035t.246-.184q.023-.017.082-.067t.082-.066.078-.055.09-.055.098-.04.117-.034.13-.02.16-.008q.21 0 .347.06t.18.112.105.172q.078.132.098.155t.098-.008q.18-.094.11-.266zm2.774-2.195q0-.172-.04-.348t-.128-.353-.266-.285-.41-.11q-.258 0-.758.325t-1.008.652-.79.327q-.21.008-.495-.148t-.593-.384-.652-.453-.78-.383-.868-.148Q3.9 8 3.257 8.605T2.603 10q-.016.875.578 1.28.227.157.488.224t.81.066q.444 0 1.03-.254t1.047-.555.937-.55.727-.242q.202.008.507.246t.56.523.53.527.434.25q.274.023.458-.11t.434-.49q.22-.32.332-.79t.113-.828zM12 8.047q0 1.28-.484 2.38T10.22 12.27t-1.896 1.168-2.27.422-2.29-.45-1.933-1.226T.5 10.297 0 7.937q0-.694.15-1.347t.384-1.137.55-.926.614-.734.613-.543.505-.363.332-.19q.11-.063.398-.208t.426-.224.376-.234.473-.344q.28-.22.452-.566t.234-.98Q6.514 1.352 6.96 1.65q.343.227 1.015.53t1.008.517q.164.102.305.195t.473.363.595.55.586.743.54.953.367 1.16T12 8.05z" /></svg>