<svg xmlns="http://www.w3.org/2000/svg" viewBox="0 0 14 14"><path d="M6.828 12.797v.516q-1.625-.047-3.008-.855t-2.21-2.152l.452-.266q.227.383.57.773l.508-.445q1.156 1.313 2.875 1.656l-.133.672q.508.094.945.102zm-4.672-4.14l-.648.218q.172.47.383.875l-.444.258Q.68 8.602.68 7t.766-3.008l.445.258q-.233.438-.382.875l.64.22q-.272.78-.272 1.655 0 .852.28 1.656zm9.782 1.382l.453.265q-.827 1.344-2.21 2.152t-3.008.855v-.516q.438-.008.945-.102l-.133-.672q1.72-.344 2.875-1.656l.507.445q.344-.39.57-.772zm-1.18-4.33l-1.82.626q.11.328.11.664t-.11.664l1.812.625q-.242.718-.766 1.32L8.54 8.342q-.446.523-1.15.664l.376 1.883q-.406.078-.766.078t-.766-.078l.375-1.883q-.704-.14-1.15-.664L4.017 9.61q-.523-.603-.766-1.32l1.812-.626q-.11-.328-.11-.664t.11-.664l-1.82-.625q.258-.726.773-1.32L5.46 5.658q.46-.53 1.148-.672L6.233 3.11q.344-.078.766-.078t.765.078L7.39 4.985q.688.14 1.148.672L9.983 4.39q.516.595.773 1.32zM6.828.69v.516q-.508.016-.945.102l.133.672q-1.72.328-2.875 1.648l-.507-.438q-.297.328-.57.766l-.445-.258q.828-1.344 2.203-2.152T6.83.69zM13.32 7q0 1.602-.766 3.008l-.445-.258q.21-.406.382-.875l-.648-.22q.28-.804.28-1.655 0-.875-.272-1.656l.64-.22q-.147-.437-.382-.874l.445-.258Q13.32 5.398 13.32 7zm-.937-3.305l-.445.258q-.273-.438-.57-.766l-.508.438q-1.156-1.32-2.875-1.648l.133-.672q-.438-.086-.945-.102V.687q1.633.047 3.008.855t2.204 2.152zM13.656 7q0-1.352-.527-2.586T11.71 2.29 9.587.87 7 .345 4.414.87 2.29 2.29.87 4.413.345 7 .87 9.586t1.42 2.125 2.124 1.42T7 13.655t2.586-.527 2.125-1.42 1.42-2.124T13.655 7zM14 7q0 1.422-.555 2.72t-1.492 2.233-2.234 1.492T7 14t-2.72-.555-2.233-1.492T.555 9.72 0 7t.555-2.72 1.492-2.233T4.28.555 7 0t2.72.555 2.233 1.492 1.492 2.234T14 7z" /></svg>