<svg xmlns="http://www.w3.org/2000/svg" viewBox="0 0 12 14"><path d="M9.75 1q.93 0 1.59.66T12 3.25v7.5q0 .93-.66 1.59T9.75 13h-7.5q-.93 0-1.59-.66T0 10.75v-7.5q0-.93.66-1.59T2.25 1h7.5zM10 9.25V5.844q-.242.273-.5.43-.266.172-1.035.664T7.28 7.71q-.765.54-1.28.54-.516 0-1.28-.54-.36-.25-1.106-.722T2.5 6.265q-.093-.062-.257-.21T2 5.842V9.25q0 .31.22.53t.53.22h6.5q.313 0 .532-.22t.22-.53zm0-4.477q0-.32-.215-.547T9.25 4h-6.5q-.312 0-.53.218t-.22.53q0 .29.238.6t.527.503q.367.25 1.074.696t1.01.648l.134.09.164.11.164.1.184.103.168.074.176.06.16.02.16-.02.176-.06.168-.073.184-.102.164-.102.164-.11.133-.09 2.085-1.358q.273-.18.52-.488T10 4.773z" /></svg>