<svg xmlns="http://www.w3.org/2000/svg" viewBox="0 0 8 14"><path d="M7.625 10.21l.273 1.243q.023.094-.023.176t-.133.112l-.04.008q-.03.016-.08.027t-.126.035-.168.043-.2.04-.233.038-.262.035-.285.023-.3.01q-1.83 0-3.196-1.02T.992 8.232h-.74q-.103 0-.177-.074T0 7.982V7.1q0-.102.075-.176T.25 6.85h.517q-.016-.445.008-.82H.252q-.11 0-.18-.07t-.07-.18v-.89q0-.11.07-.18t.18-.07h.766Q1.54 2.997 2.92 1.997t3.13-1q.796 0 1.515.18.086.023.156.117.048.086.024.187l-.336 1.242q-.023.102-.11.152t-.186.02l-.03-.008-.09-.02-.138-.027-.176-.026-.203-.023-.227-.02-.23-.007q-.984 0-1.766.5T3.08 4.638h3.656q.125 0 .195.094.08.094.056.203l-.187.89q-.04.204-.25.204H2.736q-.023.288 0 .82h3.586q.117 0 .195.093.07.094.047.21l-.187.876q-.016.085-.086.144t-.156.06H3.113q.375.913 1.168 1.448t1.786.535q.14 0 .28-.012t.263-.027.23-.035.19-.04.145-.034l.094-.024.038-.016q.102-.04.203.016.095.055.118.164z" /></svg>