<svg xmlns="http://www.w3.org/2000/svg" viewBox="0 0 12 14"><path d="M11.47 2.97q.218.218.374.593T12 4.25v9q0 .313-.22.532t-.53.22H.75q-.312 0-.53-.22t-.22-.53V.75Q0 .438.22.22T.75 0h7q.312 0 .688.157t.594.375zM8 1.06V4h2.937q-.078-.228-.172-.32L8.32 1.233Q8.226 1.14 8 1.062zM11 13V5H7.75q-.312 0-.53-.22T7 4.25V1H1v12h10zm-7.648-1.828V12h2.195v-.828H4.96l.806-1.258q.04-.055.078-.13t.06-.104.026-.03h.016q.008.03.04.077.015.03.034.06t.047.06.05.067l.837 1.258H6.36V12h2.273v-.828h-.53l-1.5-2.133 1.522-2.204h.523V6h-2.18v.836h.578L6.24 8.078q-.03.055-.077.13t-.07.104l-.016.023H6.06q-.007-.03-.038-.078-.047-.086-.133-.18l-.83-1.242h.595V6H3.39v.835h.53L5.397 8.96 3.88 11.17h-.53z" /></svg>