<svg xmlns="http://www.w3.org/2000/svg" viewBox="0 0 12 14"><path d="M11.47 2.97q.218.218.374.593T12 4.25v9q0 .313-.22.532t-.53.22H.75q-.312 0-.53-.22t-.22-.53V.75Q0 .438.22.22T.75 0h7q.312 0 .688.157t.594.375zM8 1.06V4h2.937q-.078-.228-.172-.32L8.32 1.233Q8.226 1.14 8 1.062zM11 13V5H7.75q-.312 0-.53-.22T7 4.25V1H1v12h10zM6.984 8.367q.258.203.656.438.46-.055.914-.055 1.148 0 1.383.383.125.172.016.406 0 .007-.008.015l-.016.016v.01q-.048.296-.556.296-.375 0-.898-.156T7.46 9.306q-1.727.187-3.063.648Q3.202 12 2.507 12q-.118 0-.22-.054l-.187-.094-.047-.04q-.078-.077-.047-.28.07-.312.438-.715t1.03-.754q.11-.07.18.047.017.016.017.03.407-.663.837-1.538.53-1.062.813-2.047-.187-.64-.238-1.246t.05-.997Q5.22 4 5.463 4h.17q.18 0 .274.118.14.164.07.53-.016.048-.03.063.007.024.007.063v.234q-.016.96-.11 1.5.43 1.28 1.142 1.86zm-4.5 3.21q.406-.186 1.07-1.233-.398.312-.684.656t-.387.578zm3.11-7.186q-.117.33-.016 1.032l.055-.344q0-.023.055-.336.008-.03.03-.062-.007-.008-.007-.016t-.003-.012-.004-.012q-.008-.172-.102-.28 0 .007-.007.015v.016zm-.97 5.165q1.056-.422 2.22-.633-.016-.008-.102-.074t-.125-.105q-.594-.523-.992-1.375-.21.672-.648 1.54-.234.437-.352.647zm5.048-.125q-.187-.187-1.094-.187.594.22.97.22.108 0 .14-.01 0-.007-.016-.022z" /></svg>