<svg xmlns="http://www.w3.org/2000/svg" viewBox="0 0 12 14"><path d="M11.47 2.97q.218.218.374.593T12 4.25v9q0 .313-.22.532t-.53.22H.75q-.312 0-.53-.22t-.22-.53V.75Q0 .438.22.22T.75 0h7q.312 0 .688.157t.594.375zM8 1.06V4h2.937q-.078-.228-.172-.32L8.32 1.233Q8.226 1.14 8 1.062zM11 13V5H7.75q-.312 0-.53-.22T7 4.25V1H1v12h10zM6 6q.406 0 .703.297T7 7v3q0 .406-.297.703T6 11H3q-.406 0-.703-.297T2 10V7q0-.406.297-.703T3 6h3zm3.844.016q.156.062.156.234v4.5q0 .172-.156.234Q9.782 11 9.75 11q-.11 0-.18-.07L7.5 8.852V8.15l2.07-2.08Q9.64 6 9.75 6q.03 0 .094.017z" /></svg>