<svg xmlns="http://www.w3.org/2000/svg" viewBox="0 0 12 14"><path d="M11.47 2.97q.218.218.374.593T12 4.25v9q0 .313-.22.532t-.53.22H.75q-.312 0-.53-.22t-.22-.53V.75Q0 .438.22.22T.75 0h7q.312 0 .688.157t.594.375zM8 1.06V4h2.937q-.078-.228-.172-.32L8.32 1.233Q8.226 1.14 8 1.062zM11 13V5H7.75q-.312 0-.53-.22T7 4.25V1H1v12h10zM1.82 6v.836h.547L3.647 12H4.89l1-3.79q.055-.155.078-.358.016-.125.016-.187h.03l.024.187q.008.023.027.156t.043.203l1 3.79H8.35l1.28-5.164h.548V6H7.834v.836h.703l-.773 3.422q-.04.156-.055.36l-.017.163h-.03l-.024-.163q-.01-.04-.032-.164t-.04-.195L6.445 6h-.89l-1.126 4.258q-.016.07-.035.19t-.027.17l-.03.163h-.032l-.016-.163q-.016-.203-.055-.36l-.773-3.42h.703V6H1.82z" /></svg>