<svg xmlns="http://www.w3.org/2000/svg" viewBox="0 0 12 14"><path d="M5 3V2H4v1h1zm1 1V3H5v1h1zM5 5V4H4v1h1zm1 1V5H5v1h1zm5.47-3.03q.218.218.374.593T12 4.25v9q0 .313-.22.532t-.53.22H.75q-.312 0-.53-.22t-.22-.53V.75Q0 .438.22.22T.75 0h7q.312 0 .688.157t.594.375zM8 1.06V4h2.937q-.078-.228-.172-.32L8.32 1.233Q8.226 1.14 8 1.062zM11 13V5H7.75q-.312 0-.53-.22T7 4.25V1H6v1H5V1H1v12h10zM6.102 7.367l.836 2.727q.062.21.062.406 0 .648-.566 1.074T5 12t-1.434-.426T3 10.5q0-.195.062-.406Q3.226 9.602 4 7V6h1v1h.616q.172 0 .305.102t.18.266zM5 11q.414 0 .707-.148T6 10.5t-.293-.352T5 10t-.707.148T4 10.5t.293.352T5 11z" /></svg>