<svg xmlns="http://www.w3.org/2000/svg" viewBox="0 0 12 14"><path d="M11.47 3.72q.108.108.218.28H8V.313q.173.11.282.22zM7.75 5H12v8.25q0 .312-.22.53t-.53.22H.75q-.312 0-.53-.22T0 13.25V.75Q0 .438.22.22T.75 0H7v4.25q0 .312.22.53t.53.22zM9 10.75v-.5q0-.11-.07-.18T8.75 10h-5.5q-.11 0-.18.07t-.07.18v.5q0 .11.07.18t.18.07h5.5q.11 0 .18-.07t.07-.18zm0-2v-.5q0-.11-.07-.18T8.75 8h-5.5q-.11 0-.18.07T3 8.25v.5q0 .11.07.18t.18.07h5.5q.11 0 .18-.07T9 8.75zm0-2v-.5q0-.11-.07-.18T8.75 6h-5.5q-.11 0-.18.07T3 6.25v.5q0 .11.07.18t.18.07h5.5q.11 0 .18-.07T9 6.75z" /></svg>