<svg xmlns="http://www.w3.org/2000/svg" viewBox="0 0 12 14"><path d="M11.47 2.97q.218.218.374.593T12 4.25v9q0 .313-.22.532t-.53.22H.75q-.312 0-.53-.22t-.22-.53V.75Q0 .438.22.22T.75 0h7q.312 0 .688.157t.594.375zM8 1.06V4h2.937q-.078-.228-.172-.32L8.32 1.233Q8.226 1.14 8 1.062zM11 13V5H7.75q-.312 0-.53-.22T7 4.25V1H1v12h10zm-7.75-1.828V12h2.555v-.828h-.727V9.867h1.07q.594 0 .922-.117.523-.18.832-.68t.31-1.14q0-.634-.29-1.103t-.78-.68Q6.765 6 6.124 6H3.25v.835h.72v4.336h-.72zm2.758-2.188h-.93V6.89h.937q.406 0 .648.14.438.26.438.9 0 .694-.483.936-.242.117-.61.117z" /></svg>