<svg xmlns="http://www.w3.org/2000/svg" viewBox="0 0 12 14"><path d="M11.47 2.97q.218.218.374.593T12 4.25v9q0 .313-.22.532t-.53.22H.75q-.312 0-.53-.22t-.22-.53V.75Q0 .438.22.22T.75 0h7q.312 0 .688.157t.594.375zM8 1.06V4h2.937q-.078-.228-.172-.32L8.32 1.233Q8.226 1.14 8 1.062zM11 13V5H7.75q-.312 0-.53-.22T7 4.25V1H1v12h10zM3 6.25q0-.11.07-.18T3.25 6h5.5q.11 0 .18.07t.07.18v.5q0 .11-.07.18T8.75 7h-5.5q-.11 0-.18-.07T3 6.75v-.5zM8.75 8q.11 0 .18.07t.07.18v.5q0 .11-.07.18T8.75 9h-5.5q-.11 0-.18-.07T3 8.75v-.5q0-.11.07-.18T3.25 8h5.5zm0 2q.11 0 .18.07t.07.18v.5q0 .11-.07.18t-.18.07h-5.5q-.11 0-.18-.07T3 10.75v-.5q0-.11.07-.18t.18-.07h5.5z" /></svg>