<svg xmlns="http://www.w3.org/2000/svg" viewBox="0 0 12 14"><path d="M11.47 2.97q.218.218.374.593T12 4.25v9q0 .313-.22.532t-.53.22H.75q-.312 0-.53-.22t-.22-.53V.75Q0 .438.22.22T.75 0h7q.312 0 .688.157t.594.375zM8 1.06V4h2.937q-.078-.228-.172-.32L8.32 1.233Q8.226 1.14 8 1.062zM11 13V5H7.75q-.312 0-.53-.22T7 4.25V1H1v12h10zM4.844 6.64Q5 6.704 5 6.876v4.25q0 .172-.156.234-.062.015-.094.015-.094 0-.18-.07L3.273 10H2.25q-.11 0-.18-.07T2 9.75v-1.5q0-.11.07-.18T2.25 8h1.023L4.57 6.695q.125-.117.273-.055zm3.258 5.383q.242 0 .39-.187Q9.503 10.594 9.503 9T8.49 6.164Q8.37 6 8.158 5.977t-.367.11q-.164.132-.184.34t.113.37q.78.96.78 2.203t-.78 2.203q-.134.164-.114.37t.184.333q.14.117.312.117zm-1.65-1.156q.212 0 .368-.156.68-.726.68-1.71t-.68-1.71q-.14-.15-.352-.157t-.36.133-.155.348.14.363Q6.5 8.422 6.5 9t-.406 1.023q-.148.156-.14.363t.155.348q.155.133.343.133z" /></svg>