<svg xmlns="http://www.w3.org/2000/svg" viewBox="0 0 11 14"><path d="M4 1.5q0-.203-.148-.352T3.5 1t-.352.148T3 1.5t.148.352T3.5 2t.352-.148T4 1.5zm7-.25v2.5q0 .125-.094.195Q10.844 4 10.75 4q-.03 0-.055-.008l-3.5-.75q-.086-.016-.14-.086T6.998 3H5v.797q.866.18 1.433.867T7 6.25v6.25q0 .203-.15.352T6.5 13h-4q-.204 0-.353-.148T2 12.5V6.25q0-.828.487-1.488t1.262-.895V3H3.5q-.462 0-.9.184t-.714.414-.516.52-.316.418-.11.19Q.813 5 .5 5q-.125 0-.227-.055-.18-.094-.246-.29t.027-.382q.04-.078.113-.203t.293-.418.473-.547.664-.523.848-.41Q2.25 1.844 2.25 1.5q0-.516.367-.883T3.5.25t.883.367.367.883q0 .258-.11.5H7q0-.086.055-.156t.14-.086l3.5-.75Q10.72 1 10.752 1q.095 0 .157.055.094.07.094.195z" /></svg>