<svg xmlns="http://www.w3.org/2000/svg" viewBox="0 0 14 14"><path d="M7.055 14q-2.21 0-3.94-1.176T.54 9.71Q.087 8.69.017 7.36t.203-2.6.867-2.437T2.485.428L2.4 2.623q.085-.11.53-.12t.547.12q.328-.633 1.254-1.078t1.833-.46q-.422.35-.934 1.16T5.17 3.52q.195.063.488.106t.492.06.53.03.396.023q.117.038.074.354t-.238.59q-.04.055-.13.145t-.44.276-.79.266l.118 1.477-1.086-.524q-.14.336-.06.637t.282.52.512.324.633.05q.398-.07.766-.27t.65-.35.575-.138q.477.03.7.257t.15.508q-.007.016-.02.043t-.065.098-.14.12-.247.083-.363.007q-.47.742-1.13 1.06t-1.636.23q.578.476 1.27.644t1.316.048 1.207-.406 1-.684.63-.813q.335-.71.304-1.504T10.63 5.32t-.613-.977q.68.298 1.07.622t.602.88q.117-1.33-.45-2.68T9.602.94q2.07.602 3.22 2.184T14 7.17q.016.99-.316 1.99t-.965 1.86-1.478 1.53-1.934 1.06-2.254.387z" /></svg>