<svg xmlns="http://www.w3.org/2000/svg" viewBox="0 0 14 14"><path d="M6.5 7.813v-1.5q-1.414.125-3 .914v1.445q1.602-.75 3-.86zm0-3.266v-1.54q-1.344.063-3 .985V5.47q1.68-.868 3-.923zM13 8.164V6.726q-1.836.906-3 .555V5.53q-.156-.046-.305-.116-.04-.023-.258-.133t-.27-.132-.246-.117-.27-.12-.253-.102-.28-.098-.274-.066-.31-.06-.308-.03-.344-.016q-.18 0-.382.023v1.735h.148q.797 0 1.504.227t1.543.64q.148.07.305.118v1.47q.328.132.71.132.938 0 2.29-.72zm0-3.336V3.35q-1.32.712-2.39.712-.353 0-.61-.062v1.53q1.156.33 3-.702zM2.5 2q0 .273-.137.5T2 2.86v9.89q0 .11-.07.18t-.18.07h-.5q-.11 0-.18-.07T1 12.75V2.86Q.773 2.725.637 2.5T.5 2q0-.414.293-.707T1.5 1t.707.293T2.5 2zm11.5.5v5.96q0 .306-.273.446l-.133.07q-1.703.906-2.883.906-.687 0-1.233-.273l-.22-.11q-.5-.258-.772-.375t-.71-.227-.892-.11q-.797 0-1.84.345t-1.785.797Q3.14 10 3 10q-.125 0-.25-.062Q2.5 9.79 2.5 9.5V3.703q0-.273.242-.43.273-.164.613-.332t.89-.405 1.192-.387T6.647 2q.876 0 1.634.242t1.634.672q.297.148.695.148.952 0 2.42-.875l.243-.133q.242-.125.484.016.242.156.242.43z" /></svg>