<svg xmlns="http://www.w3.org/2000/svg" viewBox="0 0 13 14"><path d="M5.664 4.367L4.336 7.883q.258 0 1.066.016t1.254.015q.148 0 .445-.016-.68-1.978-1.437-3.532zM0 13l.016-.617q.18-.055.438-.098t.445-.082.386-.113.348-.227.242-.395l1.852-4.813L5.916 1h1q.062.108.086.163l1.602 3.75q.258.61.828 2.012t.89 2.145q.118.266.454 1.13t.563 1.315q.155.352.272.445.148.117.688.23t.656.16q.047.297.047.445 0 .03-.004.102t-.005.102q-.492 0-1.484-.063t-1.49-.062q-.595 0-1.68.055t-1.392.062q0-.336.03-.61l1.024-.218q.008 0 .098-.02t.12-.027.114-.035.117-.05.087-.063.07-.087.02-.11q0-.124-.242-.753t-.563-1.387-.328-.78l-3.516-.017q-.203.453-.598 1.527t-.395 1.27q0 .172.11.293t.34.19.378.106.445.066.32.03q.008.15.008.454 0 .07-.016.21-.453 0-1.363-.077t-1.363-.078q-.062 0-.207.03t-.168.032q-.626.108-1.47.108z" /></svg>