<svg xmlns="http://www.w3.org/2000/svg" viewBox="0 0 12 14"><path d="M0 1h12v12H0V1zm7.094 2.5L7 3.758l.586.648-.242.89.195.196.835-.445.836.445.196-.195-.242-.89.586-.65-.094-.257h-.742L8.5 2.75h-.25l-.414.75h-.742zM5.008 4.773q.25 0 .348.125t.09.492l1.36-.164q0-.43-.138-.723t-.395-.438-.54-.2-.663-.054q-1.04 0-1.555.45T3 5.686v.563h-.75v1h.593Q3 7.25 3 7.31v2.985q0 .11-.04.156t-.14.056l-.57.055v.69h3.5v-.673l-1.165-.11q-.047-.007-.066-.01t-.028-.02-.004-.032.008-.055.004-.078V7.25h1.492l.297-1H4.483q-.047 0-.016-.048t.03-.07v-.625q0-.21.013-.316t.06-.218.152-.156.285-.043zM9.75 11.25v-.672l-.422-.07q-.055-.008-.074-.02t-.02-.023.008-.06.008-.093V6.25H7.102l-.18.788.648.172q.18.055.18.21v2.892q0 .11-.047.145t-.156.05l-.547.07v.673h2.75z" /></svg>