<svg xmlns="http://www.w3.org/2000/svg" viewBox="0 0 12 14"><path d="M7.297 1.172q-2.477.945-4.344 2.832T.156 8.384Q0 7.687 0 7.007q0-1.625.8-3.004t2.177-2.18 3-.8q.64 0 1.32.147zm2.1.93q.728.508 1.282 1.21-3.04.884-5.27 3.13t-3.1 5.285q-.726-.563-1.21-1.266.875-3.015 3.086-5.24T9.396 2.1zm-5.725 10.42q.898-2.78 2.965-4.858t4.84-3q.312.72.422 1.523-2.282.937-4.032 2.695t-2.68 4.047q-.805-.11-1.516-.407zm8.328.455q-1.508-.39-2.867-.898-1.055.655-2.266.835.852-1.602 2.14-2.895t2.884-2.152q-.163 1.187-.788 2.22.508 1.366.898 2.89z" /></svg>