<svg xmlns="http://www.w3.org/2000/svg" viewBox="0 0 10 14"><path d="M7.813 3.39l.29-1.515q.038-.18-.07-.312t-.274-.133H2.196q-.18 0-.3.133t-.122.29v8.6q0 .056.047.01l2.273-2.75q.18-.204.297-.263t.375-.06h1.867q.172 0 .29-.112t.14-.23q.187-1.016.29-1.492.03-.164-.09-.312t-.286-.148H4.68q-.226 0-.374-.148t-.148-.375v-.328q0-.227.148-.37t.375-.146h2.704q.14 0 .273-.106t.156-.23zm1.773-1.734q-.117.57-.418 2.082t-.543 2.734-.273 1.355q-.047.172-.07.254t-.11.255-.19.258-.3.164-.454.078H5.11q-.1 0-.17.078-.063.07-3.33 3.86-.17.194-.456.222t-.38-.043q-.43-.172-.43-.766V1.17q0-.43.298-.8t.937-.372h6.937q.742 0 .992.414t.077 1.242zm0 0L8.352 7.828q.03-.133.273-1.355t.543-2.734.418-2.083z" /></svg>