<svg xmlns="http://www.w3.org/2000/svg" viewBox="0 0 12 14"><path d="M8.86 9.602q.06.195-.032.38t-.29.245-.382-.03-.25-.298q-.195-.626-.723-1.013T6 8.5t-1.185.387T4.092 9.9q-.062.202-.246.296t-.38.03q-.202-.06-.296-.245t-.03-.378q.288-.945 1.077-1.523t1.78-.58 1.782.58T8.856 9.6zM5 5q0 .414-.293.707T4 6t-.707-.293T3 5t.293-.707T4 4t.707.293T5 5zm4 0q0 .414-.293.707T8 6t-.707-.293T7 5t.293-.707T8 4t.707.293T9 5zm2 2q0-1.016-.398-1.94T9.536 3.464 7.942 2.4 6.002 2t-1.942.4-1.594 1.065T1.4 5.06 1.002 7 1.4 8.94t1.066 1.595T4.06 11.6 6 12t1.942-.4 1.594-1.065 1.066-1.594T11 7zm1 0q0 1.633-.805 3.012T9.01 12.196 6 13t-3.013-.804-2.184-2.184T-.002 7t.805-3.012 2.184-2.184T6 1t3.01.804 2.185 2.184T12 7z" /></svg>