<svg xmlns="http://www.w3.org/2000/svg" viewBox="0 0 14 14"><path d="M4.758 6.375L7 4.75l2.242 1.625L8.39 9H5.617zM7 0q1.422 0 2.72.555t2.233 1.492 1.492 2.234T14 7t-.555 2.72-1.492 2.233-2.234 1.492T7 14t-2.72-.555-2.233-1.492T.555 9.72 0 7t.555-2.72 1.492-2.233T4.28.555 7 0zm4.836 10.547Q13 8.96 13 7v-.023l-.797.695-1.875-1.75.492-2.523 1.047.093q-1.172-1.61-3.04-2.203l.415.97L7 3.5 4.758 2.26l.414-.97q-1.867.594-3.04 2.203L3.19 3.4l.484 2.522-1.875 1.75L1 6.977V7q0 1.96 1.164 3.547l.234-1.03 2.547.31 1.086 2.33-.905.538Q6.04 13 7 13t1.875-.305l-.906-.54L9.054 9.83l2.547-.312z" /></svg>