<svg xmlns="http://www.w3.org/2000/svg" viewBox="0 0 15 14"><path d="M6.5 8.5v-1q0-.11-.07-.18t-.18-.07h-1.5v-1.5q0-.11-.07-.18T4.5 5.5h-1q-.11 0-.18.07t-.07.18v1.5h-1.5q-.11 0-.18.07t-.07.18v1q0 .11.07.18t.18.07h1.5v1.5q0 .11.07.18t.18.07h1q.11 0 .18-.07t.07-.18v-1.5h1.5q.11 0 .18-.07t.07-.18zM11 9q0-.414-.293-.707T10 8t-.707.293T9 9t.293.707T10 10t.707-.293T11 9zm2-2q0-.414-.293-.707T12 6t-.707.293T11 7t.293.707T12 8t.707-.293T13 7zm2 1q0 1.656-1.172 2.828T11 12q-1.5 0-2.64-1H6.64Q5.5 12 4 12q-1.657 0-2.83-1.172T0 8t1.17-2.828T4 4h7q1.655 0 2.827 1.172T15 8z" /></svg>