<svg xmlns="http://www.w3.org/2000/svg" viewBox="0 0 14 14"><path d="M13.836 12q0 .414-.29.703l-.835.844q-.304.29-.71.29-.414 0-.703-.29L8.46 10.703q-.296-.28-.296-.703 0-.414.336-.75l-2-2-.984.984q-.11.11-.266.11t-.266-.11q.016.016.098.094t.098.102.078.09.078.105.047.105.043.13.012.14q0 .297-.22.53-.022.024-.128.142t-.148.16-.145.13-.172.12-.172.07-.203.035q-.312 0-.53-.22L.53 6.78q-.218-.22-.218-.53 0-.103.035-.204t.07-.172.12-.172.13-.145.16-.148.14-.13q.235-.22.532-.22.077 0 .14.013t.13.043.104.047.105.078.09.08.1.097.095.098q-.11-.11-.11-.266t.11-.267l2.72-2.72q.108-.108.265-.108t.266.11q-.016-.017-.098-.095t-.098-.102-.078-.09-.078-.105-.047-.105-.043-.13-.012-.14q0-.297.22-.53.022-.024.128-.142t.148-.16.145-.13.172-.12.172-.07T6.25.31q.312 0 .53.22l3.19 3.188q.218.22.218.53 0 .103-.035.204t-.07.172-.12.172-.13.145-.16.15-.14.128q-.235.22-.532.22-.077 0-.14-.013t-.13-.043-.104-.047-.105-.078-.09-.078-.1-.1-.095-.097q.11.11.11.266t-.11.265L7.25 6.5l2 2q.337-.337.75-.337.407 0 .712.29l2.836 2.835q.29.305.29.71z" /></svg>