<svg xmlns="http://www.w3.org/2000/svg" viewBox="0 0 8 14"><path d="M7.97 8.883v2.867q0 .11-.07.18t-.18.07H.25q-.11 0-.18-.07T0 11.75v-1.172q0-.102.074-.176t.176-.074h.758V7.336H.266q-.11 0-.18-.074t-.07-.176V6.063q0-.11.07-.18t.18-.07h.742V4.07q0-1.335.965-2.202T4.43 1q1.445 0 2.617.978.07.062.078.16t-.055.176l-.805.992q-.07.086-.172.094-.102.016-.18-.055-.04-.04-.203-.148t-.54-.25-.726-.14q-.664 0-1.07.366t-.406.96v1.68H5.35q.103 0 .177.07t.074.18v1.024q0 .102-.073.176t-.176.074H2.97v2.96h3.234V8.885q0-.102.07-.176t.18-.074h1.266q.11 0 .18.074t.07.176z" /></svg>