<svg xmlns="http://www.w3.org/2000/svg" viewBox="0 0 12 14"><path d="M4.547 10.22q0 .515-.727.515-.836 0-.836-.492 0-.5.766-.5.797 0 .797.477zm-.28-3.642q0 .664-.58.664-.6 0-.6-.656 0-.703.6-.703.282 0 .43.2t.15.495zm1.295-.586v-.977q-.61.227-1.055.227-.39-.227-.86-.227-.67 0-1.132.445t-.46 1.117q0 .39.23.797t.573.523v.023q-.297.133-.297.664 0 .414.32.602v.023Q2 9.497 2 10.294q0 .352.156.613t.422.398.563.2.632.06q1.75 0 1.75-1.468 0-.523-.375-.773t-.984-.36q-.21-.038-.402-.16t-.19-.308q0-.344.383-.406.602-.116.953-.546t.352-1.047q0-.187-.078-.406.29-.07.383-.1zm.46 3.274h1.07q-.015-.21-.015-.64V5.6q0-.36.016-.54h-1.07q.023.18.023.556V8.68q0 .392-.023.587zM10 9.14v-.944q-.234.164-.53.164-.415 0-.415-.64V5.96h.406q.07 0 .208.01t.207.007v-.914h-.82q0-.64.023-.797H7.984q.03.187.03.43v.367h-.468v.914l.29-.023q.022 0 .085.004t.095.004v.016H8v1.695q0 .29.02.5t.09.44.19.38.34.242.516.094q.5 0 .844-.188zM7.22 3.626q0-.28-.188-.496t-.47-.216-.472.21-.19.5q0 .282.194.49t.47.206.464-.21.19-.485zM12 3.25v7.5q0 .93-.66 1.59T9.75 13h-7.5q-.93 0-1.59-.66T0 10.75v-7.5q0-.93.66-1.59T2.25 1h7.5q.93 0 1.59.66T12 3.25z" /></svg>