<svg xmlns="http://www.w3.org/2000/svg" viewBox="0 0 13 14"><path d="M5 9.5q0 .312-.098.64t-.336.595T4 11t-.566-.265-.336-.594T3 9.5t.098-.64.336-.595T4 8t.566.265.336.594T5 9.5zm5 0q0 .312-.098.64t-.336.595T9 11t-.566-.265-.336-.594T8 9.5t.098-.64.336-.595T9 8t.566.265.336.594.098.64zm1.25 0q0-.937-.54-1.594T9.25 7.25q-.32 0-1.523.164Q7.172 7.5 6.5 7.5t-1.227-.086Q4.086 7.25 3.75 7.25q-.922 0-1.46.656T1.75 9.5q0 .688.25 1.2t.633.804.953.47 1.094.23 1.164.054h1.313q.64 0 1.164-.055t1.095-.23.953-.47T11 10.7t.25-1.2zM13 8.125q0 1.617-.477 2.586-.297.603-.824 1.04t-1.103.672-1.328.37-1.34.173T6.623 13q-.61 0-1.11-.023t-1.15-.098-1.192-.235-1.07-.402-.945-.633-.672-.898Q0 9.752 0 8.126q0-1.852 1.063-3.094-.21-.64-.21-1.328 0-.906.397-1.703.844 0 1.484.31t1.477.965q1.15-.273 2.415-.273 1.156 0 2.187.25.82-.64 1.46-.945t1.478-.305q.398.797.398 1.703 0 .68-.21 1.313 1.06 1.25 1.06 3.11z" /></svg>