<svg xmlns="http://www.w3.org/2000/svg" viewBox="0 0 14 14"><path d="M4.703 4.586q.148.477.242.965t.133 1.106-.11 1.242-.483 1.133Q4.32 8.4 3.962 7.805t-.746-.992-.773-.707-.613-.45-.258-.147q-.484-.266-.637-.78t.113-1 .79-.638 1.007.113q1.078.648 1.86 1.383zm2.54-2.242q.085.195.16.36t.284.784.332 1.176.198 1.402 0 1.605-.37 1.638-.825 1.63q-.398.562-1.078.562-.422 0-.766-.242-.446-.312-.54-.852t.22-.992q.468-.664.632-1.523t.102-1.558-.25-1.41-.305-1-.173-.406q-.242-.492-.066-1.012t.67-.762q.265-.133.585-.133.367 0 .69.194t.497.54zM9.75 7.57Q9.617 8.82 9.187 10q-.133-1.023-.492-1.922.195-1.36-.04-2.82-.21-1.39-.733-2.672.89.703 1.656 1.648.07.29.117.625.203 1.397.055 2.71zM11.875.75q.07.133.184.387t.34.918.394 1.39.266 1.778.04 2.102-.368 2.344-.88 2.526q-.17.375-.515.59t-.742.215q-.305 0-.578-.124-.523-.242-.723-.78t.035-1.063q.452-.984.702-2.012t.293-1.87-.027-1.668-.207-1.41-.3-1.082-.254-.703-.12-.254q-.267-.508-.09-1.06t.683-.815q.288-.156.632-.156.383 0 .715.2t.52.55z" /></svg>