<svg xmlns="http://www.w3.org/2000/svg" viewBox="0 0 10 14"><path d="M7.664 10.46q0-.194-.055-.382t-.114-.328-.21-.324-.23-.273-.302-.27-.285-.227-.325-.234-.285-.203q-.125-.017-.383-.017-.414 0-.816.055t-.835.195-.758.36-.535.58-.21.825q0 .438.183.797t.477.59.68.39.78.228.794.066q.453 0 .87-.103t.774-.305.57-.57.215-.852zM6.75 3.76q0-.46-.133-.98T6.242 1.77 5.586.96 4.672.64q-.328 0-.645.153t-.52.41q-.36.46-.36 1.25 0 .36.08.762t.245.805.406.723.586.523.754.203q.29 0 .605-.13T6.335 5q.414-.438.414-1.242zM5.875 0h3.258l-1.07.688h-1.03q.585.492.882 1.04t.297 1.25q0 .562-.19 1.01t-.466.728-.543.508-.46.48-.192.516q0 .28.25.55t.603.532.707.574.605.813.25 1.108q0 .71-.383 1.352-.555.953-1.637 1.402t-2.332.45q-1.03 0-1.926-.325T1.15 11.603q-.282-.46-.282-1.023 0-.633.348-1.172t.926-.898q1.023-.64 3.156-.78-.25-.32-.37-.575t-.122-.574q0-.31.164-.663-.36.03-.53.03-1.157 0-1.95-.753t-.793-1.91q0-.64.28-1.242t.774-1.023Q3.346.502 4.174.252t1.703-.25z" /></svg>