<svg xmlns="http://www.w3.org/2000/svg" viewBox="0 0 18 14"><path d="M13.86 6.53L14 9q.03.54-.64 1t-1.837.73T9 11t-2.523-.27T4.64 10 4 9l.14-2.47 4.485 1.415Q8.797 8 9 8t.375-.055zM18 4q0 .18-.172.242l-8.75 2.75Q9.048 7 9 7t-.078-.008l-5.094-1.61q-.336.267-.555.872T3.007 7.65q.492.28.492.85 0 .54-.454.837L3.5 12.72q.015.11-.063.195-.07.086-.187.086h-1.5q-.117 0-.187-.085-.078-.086-.062-.195l.454-3.383Q1.5 9.04 1.5 8.5q0-.57.51-.866.085-1.617.765-2.578L.173 4.243Q0 4.18 0 4t.173-.24l8.75-2.75Q8.953 1 9 1t.08.01l8.75 2.75q.17.06.17.24z" /></svg>