<svg xmlns="http://www.w3.org/2000/svg" viewBox="0 0 13 14"><path d="M6.875 1q-.36 0-.617.258T6 1.875V7h-.25V2.875q0-.36-.258-.617T4.875 2t-.617.258T4 2.875V9L2.797 7.398Q2.5 7 2 7q-.414 0-.707.293T1 8q0 .336.203.602l3 4Q4.5 13 5 13h5.375q.266 0 .477-.172t.266-.438l.594-3.164q.04-.25.04-.46V4.873q0-.36-.26-.617T10.877 4t-.617.257-.26.617V7h-.25V2.873q0-.36-.257-.617T8.876 2t-.617.257-.26.617V7h-.25V1.873q0-.36-.257-.617T6.876 1zm0-1q.53 0 .98.277t.69.754q.15-.03.33-.03.772 0 1.323.55t.55 1.325v.133q.82-.047 1.41.5t.59 1.367v3.89q0 .313-.06.65l-.595 3.155q-.11.617-.598 1.023t-1.12.406H4.998q-.47 0-.896-.216t-.707-.582l-3-4Q0 8.672 0 8q0-.83.585-1.415T2 6q.608 0 1 .265v-3.39q0-.774.55-1.325T4.874 1q.18 0 .328.03.242-.477.69-.754T6.873 0z" /></svg>