<svg xmlns="http://www.w3.org/2000/svg" viewBox="0 0 12 14"><path d="M10 12.5q0-.203-.148-.352T9.5 12t-.352.148T9 12.5t.148.352T9.5 13t.352-.148T10 12.5zm1-5.97q0-1.476-1.305-1.476-.203 0-.438.04-.125-.235-.41-.372t-.574-.137-.54.14q-.39-.413-.93-.413-.194 0-.433.078T6 4.585V2q0-.407-.298-.704T5 1q-.4 0-.7.304T4 2v4.5q-.157 0-.38-.118t-.43-.258-.53-.258T2 5.75q-.524 0-.763.347T1 7q0 .186 1.085.702.344.187.508.29.5.31 1.133.874.633.555.828.79.445.538.445 1.093V11h5v-.25q0-.564.25-1.306t.5-1.512T11 6.53zm1-.038q0 1.04-.54 2.516-.46 1.28-.46 1.742V13q0 .414-.293.707T10 14H5q-.414 0-.707-.293T4 13v-2.25q0-.078-.035-.168t-.11-.184-.14-.176-.176-.187-.17-.16-.167-.148-.133-.11q-.578-.507-1.008-.78-.164-.102-.484-.258t-.563-.29-.492-.316-.387-.43T0 7Q0 6.025.52 5.39T2 4.75q.53 0 1 .173V2q0-.812.593-1.405T4.99 0q.82 0 1.415.59T7 2v1.32q.483.032.93.29.163-.023.335-.023.79 0 1.39.47 1.087-.01 1.716.663T12 6.493z" /></svg>