<svg xmlns="http://www.w3.org/2000/svg" viewBox="0 0 14 14"><path d="M2 10.5q0-.203-.148-.352T1.5 10t-.352.148T1 10.5t.148.352T1.5 11t.352-.148T2 10.5zM13 6q0-.398-.305-.7T12 5H7.5q0-.156.117-.38t.258-.43.258-.53T8.25 3q0-.523-.348-.762T7 2q-.187 0-.703 1.086-.187.344-.29.508-.31.5-.874 1.133-.555.633-.79.828Q3.806 6 3.25 6H3v5h.25q.563 0 1.305.25t1.512.5T7.47 12q1.476 0 1.476-1.305 0-.203-.04-.438.235-.125.372-.41t.137-.574-.14-.54q.413-.39.413-.93 0-.194-.078-.433T9.415 7H12q.407 0 .704-.298T13 6zm1-.008q0 .82-.59 1.414T12 8h-1.32q-.03.484-.29.93.024.164.024.336 0 .79-.47 1.39.01 1.087-.663 1.716t-1.772.63q-1.04 0-2.516-.54-1.28-.46-1.742-.46H1q-.414 0-.707-.294T0 11V6q0-.413.293-.706T1 5h2.25q.078 0 .168-.034t.184-.11.176-.14.187-.176.16-.168.148-.168.11-.133q.507-.577.78-1.007.102-.164.258-.484t.29-.564.316-.492.43-.387T7 1q.976 0 1.612.523T9.25 3q0 .53-.173 1H12q.812 0 1.405.594T14 5.992z" /></svg>