<svg xmlns="http://www.w3.org/2000/svg" viewBox="0 0 12 14"><path d="M11 7.5q0-.656-.25-1.43t-.5-1.516T10 3.25V3H5v.25q0 .272-.094.526t-.29.488-.358.39-.422.384q-.07.062-.11.094-.632.563-1.132.875-.172.11-.53.297-.024.008-.177.082t-.28.145-.278.157-.24.168T1 7q0 .555.24.902T2 8.25q.337 0 .66-.117t.532-.258.43-.258.38-.117V12q0 .39.3.695t.7.305q.405 0 .702-.297T6 12V9.414q.36.273.806.273.54 0 .93-.414.25.14.54.14t.573-.136.41-.37q.186.03.437.03.664 0 .984-.38T11 7.5zm-1-6q0-.203-.148-.352T9.5 1t-.352.148T9 1.5t.148.352T9.5 2t.352-.148T10 1.5zm2 5.97q0 1.108-.605 1.796t-1.7.68l-.038-.008q-.594.477-1.39.477-.173 0-.337-.023-.422.234-.93.29V12q0 .82-.594 1.41T4.992 14q-.805 0-1.398-.595T3 12V9.08q-.422.17-1 .17-.945 0-1.473-.636T0 7q0-.296.137-.542t.387-.43.492-.316.563-.29.483-.257q.43-.273 1.008-.78.024-.017.134-.11t.168-.148.168-.16.176-.187.14-.176.11-.184T4 3.252v-2.25q0-.414.294-.707T5 .002h5q.415 0 .708.293t.293.707v2.25q0 .46.462 1.742.54 1.484.54 2.477z" /></svg>