<svg xmlns="http://www.w3.org/2000/svg" viewBox="0 0 14 14"><path d="M10.75 11H11V6h-.25q-.273 0-.527-.094t-.488-.29-.39-.358-.384-.422q-.015-.023-.026-.035t-.03-.034-.036-.04q-.563-.632-.875-1.132-.11-.172-.297-.53-.008-.024-.082-.177t-.145-.28-.157-.278-.168-.24T7 2q-.555 0-.902.24T5.75 3q0 .337.117.66t.258.532.258.43.117.38H2q-.39 0-.695.3t-.305.7q0 .405.297.702T2 7h2.586q-.117.134-.195.372t-.077.434q0 .54.414.93-.14.25-.14.54t.136.573.37.41q-.03.186-.03.437 0 .664.38.984T6.5 12q.657 0 1.43-.25t1.517-.5 1.305-.25zm2.25-.5q0-.203-.148-.352T12.5 10t-.352.148T12 10.5t.148.352.352.148.352-.148T13 10.5zM14 6v5q0 .414-.293.707T13 12h-2.25q-.46 0-1.742.46Q7.524 13 6.53 13q-1.108 0-1.796-.605t-.68-1.7l.008-.038q-.477-.594-.477-1.39 0-.173.023-.337-.258-.445-.29-.93H2q-.82 0-1.41-.594T0 5.992q0-.805.595-1.398T2 4h2.92q-.17-.47-.17-1 0-.953.636-1.477T7 1q.296 0 .542.137t.43.387.316.492.29.563.257.483q.273.43.78 1.008.017.024.11.134t.148.168.16.168.187.176.176.14.184.11.168.035h2.25q.414 0 .707.294t.293.707z" /></svg>