<svg xmlns="http://www.w3.org/2000/svg" viewBox="0 0 12 14"><path d="M6 3q-.414 0-.707.293T5 4v1h-.25v-.727q0-.375-.25-.637t-.625-.262q-.36 0-.617.258T3 4.25V7.6l-.25-.233V6.023q0-.375-.25-.637t-.625-.262q-.36 0-.617.258T1 6v1.75q0 .366.273.64l2.422 2.313Q4 11.008 4 11.5q0 .203.148.352T4.5 12h5q.203 0 .352-.148T10 11.5v-.195q0-.32.078-.602l.844-3.406q.078-.28.078-.602V4.773q0-.375-.25-.637t-.625-.262q-.36 0-.617.258t-.258.617V5H9V4.02q0-.312-.195-.566t-.5-.316q-.11-.016-.18-.016-.36 0-.617.258T7.25 4v1H7v-.954q0-.398-.254-.7t-.645-.34Q6.063 3 6 3zm0-1q.656 0 1.164.39.445-.265.96-.265.462 0 .868.21t.672.595q.21-.055.46-.055.782 0 1.33.56T12 4.774v1.92q0 .4-.102.845l-.852 3.406Q11 11.133 11 11.5q0 .626-.44 1.063T9.5 13h-5q-.657 0-1.08-.456T3 11.43L.592 9.12Q0 8.548 0 7.75V6q0-.772.55-1.323t1.324-.55q.086 0 .125.007.046-.742.59-1.25t1.284-.508q.406 0 .766.164Q5.203 2 6 2z" /></svg>