<svg xmlns="http://www.w3.org/2000/svg" viewBox="0 0 12 14"><path d="M10.063 5.055q.47 0 .836.18Q12 5.727 12 7v1.384q0 .734-.18 1.453l-.663 2.648q-.164.672-.707 1.094T9.22 14H4q-.827 0-1.413-.585T2 12V8.87L.135 3.962Q0 3.61 0 3.252q0-.83.587-1.415T2 1.25q.626 0 1.138.356t.73.934L4 2.884V2q0-.827.587-1.413T6 0t1.415.587T8 2v2.04Q8.213 4 8.377 4q.54 0 .996.286t.69.77zM8.375 5q-.258 0-.473.14t-.324.376L7 6.79 6.445 8h.43q.39 0 .703.246t.39.63l1.204-2.642q.078-.156.078-.36 0-.358-.258-.616T8.375 5zm1.727 1.055q-.172 0-.316.062t-.227.125-.185.23-.133.238T9.11 7L8.077 9.264Q8 9.42 8 9.625q0 .358.258.616t.617.26q.258 0 .473-.142t.324-.375l1.25-2.75q.07-.14.07-.297 0-.39-.25-.637t-.64-.247zM1 3.25q0 .172.062.36L3 8.686v.54l.796-.868Q4.132 8 4.624 8H6.17L7 6.18V2q0-.414-.294-.707T6 1t-.708.293T5 2v5h-.5L2.935 2.89q-.11-.288-.367-.464T2 2.25q-.415 0-.708.293T1 3.25zM9.22 13q.343 0 .612-.21t.355-.548l.664-2.648q.15-.57.15-1.21V7.67l-1.103 2.422q-.133.297-.414.477t-.61.18q-.413 0-.73-.27t-.378-.675q-.344.445-.89.445H5.248V10h1.624q.36 0 .633-.258t.273-.617-.242-.617-.602-.258H4.623q-.383 0-.64.28l-.985 1.063V12q0 .413.293.706T4 13h5.22z" /></svg>