<svg xmlns="http://www.w3.org/2000/svg" viewBox="0 0 16 14"><path d="M8.992 0q.477 0 .906.22t.71.6l4.47 6.103Q16 8.165 16 9.728V12.5q0 .626-.438 1.063T14.5 14h-3q-.625 0-1.062-.437T10 12.5V11.12L7.766 10H3.5q-.625 0-1.062-.437T2 8.5v-.25q0-.93.66-1.59T4.25 6h3.28l.33-1H2.5q-.78 0-1.355-.526t-.637-1.3Q0 2.555 0 1.75V1.5Q0 .877.438.44T1.5 0h7.492zM15 12.5V9.727q0-1.227-.727-2.22l-4.477-6.1Q9.49 1 8.99 1H1.5q-.204 0-.353.148T1 1.5q0 .25.01.387t.075.316.195.336q.078-.243.277-.392T1.997 2h6.5v.25h-6.5q-.202 0-.35.148t-.15.352q0 .344.024.453.063.344.345.57T2.498 4h5.71q.313 0 .532.22t.22.53q0 .117-.04.234l-.5 1.5q-.078.227-.273.37T7.71 7H4.25q-.517 0-.884.367T3 8.25v.25q0 .203.147.352T3.5 9H7.88q.125 0 .227.055l2.476 1.234q.187.1.3.28t.114.39v1.54q0 .203.148.352T11.5 13h3q.203 0 .352-.148T15 12.5z" /></svg>