<svg xmlns="http://www.w3.org/2000/svg" viewBox="0 0 12 14"><path d="M8.125 9.5q0 .258-.184.44t-.44.185-.44-.184-.185-.44.184-.44.44-.185.44.184.185.44zm2 0q0 .258-.184.44t-.44.185-.44-.184-.185-.44.184-.44.44-.185.44.184.185.44zM11 10.75v-2.5q0-.102-.074-.176T10.75 8h-9.5q-.102 0-.176.074T1 8.25v2.5q0 .102.074.176T1.25 11h9.5q.102 0 .176-.074T11 10.75zM1.39 7h9.22L9.383 3.234q-.03-.102-.125-.168T9.055 3h-6.11q-.108 0-.202.066t-.125.168zM12 8.25v2.5q0 .516-.367.883T10.75 12h-9.5q-.516 0-.883-.367T0 10.75v-2.5q0-.195.125-.586l1.54-4.734q.132-.414.49-.672T2.946 2h6.11q.43 0 .788.258t.492.672l1.54 4.734q.124.39.124.586z" /></svg>