<svg xmlns="http://www.w3.org/2000/svg" viewBox="0 0 14 14"><path d="M13.14 13q-.343 0-1.034-.027t-1.043-.027q-.344 0-1.03.027T9 13q-.186 0-.288-.16t-.102-.355q0-.242.133-.36t.305-.132.398-.055.352-.117q.258-.163.258-1.093l-.008-3.055q0-.164-.008-.242-.102-.03-.39-.03H4.375q-.297 0-.398.03-.008.078-.008.242l-.008 2.898q0 1.11.29 1.28.124.08.374.103t.445.027.353.117.156.355q0 .203-.1.375T5.197 13q-.367 0-1.09-.028t-1.082-.027q-.336 0-1 .027T1.032 13q-.18 0-.277-.165t-.098-.352q0-.234.12-.352t.282-.136.37-.06.328-.116q.258-.18.258-1.117l-.008-.444V3.904q0-.023.004-.203t0-.284-.012-.3-.027-.33-.05-.284-.087-.246-.125-.14q-.116-.08-.35-.095t-.415-.015-.32-.11-.14-.35q0-.204.093-.376t.28-.173q.36 0 1.083.027t1.083.027q.328 0 .988-.026T5 .997q.194 0 .292.172t.098.374q0 .234-.133.34t-.3.113-.388.03-.337.103q-.273.164-.273 1.25l.008 2.5q0 .164.008.25.102.023.305.023h5.462q.195 0 .297-.023.007-.086.007-.25l.008-2.5q0-1.086-.273-1.25-.14-.086-.457-.098T8.81 1.93t-.2-.387q0-.203.098-.375T9 .996q.345 0 1.032.027t1.03.027q.337 0 1.01-.027t1.007-.027q.194 0 .292.172t.098.375q0 .234-.137.344T13.02 2t-.4.023-.345.098q-.273.18-.273 1.26l.008 7.366q0 .93.266 1.094.125.078.36.105t.417.035.324.12.14.35q0 .202-.093.374t-.28.172z" /></svg>