<svg xmlns="http://www.w3.org/2000/svg" viewBox="0 0 12 14"><path d="M11 1q0 2.04-.832 3.605T8.086 7q1.25.828 2.082 2.395T11 13h.75q.11 0 .18.07t.07.18v.5q0 .11-.07.18t-.18.07H.25q-.11 0-.18-.07T0 13.75v-.5q0-.11.07-.18T.25 13H1q0-2.04.832-3.605T3.914 7q-1.25-.828-2.082-2.395T1 1H.25Q.14 1 .07.93T0 .75v-.5Q0 .14.07.07T.25 0h11.5q.11 0 .18.07t.07.18v.5q0 .11-.07.18t-.18.07H11zm-1 0H2q0 1.61.664 3h6.672Q10 2.61 10 1zm-.445 9.5q-.422-1.102-1.137-1.887T6.898 7.5H5.1q-.804.328-1.52 1.113T2.445 10.5h7.11z" /></svg>