<svg xmlns="http://www.w3.org/2000/svg" viewBox="0 0 12 14"><path d="M11 1q0 2.04-.832 3.605T8.086 7q1.25.828 2.082 2.395T11 13h.75q.11 0 .18.07t.07.18v.5q0 .11-.07.18t-.18.07H.25q-.11 0-.18-.07T0 13.75v-.5q0-.11.07-.18T.25 13H1q0-2.04.832-3.605T3.914 7q-1.25-.828-2.082-2.395T1 1H.25Q.14 1 .07.93T0 .75v-.5Q0 .14.07.07T.25 0h11.5q.11 0 .18.07t.07.18v.5q0 .11-.07.18t-.18.07H11zM6.828 6.53q.602-.226 1.164-.722t1.012-1.19.723-1.642T10 1H2q0 1.03.273 1.976t.723 1.64T4.008 5.81t1.164.723q.148.056.238.185T5.5 7t-.09.285-.238.184Q4.102 7.866 3.266 9h5.47q-.837-1.133-1.907-1.53-.15-.056-.24-.185T6.5 7t.09-.285.24-.184z" /></svg>