<svg xmlns="http://www.w3.org/2000/svg" viewBox="0 0 12 14"><path d="M11 1q0 2.04-.832 3.605T8.086 7q1.25.828 2.082 2.395T11 13h.75q.11 0 .18.07t.07.18v.5q0 .11-.07.18t-.18.07H.25q-.11 0-.18-.07T0 13.75v-.5q0-.11.07-.18T.25 13H1q0-2.04.832-3.605T3.914 7q-1.25-.828-2.082-2.395T1 1H.25Q.14 1 .07.93T0 .75v-.5Q0 .14.07.07T.25 0h11.5q.11 0 .18.07t.07.18v.5q0 .11-.07.18t-.18.07H11zm-1 0H2q0 .516.07 1h7.86q.07-.477.07-1zm0 12q0-1.016-.266-1.95t-.707-1.624T8.04 8.24 6.897 7.5H5.1q-.593.243-1.14.74t-.988 1.186-.707 1.625T2 13h8z" /></svg>