<svg xmlns="http://www.w3.org/2000/svg" viewBox="0 0 12 14"><path d="M11.75 12.5q.11 0 .18.07t.07.18v1q0 .11-.07.18t-.18.07H.25q-.11 0-.18-.07T0 13.75v-1q0-.11.07-.18t.18-.07h11.5zM1.016 12q.023-.43.125-.836t.235-.742.36-.68.417-.594.504-.543.516-.47.55-.43.52-.37.51-.336q-.337-.22-.51-.337t-.52-.37-.55-.43-.516-.47-.504-.543-.418-.594-.36-.68-.233-.742-.124-.836h9.97q-.024.43-.126.836t-.234.742-.36.68-.417.594-.505.543-.516.47-.552.43-.52.37T7.25 7q.336.218.508.335t.52.37.55.43.517.47.504.543.417.594.36.68.233.742.125.836h-9.97zM11.75 0q.11 0 .18.07t.07.18v1q0 .11-.07.18t-.18.07H.25q-.11 0-.18-.07T0 1.25v-1Q0 .14.07.07T.25 0h11.5z" /></svg>