<svg xmlns="http://www.w3.org/2000/svg" viewBox="0 0 7 14"><path d="M7.016 3.672v.797q0 .108-.07.18t-.18.07H5.453q-.18 1.124-1.008 1.827t-2.156.86q1.304 1.39 3.585 4.187.11.125.03.266-.06.14-.226.14H4.155q-.125 0-.195-.093Q1.57 9.04.07 7.447 0 7.376 0 7.273v-.992q0-.102.074-.176t.176-.074h.875q1.03 0 1.66-.336t.8-.977H.25q-.11 0-.18-.07T0 4.47V3.67q0-.11.07-.18t.18-.07h3.227q-.445-.883-2.094-.883H.25q-.102 0-.176-.075T0 2.29V1.25q0-.11.07-.18T.25 1h6.5q.11 0 .18.07t.07.18v.797q0 .11-.07.18t-.18.07H4.93q.367.477.5 1.125h1.336q.11 0 .18.07t.07.18z" /></svg>