<svg xmlns="http://www.w3.org/2000/svg" viewBox="0 0 16 14"><path d="M11.43 6.5q0 .273-.195.473t-.477.2H5.274q-.28 0-.477-.2T4.602 6.5t.195-.473.477-.2h5.484q.28 0 .477.2t.195.473zm1.672 0q0-.672-.18-1.328H5.25q-.28 0-.477-.195t-.195-.47q0-.28.195-.476t.477-.193h7.094q-.688-1.117-1.836-1.773t-2.5-.656q-1.383 0-2.56.684T3.59 3.947 2.906 6.5q0 .673.18 1.33h7.672q.28 0 .477.194t.195.47q0 .28-.195.476t-.477.195H3.664q.688 1.117 1.84 1.773t2.504.656q1.03 0 1.977-.402t1.625-1.086 1.086-1.625.406-1.98zM16 4.508q0 .273-.195.47t-.477.194h-1.023q.133.664.133 1.328 0 1.305-.512 2.496t-1.37 2.055-2.052 1.377-2.496.512q-1.922 0-3.504-1.04T2.15 9.165H.67q-.28 0-.477-.195T0 8.494q0-.273.195-.47t.477-.194h1.03Q1.57 7.163 1.57 6.5q0-1.304.512-2.495t1.37-2.055T5.505.575 8.008.063q1.914 0 3.496 1.04t2.355 2.733h1.467q.28 0 .477.195t.196.48z" /></svg>