<svg xmlns="http://www.w3.org/2000/svg" viewBox="0 0 8 14"><path d="M0 12.984l.133-.664q.047-.016.637-.168t.87-.293q.22-.28.32-.79.01-.06.485-2.26t.89-4.25.407-2.318V2.05q-.187-.1-.426-.144t-.543-.063T2.32 1.8l.148-.8q.258.016.937.05t1.168.056.94.02q.376 0 .77-.02t.946-.055T8 1q-.04.305-.15.695-.233.078-.792.223t-.848.262q-.062.148-.11.332t-.07.312-.058.355-.05.32q-.212 1.16-.685 3.28t-.605 2.78q-.016.07-.102.453t-.156.703-.125.652-.05.44l.01.14q.13.033 1.44.244-.026.344-.128.773-.087 0-.255.012t-.254.01q-.227 0-.68-.077t-.67-.08q-1.08-.015-1.61-.015-.4 0-1.118.07t-.94.09z" /></svg>