<svg xmlns="http://www.w3.org/2000/svg" viewBox="0 0 12 14"><path d="M8.36 8.383l-1.25 1.25-1.18 1.187-.235.234q-.508.5-1.184.68t-1.34.016q-.12.547-.56.898T1.6 13q-.664 0-1.133-.473t-.47-1.137q0-.563.35-1t.886-.563q-.172-.672.008-1.352t.69-1.187l.1-.094L3.21 8.38l-.087.09q-.29.29-.29.698t.29.703q.29.29.695.29t.695-.29l.232-.23 1.18-1.186 1.26-1.25zM5.694 3.055l.094.094L4.6 4.33l-.094-.094q-.29-.29-.695-.29t-.69.29-.29.7.29.7L5.78 8.3 4.6 9.49 3.342 8.24l-1.18-1.186-.234-.234q-.53-.523-.703-1.246t.04-1.402q-.548-.117-.9-.555T.018 2.61q0-.665.468-1.138T1.618 1q.594 0 1.043.382t.55.96q.66-.155 1.328.028t1.168.684zM12 11.39q0 .665-.47 1.138T10.4 13q-.578 0-1.023-.366t-.555-.922q-.672.22-1.402.047t-1.262-.71l-.086-.098 1.18-1.187.094.094q.29.29.695.29t.7-.29.29-.696-.29-.696L6.07 5.8l1.18-1.18 2.437 2.438.227.234q.5.5.684 1.176t.02 1.34q.594.086.988.535t.395 1.05zm-.016-8.78q0 .6-.398 1.054t-.992.54q.203.663.023 1.378T9.914 6.82l-.094.094-1.18-1.187.094-.094q.29-.29.29-.695t-.29-.695-.695-.29-.7.29L4.67 6.915 3.484 5.728l1.258-1.25L5.93 3.29l.227-.233q.523-.523 1.242-.7t1.39.028q.08-.586.53-.984t1.06-.39q.66 0 1.13.476t.47 1.137z" /></svg>