<svg xmlns="http://www.w3.org/2000/svg" viewBox="0 0 16 14"><path d="M14.062 6.03q.867.36 1.402 1.138T16 8.898q0 1.28-.923 2.19T12.85 12q-.03 0-.09-.003t-.082-.004H3.17q-1.328-.077-2.25-.98t-.922-2.19q0-.86.43-1.586T1.576 6.09q-.094-.306-.094-.64 0-.9.64-1.533T3.68 3.28q.742 0 1.344.454.586-1.203 1.738-1.937t2.55-.734q1.298 0 2.392.63t1.73 1.706.637 2.35q0 .045-.002.14t-.004.14zM3.656 8.11q0 .952.656 1.507t1.625.555q1.07 0 1.875-.773-.125-.16-.37-.445t-.34-.395q-.524.51-1.126.51-.43 0-.73-.26t-.3-.686q0-.414.3-.68t.715-.266q.348 0 .66.162t.57.43.51.586.54.64.6.586.76.43.95.164q.945 0 1.598-.56T12.8 8.13q0-.945-.657-1.5t-1.616-.555q-1.117 0-1.883.758.11.125.23.266t.27.31.228.266q.517-.5 1.11-.5.406 0 .72.258t.31.656q0 .446-.29.716t-.732.27q-.336 0-.645-.165t-.563-.43-.512-.584-.543-.642-.605-.586-.754-.43-.926-.164q-.953 0-1.617.55t-.664 1.48z" /></svg>