<svg xmlns="http://www.w3.org/2000/svg" viewBox="0 0 14 14"><path d="M6.5 4q0-.625-.438-1.062T5 2.5t-1.062.438T3.5 4q0 .328.148.648Q3.328 4.5 3 4.5q-.625 0-1.062.438T1.5 6t.438 1.062T3 7.5t1.062-.438T4.5 6q0-.328-.148-.648.32.148.648.148.625 0 1.062-.438T6.5 4zm6.648 5.5q0 .133-.383.516t-.516.383q-.07 0-.226-.128t-.285-.258-.3-.312-.19-.203l-.75.75 1.717 1.72q.22.22.22.53 0 .33-.306.633t-.632.305q-.314 0-.533-.22l-5.24-5.242Q4.35 9 2.873 9 1.6 9 .8 8.2T0 6.126q0-1.25.74-2.445t1.94-1.934 2.445-.742q1.273 0 2.074.8T8 3.878Q8 5.355 6.976 6.73l2.77 2.77.75-.75q-.022-.023-.202-.19t-.312-.302-.258-.285T9.6 7.75q0-.133.383-.516t.516-.383q.1 0 .18.08.044.048.356.35t.64.62.677.67.57.61.223.32z" /></svg>