<svg xmlns="http://www.w3.org/2000/svg" viewBox="0 0 12 14"><path d="M5.11 8.422q-.01.023-.1-.004t-.245-.09l-.156-.07q-.35-.156-.68-.383-.06-.04-.32-.246t-.3-.23q-.52.8-1.05 1.41-.64.74-.82.86-.03.01-.15.03t-.15 0q.04-.03.64-.72.16-.19.67-.9t.61-.93q.13-.23.39-.77t.28-.604q-.06-.008-.858.26-.064.014-.217.06t-.27.07-.13.04q-.017.016-.017.08t-.008.076q-.04.08-.243.12-.18.053-.364 0-.144-.03-.22-.166-.03-.045-.04-.18.046-.014.19-.04t.23-.044q.453-.13.82-.25.78-.277.797-.277.077-.02.335-.15t.34-.17q.07-.02.167-.06t.117-.048.046 0q.02.094-.006.26 0 .014-.1.21T4.11 6t-.13.26q-.195.39-.6 1.022l.5.22q.092.046.58.25t.527.218q.03.01.083.2t.034.24zM3.507 4.625q.023.117-.03.22-.095.18-.392.296-.234.1-.47.1-.202-.02-.382-.2-.11-.11-.14-.32l.007-.03q.024.03.153.04t.207 0 .453-.12q.28-.09.43-.11.133 0 .164.14zM8.96 5.633l.493 1.773-1.086-.328zm-8.655 6.25l5.422-1.812V2.01L.305 3.83v8.054zM10 9.406l.797.242-1.414-5.133-.78-.242-1.69 4.188.798.25.36-.86 1.65.51zM6.07 1.89l4.477 1.44V.36zM8.5 12.228l1.234.102-.422 1.25L9 13.062q-1.016.648-2.156.844-.453.094-.71.094h-.657q-.617 0-1.56-.304t-1.433-.664q-.062-.055-.062-.125 0-.062.04-.105t.1-.043q.032 0 .142.05t.238.13.16.08q.57.29 1.246.48t1.23.19q.742 0 1.305-.11t1.227-.4q.117-.058.238-.12t.266-.15.223-.13zm3.5-8.43v8.43l-6.047-1.922q-.11.047-2.93.996t-2.875.95q-.102 0-.14-.102 0-.008-.01-.023V3.703q.024-.07.032-.078.04-.047.156-.086.828-.28 1.164-.4v-3l4.36 1.55q.015 0 1.253-.43t2.47-.85 1.26-.41q.156 0 .156.16v3.27z" /></svg>