<svg xmlns="http://www.w3.org/2000/svg" viewBox="0 0 14 14"><path d="M10.094 5.5q0 .047.078.32.078.227.195.387t.32.266.344.156.43.128Q14 7.468 14 9.352q0 1.14-.824 1.895T11.188 12q-.46 0-.87-.144T9.6 11.5 9 10.92t-.492-.685-.418-.81-.34-.804-.31-.83-.276-.743q-.25-.633-.48-1.043T6.11 5.25t-.813-.5-1.11-.156q-.75 0-1.43.434T1.68 6.158 1.282 7.6q0 1.25.832 2.184t2.06.934q1.382 0 2.015-.742.437-.492.647-.906l.656 1.187q-.117.265-.344.546l.007.008Q6.134 12 4.127 12q-1.15 0-2.106-.616T.534 9.764t-.53-2.146q0-.82.34-1.61t.905-1.378 1.344-.95 1.598-.358q.68 0 1.242.148t.965.39.742.626.565.773.457.913.395.973.39 1.02.43.992q.75 1.563 1.82 1.563.634 0 1.083-.378t.45-1.004q0-.328-.15-.563t-.394-.36-.566-.245-.66-.21-.684-.267-.633-.406-.508-.64-.305-.958q-.023-.126-.023-.26 0-.858.684-1.5t1.552-.608q.61.023.94.113t.708.418h-.008q.094.086.18.19t.203.282.148.215l-1.008.773q-.203-.383-.422-.547v-.008q-.18-.164-.758-.164-.383 0-.656.258t-.274.648z" /></svg>