<svg xmlns="http://www.w3.org/2000/svg" viewBox="0 0 12 14"><path d="M11.188 8.22q0-1.353-1.828-1.868-.273-.078-.414-.13T8.65 6.03t-.228-.363q0-.016-.016-.066t-.023-.092-.008-.06q0-.28.19-.464T9.04 4.8q.42 0 .553.116h-.008q.156.117.305.398l.728-.555q-.305-.425-.383-.5-.258-.23-.527-.308t-.668-.078q-.625 0-1.11.45T7.447 5.4q0 .054.016.18.125.75.504 1.093t1.16.57q.227.063.383.122t.352.168.3.27.106.363v.04q.008.452-.316.726t-.785.272q-.758 0-1.305-1.125-.18-.37-.402-.95t-.375-.98-.422-.865-.578-.746-.81-.474-1.147-.19q-.79 0-1.5.437T1.503 5.47t-.39 1.5v.007q.03.844.394 1.555T2.55 9.684t1.53.44q1.454 0 2.18-.858.157-.21.243-.398l-.47-.852q-.327.625-.772.906t-1.14.28q-.895 0-1.49-.68T2.035 6.93q0-.82.64-1.478t1.454-.656q.875 0 1.328.418t.813 1.348q.06.164.196.535t.223.598.246.582.3.578.356.488.435.418.516.26.626.107q.835 0 1.43-.543t.593-1.362zM12 3.25v7.5q0 .93-.66 1.59T9.75 13h-7.5q-.93 0-1.59-.66T0 10.75v-7.5q0-.93.66-1.59T2.25 1h7.5q.93 0 1.59.66T12 3.25z" /></svg>