<svg xmlns="http://www.w3.org/2000/svg" viewBox="0 0 16 14"><path d="M14.79 3.063L16 13q-1.023 0-2.008-.445-1.563-.71-3.07-.71Q9.156 11.844 8 13q-1.156-1.156-2.922-1.156-1.508 0-3.07.71-1 .446-1.97.446H0l1.21-9.937q1.75-.992 3.767-.992 1.82 0 3.023.83 1.203-.83 3.023-.83 2.016 0 3.766.993zm-3.868 7.71q1.008 0 1.812.223t2.03.73l-.968-7.977q-1.336-.61-2.875-.61-1.75 0-2.92 1.102Q6.826 3.14 5.076 3.14q-1.54 0-2.875.61l-.97 7.976q.82-.336 1.294-.508t1.16-.31 1.39-.136q1.58 0 2.923.844 1.343-.844 2.92-.844zm.312-.265l-.43-7.086Q9.156 3.452 8 4.632q-1.188-1.21-2.923-1.21-1.375 0-2.625.516l-.89 7.352q.968-.398 1.784-.594t1.73-.195q1.633 0 2.922.798 1.344-.836 2.922-.797z" /></svg>