<svg xmlns="http://www.w3.org/2000/svg" viewBox="0 0 12 14"><path d="M10.992 6.453q0-.344-.055-.887t-.14-.754q-.095-.234-.134-.344t-.07-.285-.03-.38q0-.18.038-.534t.04-.53q0-.29-.074-.43-.03-.01-.102-.01-.147 0-.452.035t-.46.034q-.47 0-1.375-.187T6.805 2q-.336 0-.738.09t-.664.184-.7.266q-1.07.422-1.577.805-.75.57-1.246 1.48T1.19 6.67 1 8.61q0 .312.098.937t.098.945q0 .18-.086.52t-.086.512.094.285.266.11q.187 0 .566-.088t.574-.086q.445 0 1.324.12t1.324.12q1.414 0 2.22-.28 1.007-.352 1.84-1.19t1.296-1.92.465-2.147zm1-.016q0 1.29-.547 2.56t-1.53 2.25-2.196 1.41Q6.75 13 5.17 13q-.445 0-1.328-.113t-1.32-.113q-.187 0-.566.113T1.384 13q-.57 0-.965-.434t-.4-1.004q0-.187.085-.53t.085-.524q0-.312-.097-.94T0 8.618q0-.868.14-1.7T.567 5.28t.785-1.515 1.172-1.22q.61-.46 1.812-.936Q5.852 1 6.806 1q.468 0 1.37.188t1.355.187q.15 0 .45-.04t.453-.038q.633 0 .92.395t.29 1.05q0 .18-.04.532t-.037.53q0 .08.008.146t.024.133.03.105.052.125.05.133q.125.312.195.926t.07 1.066z" /></svg>