<svg xmlns="http://www.w3.org/2000/svg" viewBox="0 0 14 14"><path d="M7 0q1.422 0 2.72.555t2.233 1.492 1.492 2.234T14 7t-.555 2.72-1.492 2.233-2.234 1.492T7 14t-2.72-.555-2.233-1.492T.555 9.72 0 7t.555-2.72 1.492-2.233T4.28.555 7 0zm0 1q-1.484 0-2.82.703L5.696 3.22Q6.336 3 7 3t1.306.22l1.516-1.517Q8.486 1 7.002 1zM1.703 9.82L3.22 8.304Q3 7.664 3 7t.22-1.306L1.702 4.178Q1 5.514 1 6.998t.703 2.82zM7 13q1.484 0 2.82-.703L8.304 10.78Q7.664 11 7 11t-1.306-.22l-1.516 1.517Q5.514 13 6.998 13zm0-3q1.242 0 2.12-.88T10 7t-.88-2.12T7 4t-2.12.88T4 7t.88 2.12T7 10zm3.78-1.695l1.517 1.516Q13 8.486 13 7t-.703-2.82L10.78 5.698q.22.64.22 1.305t-.22 1.305z" /></svg>