<svg xmlns="http://www.w3.org/2000/svg" viewBox="0 0 8 14"><path d="M5.75 4.5q0 .102-.074.176T5.5 4.75t-.176-.074T5.25 4.5q0-.36-.422-.555T4 3.75q-.102 0-.176-.074T3.75 3.5t.074-.176T4 3.25q.39 0 .777.125t.68.422.293.703zM7 4.5q0-.563-.27-1.047t-.703-.793-.96-.484T4 2t-1.066.176-.96.484-.704.793T1 4.5q0 .79.53 1.406.08.086.24.258t.237.258q1 1.195 1.102 2.328h1.78q.1-1.133 1.1-2.328.08-.086.24-.258t.236-.258q.53-.617.53-1.406zm1 0q0 1.21-.805 2.094-.352.383-.582.68t-.465.746-.266.84q.367.22.367.64 0 .29-.198.5.195.212.195.5 0 .407-.353.634.102.18.102.367 0 .36-.247.558t-.606.195q-.156.345-.47.548T4 13t-.68-.202-.468-.547q-.36 0-.605-.192T2 11.5q0-.186.1-.366-.35-.227-.35-.633 0-.286.194-.5-.195-.21-.195-.5 0-.42.364-.64-.03-.39-.266-.84t-.466-.744-.582-.68Q-.002 5.71-.002 4.5q0-.773.348-1.44t.914-1.11 1.28-.695T4 1t1.457.255 1.28.695.915 1.11T8 4.5z" /></svg>