<svg xmlns="http://www.w3.org/2000/svg" viewBox="0 0 12 14"><path d="M5.18 3.21q-.086.01-.12.083t-.067.074q-.04.008-.04-.04 0-.093.15-.116h.077zm.68.11q-.032.008-.09-.05t-.138-.036q.187-.086.25.016.023.047-.023.07zM3.116 6.656q-.03-.008-.047.023t-.035.097-.043.105-.078.102q-.055.078-.008.094.03.008.098-.055t.098-.14q.008-.024.016-.056t.016-.047.012-.035.004-.03V6.69l-.008-.02-.023-.015zm6.68 2.805q0-.14-.43-.327.03-.117.06-.215t.038-.203.023-.168.004-.176-.008-.15-.027-.173-.03-.16-.04-.195-.043-.207q-.078-.375-.367-.805t-.563-.586q.187.156.445.648.68 1.266.42 2.172-.085.312-.39.328-.242.03-.3-.145t-.063-.652-.09-.836q-.07-.306-.152-.54t-.152-.355-.12-.19-.103-.118-.06-.055q-.108-.484-.24-.805t-.23-.438-.185-.26-.117-.31q-.03-.165.047-.42t.035-.386-.348-.195q-.117-.024-.348-.142t-.277-.125q-.062-.008-.086-.203t.063-.398.28-.21q.29-.024.4.233t.03.453q-.086.148-.016.207t.234.004q.103-.032.103-.282v-.29q-.04-.233-.105-.39t-.164-.238-.184-.117-.21-.06q-.837.063-.696 1.048 0 .118-.008.118-.07-.07-.23-.082t-.258.004-.12-.04q.007-.444-.126-.702t-.352-.266q-.21-.008-.324.215t-.13.465q-.007.117.028.29t.102.292.12.105q.08-.024.126-.11.03-.07-.055-.062-.055 0-.12-.113t-.075-.262q-.008-.172.07-.29t.266-.108q.133 0 .21.164t.075.304-.012.172q-.17.117-.24.227-.063.094-.216.184t-.16.098q-.102.11-.12.21t.058.142q.11.062.195.152t.125.147.145.102.277.05q.367.016.797-.117.017-.008.18-.055t.27-.082.23-.102.165-.137q.07-.11.156-.062.04.023.052.066t-.023.095-.13.074q-.156.046-.44.167t-.356.152q-.344.147-.547.18-.195.038-.617-.017-.078-.016-.07.016t.133.147q.195.18.523.172.133-.01.28-.056t.282-.11.262-.136.234-.133.19-.094.138-.02.066.087q0 .016-.008.035t-.03.04-.048.034-.066.04-.07.034-.078.04-.074.034q-.22.11-.527.344t-.52.336-.383.008q-.164-.086-.492-.57-.172-.242-.195-.172-.008.023-.008.078 0 .195-.118.44t-.23.435-.164.453.09.492q-.18.047-.488.703t-.37 1.103q-.017.14-.013.54t-.043.46q-.062.187-.227.023-.25-.242-.28-.734-.017-.22.03-.438.03-.148-.008-.14l-.032.038q-.28.508.078 1.297.04.093.195.218t.188.156q.156.18.813.707t.728.6q.125.116.137.296t-.11.336-.354.18q.063.117.228.348t.22.422.054.55q.36-.186.055-.718-.03-.062-.082-.125t-.074-.095-.015-.047q.023-.04.102-.074t.156.02q.36.406 1.297.28 1.04-.116 1.383-.68.18-.296.266-.233.093.048.077.407-.008.195-.18.72-.07.18-.047.292t.187.12q.023-.148.113-.602t.105-.703q.016-.164-.05-.574t-.06-.757.18-.55q.117-.142.398-.142.008-.288.27-.413t.566-.082.468.176zM4.89 3q.024-.133-.02-.234t-.09-.117q-.07-.017-.07.054.017.04.04.047.078 0 .055.118-.023.156.062.156.023 0 .023-.023zm3.274 1.54q-.016-.063-.05-.09t-.103-.04-.112-.043q-.04-.023-.074-.062t-.055-.062-.044-.05-.03-.032-.032.013q-.11.125.055.34t.304.246q.07.007.113-.063t.027-.156zm-1.39-1.665q0-.086-.04-.152t-.086-.098-.07-.023q-.11.008-.055.055l.03.016q.11.03.142.242 0 .023.062-.016zm.42-1.82q0-.016-.02-.04t-.07-.054-.073-.046Q6.915.797 6.845.797q-.07.008-.09.06t-.008.1-.004.1q-.008.03-.047.08t-.047.07.023.067q.032.023.063 0t.086-.07.116-.07q.008-.008.07-.008t.117-.016.07-.055zM11.61 11.53q.155.095.24.192t.095.187-.02.175-.12.172-.185.152-.234.144-.246.13-.25.12-.21.102q-.298.148-.67.438t-.59.5q-.132.125-.53.152t-.695-.113q-.14-.07-.23-.184t-.13-.2-.17-.152-.368-.074q-.344-.008-1.016-.008-.147 0-.444.012t-.453.02q-.344.008-.62.117t-.42.234-.34.222-.417.09q-.227-.008-.867-.242t-1.142-.336q-.148-.03-.398-.074t-.39-.07-.31-.074-.262-.113-.133-.152q-.078-.18.055-.52t.14-.425q.01-.125-.03-.312t-.078-.332-.035-.284.082-.21q.108-.095.444-.11t.47-.094q.233-.14.327-.273t.095-.4q.164.57-.25.83-.25.155-.648.116-.266-.023-.336.078-.1.117.04.445.016.046.062.14t.066.14.035.134.008.172q0 .117-.132.383t-.11.374q.024.133.29.203.156.047.66.145t.777.16q.187.047.578.172t.645.18.434.03q.336-.046.504-.218t.18-.375-.06-.456-.147-.406-.157-.285q-.945-1.484-1.32-1.89-.53-.58-.883-.313-.086.07-.117-.117-.023-.125-.016-.297.008-.227.078-.406t.187-.367.172-.328q.062-.164.207-.563t.23-.61.235-.476.305-.422q.86-1.117.97-1.523-.095-.874-.126-2.42-.016-.704.187-1.185T4.93.17q.304-.165.812-.165.414-.008.828.105t.695.324q.445.328.715.95t.23 1.15q-.04.743.234 1.673.266.883 1.04 1.703.43.46.776 1.273t.465 1.492q.062.383.04.66t-.095.434-.156.17q-.078.017-.184.15t-.21.276-.317.262-.477.11q-.14-.01-.246-.04t-.176-.105-.105-.12-.09-.16-.07-.153q-.173-.29-.32-.234t-.22.383.055.757q.156.547.008 1.523-.078.508.14.785t.57.258.665-.277q.46-.383.7-.52t.808-.332q.414-.14.602-.285t.145-.27-.195-.224-.402-.184q-.258-.086-.387-.375t-.118-.566.12-.37q.01.242.063.44t.113.317.16.223.164.148.168.102.13.074z" /></svg>