<svg xmlns="http://www.w3.org/2000/svg" viewBox="0 0 14 14"><path d="M2.977 12.656q0 .625-.426.984T1.493 14q-.828 0-1.344-.517l.445-.688q.383.352.828.352.228 0 .396-.113t.168-.332q0-.5-.82-.438l-.203-.438q.063-.078.255-.34t.332-.422.29-.3v-.01q-.126 0-.38.01t-.38.007v.415H.25V9.998h2.602v.688l-.742.898q.398.094.633.383t.234.688zm.015-4.898V9H.164q-.047-.28-.047-.422 0-.398.184-.727t.442-.53.516-.37.44-.34.185-.353q0-.195-.113-.3t-.31-.106q-.358 0-.632.454l-.664-.46q.187-.4.56-.622T1.546 5q.57 0 .96.323t.392.88q0 .39-.267.714t-.586.504-.59.396-.277.41h.992v-.47h.82zM14 10.25v1.5q0 .102-.074.176T13.75 12h-9.5q-.102 0-.176-.074T4 11.75v-1.5q0-.11.07-.18t.18-.07h9.5q.102 0 .176.074t.074.176zM3 3.227V4H.383v-.773h.836q0-.32.003-.953t.004-.945v-.095H1.21q-.06.133-.39.422l-.555-.594L1.327.07h.828v3.157H3zM14 6.25v1.5q0 .102-.074.176T13.75 8h-9.5q-.102 0-.176-.074T4 7.75v-1.5q0-.11.07-.18T4.25 6h9.5q.102 0 .176.074T14 6.25zm0-4v1.5q0 .102-.074.176T13.75 4h-9.5q-.102 0-.176-.074T4 3.75v-1.5q0-.102.074-.176T4.25 2h9.5q.102 0 .176.074T14 2.25z" /></svg>