<svg xmlns="http://www.w3.org/2000/svg" viewBox="0 0 13 14"><path d="M9.297 4.54l2.29-2.29-.837-.836-2.29 2.29zm3.492-2.29q0 .21-.142.352L2.6 12.65q-.14.14-.35.14t-.353-.14L.35 11.1q-.14-.14-.14-.352t.14-.352L10.397.35q.14-.14.352-.14t.35.14L12.65 1.9q.14.14.14.352zM2.233.766L3 1l-.766.234L2 2l-.234-.766L1 1l.766-.234L2 0zM4.97 2.03l1.53.47-1.53.47L4.5 4.5l-.47-1.53L2.5 2.5l1.53-.47L4.5.5zm7.264 3.736L13 6l-.766.234L12 7l-.234-.766L11 6l.766-.234L12 5zm-5-5L8 1l-.766.234L7 2l-.234-.766L6 1l.766-.234L7 0z" /></svg>