<svg xmlns="http://www.w3.org/2000/svg" viewBox="0 0 14 14"><path d="M5 8.453V9q0 .328-.305.46-.102.04-.195.04-.21 0-.352-.148l-4-4Q0 5.204 0 5t.148-.352l4-4q.227-.242.547-.11Q5 .673 5 1v.54L1.898 4.647Q1.75 4.796 1.75 5t.148.352zm9 .297q0 .453-.133 1.043t-.3 1.078-.376.978-.315.707l-.156.312q-.063.133-.22.133-.047 0-.07-.008-.195-.062-.18-.266.336-3.125-.828-4.414-.5-.555-1.332-.863T8 7.04V9q0 .328-.305.46-.102.04-.195.04-.21 0-.352-.148l-4-4Q3 5.204 3 5t.148-.352l4-4q.227-.242.547-.11Q8 .673 8 1v2.047q3.21.22 4.68 1.727Q14 6.126 14 8.75z" /></svg>