<svg xmlns="http://www.w3.org/2000/svg" viewBox="0 0 12 14"><path d="M11.5 1q.203 0 .352.148T12 1.5v3.25q0 .11-.07.18t-.18.07h-.5q-.11 0-.18-.07T11 4.75V2.703L9.336 4.375 10.43 5.47q.07.077.07.18t-.07.17l-.36.36q-.07.07-.17.07t-.18-.07L8.624 5.078l-.61.617Q9 6.915 9 8.5q0 .914-.355 1.746t-.96 1.438-1.44.96T4.5 13t-1.746-.355-1.438-.96-.96-1.44T0 8.5t.355-1.746.96-1.438 1.44-.96T4.5 4q1.586 0 2.805.984l.61-.61L6.57 3.032q-.07-.077-.07-.18t.07-.17l.36-.36q.07-.07.17-.07t.18.07l1.345 1.344L10.29 2H8.25q-.11 0-.18-.07T8 1.75v-.5q0-.11.07-.18T8.25 1h3.25zm-7 11q1.445 0 2.473-1.027T8 8.5 6.973 6.027 4.5 5 2.027 6.027 1 8.5t1.027 2.473T4.5 12z" /></svg>