<svg xmlns="http://www.w3.org/2000/svg" viewBox="0 0 15 14"><path d="M12 3.25q0-.11.07-.18t.18-.07h2.25q.203 0 .352.148T15 3.5v2.25q0 .11-.07.18t-.18.07h-.5q-.11 0-.18-.07T14 5.75V4.703l-1.984 1.992q.594.742.84 1.672t.074 1.93q-.242 1.422-1.297 2.438t-2.484 1.22q-1.642.226-3.005-.626t-1.887-2.345q-.914-.047-1.727-.45T1.145 9.498.257 7.993t-.25-1.797q.07-1.055.61-1.97t1.42-1.495 1.938-.698q.922-.11 1.777.148t1.55.805L9.296 1H8.248q-.11 0-.18-.07t-.07-.18v-.5q0-.108.07-.18t.18-.07h2.25q.203 0 .352.15t.148.35v2.25q0 .11-.07.18t-.18.07h-.5q-.11 0-.18-.07t-.07-.18V1.705L8.014 3.696q.46.578.727 1.32 1.423.07 2.564.97L13.296 4H12.25q-.11 0-.18-.07T12 3.75v-.5zM8 6.5q0-.156-.03-.453-1.267.195-2.118 1.172T5 9.5q0 .156.03.453Q6.298 9.758 7.15 8.78T8 6.5zm-7 0q0 1.313.867 2.297T4.023 9.96Q4 9.735 4 9.5q0-1.64 1.055-2.887t2.64-1.535Q7.283 4.14 6.42 3.57T4.5 3Q3.057 3 2.03 4.027T1 6.5zM8.5 13q1.445 0 2.473-1.027T12 9.5q0-1.313-.867-2.297T8.977 6.04Q9 6.265 9 6.5q0 1.64-1.055 2.887t-2.64 1.535q.413.937 1.276 1.508T8.5 13z" /></svg>