<svg xmlns="http://www.w3.org/2000/svg" viewBox="0 0 15 14"><path d="M14.852 7.148Q15 7.296 15 7.5t-.148.352l-2.297 2.297q-.07.077-.176.077t-.177-.078l-.352-.353q-.077-.07-.077-.176t.078-.175L13.297 8H11v1.75q0 .11-.07.18t-.18.07h-.5q-.11 0-.18-.07T10 9.75V8H8.967q-.187 1.695-1.465 2.848T4.5 12q-1.306 0-2.392-.68T.452 9.476.03 6.984q.117-1.04.688-1.918t1.47-1.422 1.944-.63q1.21-.093 2.28.41t1.75 1.454.806 2.12h1.03V5.25q0-.108.07-.18t.18-.07h.5q.11 0 .18.07t.07.18V7h2.298L11.85 5.555q-.077-.07-.077-.176t.078-.176l.353-.352q.07-.078.176-.078t.175.078zM4.5 11q1.445 0 2.473-1.027T8 7.5 6.973 5.027 4.5 4 2.027 5.027 1 7.5t1.027 2.473T4.5 11z" /></svg>