<svg xmlns="http://www.w3.org/2000/svg" viewBox="0 0 12 14"><path d="M10.242 6.578v.89q0 .188-.105.298t-.293.11H8.266q-.187 0-.297-.11t-.11-.297v-.892q0-.187.11-.297t.296-.108h1.578q.187 0 .293.11t.105.296zM6.414 8.375V6.422q0-.414-.254-.668T5.492 5.5h-1.04q-.53 0-.75.406-.218-.406-.75-.406H1.938q-.414 0-.668.254t-.255.668v1.953q0 .172.164.172h.43q.17 0 .17-.172V6.578q0-.187.106-.297t.3-.108h.735q.188 0 .298.11t.11.296v1.797q0 .172.163.172h.423q.172 0 .172-.172V6.578q0-.187.11-.297t.296-.108h.76q.186 0 .292.11t.105.296v1.797q0 .172.172.172h.43q.163 0 .163-.172zm4.602-.75V6.422q0-.414-.258-.668t-.672-.254H8.024q-.414 0-.672.254t-.258.668v3.203q0 .164.172.164h.43q.164 0 .164-.165V8.22q.242.327.734.327h1.492q.414 0 .672-.254t.258-.668zM12 2.812v8.375q0 .75-.53 1.28T10.187 13H1.813q-.75 0-1.28-.532T0 11.188V2.81q0-.75.532-1.28T1.812 1h8.376q.75 0 1.28.53T12 2.813z" /></svg>