<svg xmlns="http://www.w3.org/2000/svg" viewBox="0 0 12 14"><path d="M9 8.5q0 .203-.148.352T8.5 9h-5q-.203 0-.352-.148T3 8.5t.148-.352T3.5 8h5q.203 0 .352.148T9 8.5zM5 5q0 .414-.293.707T4 6t-.707-.293T3 5t.293-.707T4 4t.707.293T5 5zm4 0q0 .414-.293.707T8 6t-.707-.293T7 5t.293-.707T8 4t.707.293T9 5zm2 2q0-1.016-.398-1.94T9.536 3.464 7.942 2.4 6.002 2t-1.942.4-1.594 1.065T1.4 5.06 1.002 7 1.4 8.94t1.066 1.595T4.06 11.6 6 12t1.942-.4 1.594-1.065 1.066-1.594T11 7zm1 0q0 1.633-.805 3.012T9.01 12.196 6 13t-3.013-.804-2.184-2.184T-.002 7t.805-3.012 2.184-2.184T6 1t3.01.804 2.185 2.184T12 7z" /></svg>