<svg xmlns="http://www.w3.org/2000/svg" viewBox="0 0 9 14"><path d="M6.484 2.47q1.133.562 1.824 1.644t.69 2.387Q9 8.23 7.85 9.506t-2.85 1.465V12h.75q.11 0 .18.07t.07.18v.5q0 .11-.07.18t-.18.07H5v.75q0 .11-.07.18t-.18.07h-.5q-.108 0-.18-.07T4 13.75V13h-.75q-.108 0-.18-.07T3 12.75v-.5q0-.108.07-.18t.18-.07H4v-1.03q-1.694-.187-2.847-1.465T0 6.5q0-1.304.69-2.386T2.514 2.47Q1.224 1.72.734.335.685.21.76.106T.967 0h.54q.163 0 .226.157.344.828 1.094 1.336T4.5 2t1.67-.507T7.266.157Q7.327 0 7.555 0h.476q.134 0 .208.106t.027.23Q7.773 1.72 6.485 2.47zM4.5 10q1.445 0 2.473-1.027T8 6.5 6.973 4.027 4.5 3 2.027 4.027 1 6.5t1.027 2.473T4.5 10z" /></svg>