<svg xmlns="http://www.w3.org/2000/svg" viewBox="0 0 11 14"><path d="M2.117 7.383l-.79.79Q1 7.366 1 6.5v-1q0-.203.148-.352T1.5 5t.352.148T2 5.5v1q0 .414.117.883zM10.82 2.68L8 5.5v1q0 1.03-.734 1.766T5.5 9q-.43 0-.852-.148l-.75.75Q4.656 10 5.5 10q1.445 0 2.473-1.027T9 6.5v-1q0-.203.148-.352T9.5 5t.352.148T10 5.5v1q0 1.727-1.152 3.004T6 10.97V12h2q.203 0 .352.148t.148.352-.148.352T8 13H3q-.203 0-.352-.148T2.5 12.5t.148-.352T3 12h2v-1.03q-.977-.103-1.836-.634L1.18 12.32q-.078.078-.18.078t-.18-.078l-.64-.64Q.1 11.6.1 11.5t.08-.18l9.64-9.642Q9.898 1.6 10 1.6t.18.078l.64.64q.08.08.08.18t-.08.18zM7.852 1.648L3 6.5v-4q0-1.03.734-1.766T5.5 0q.797 0 1.44.46t.91 1.188z" /></svg>