<svg xmlns="http://www.w3.org/2000/svg" viewBox="0 0 10 14"><path d="M5 7.086q-1.47 0-2.508-1.04t-1.04-2.5q0-1.468 1.04-2.507T5 0t2.508 1.04 1.04 2.507q0 1.46-1.04 2.5T5 7.087zm0-5.29q-.72 0-1.23.513t-.512 1.237q0 .72.512 1.23T5 5.29t1.23-.513.512-1.23q0-.727-.512-1.238T5 1.796zm4.086 5.72q.102.21.117.387t-.035.316-.207.3-.33.29-.48.323q-.9.57-2.462.734l.57.563 2.086 2.086q.234.242.234.578t-.234.57l-.094.102Q8.008 14 7.672 14t-.578-.234q-.523-.53-2.086-2.094l-2.086 2.094Q2.68 14 2.344 14t-.57-.234l-.094-.102q-.242-.234-.242-.57t.242-.578l2.648-2.648q-1.586-.164-2.477-.734-.304-.195-.48-.324t-.33-.29-.208-.3-.035-.316.117-.387q.078-.156.22-.273t.327-.172.44.016.507.273q.04.032.117.087t.336.19.54.24.718.186T5 8.15q.712 0 1.36-.2t.937-.395l.297-.195q.258-.203.508-.273t.438-.016.328.173.22.273z" /></svg>