<svg xmlns="http://www.w3.org/2000/svg" viewBox="0 0 12 14"><path d="M7.242 4.53q0 .517-.363.88T6 5.773t-.88-.363-.362-.88.363-.878T6 3.29t.88.362.362.88zm1.672 2.837q-.078-.156-.22-.25t-.37-.074-.473.215q-.077.062-.226.156t-.633.25T6 7.82t-.97-.14-.672-.282l-.21-.14q-.243-.196-.474-.216t-.37.074-.22.25q-.172.352-.016.582t.68.574q.648.414 1.766.523l-.398.406q-1.11 1.11-1.492 1.485-.172.172-.172.41t.172.41l.07.07q.172.172.41.172t.41-.172l1.492-1.492q.89.898 1.492 1.492.172.172.41.172t.41-.172l.07-.07q.172-.172.172-.41t-.172-.41L6.896 9.45l-.406-.405q1.102-.11 1.758-.523.523-.344.68-.574t-.016-.582zM8.53 4.53q0-1.046-.74-1.788T6 2t-1.79.742-.74 1.79.74 1.788T6 7.062t1.79-.742.74-1.79zM12 3.25v7.5q0 .93-.66 1.59T9.75 13h-7.5q-.93 0-1.59-.66T0 10.75v-7.5q0-.93.66-1.59T2.25 1h7.5q.93 0 1.59.66T12 3.25z" /></svg>