<svg xmlns="http://www.w3.org/2000/svg" viewBox="0 0 18 14"><path d="M11.906 12.195q0 .53-.375.906t-.905.376-.91-.375-.38-.905.38-.91.91-.38.906.38.376.91zm-5.85 0q0 .53-.38.906t-.91.376-.906-.375-.375-.905.375-.91.906-.38.91.38.38.91zM0 .523q.445.47.863.816t.945.64 1.062.492 1.297.355 1.563.246 1.953.145 2.375.074 2.91.02q1.086 0 1.91.04t1.414.128.97.215.554.31.187.4-.152.5-.44.6-.7.71-.905.816-1.086.93q-1.446 1.228-2.235 1.93.227-.397.598-.85t.734-.825.738-.77.648-.715.422-.63.102-.546-.355-.434-.91-.32-1.594-.184-2.375-.04Q9.18 4.594 8.04 4.53t-2-.18-1.598-.32-1.246-.402-.957-.488-.716-.52-.53-.56-.396-.542-.312-.53T0 .52z" /></svg>