<svg xmlns="http://www.w3.org/2000/svg" viewBox="0 0 18 14"><path d="M3.734 13.086q-.062.125-.21.27t-.29.2q-.195.07-.402-.028t-.223-.246q-.01-.172.31-.43t.532-.297q.18-.03.266.168t.016.363zm10.477 0q.056.125.204.27t.297.2q.196.07.403-.028t.215-.246q.016-.172-.31-.43t-.534-.297q-.172-.03-.258.168t-.016.363zm.376-.852q.102.21.44.465t.606.323q.352.102.64-.035t.29-.395q0-.36-.527-.785t-.902-.465q-.312-.04-.496.293t-.05.598zm-11.242 0q-.102.21-.438.465t-.602.323q-.352.102-.64-.035t-.29-.395q0-.36.527-.785t.903-.465q.312-.04.492.293t.047.598zm5.703-8.78h.008q-.32 0-.594.116.212.062.345.238t.133.387q0 .273-.21.47t-.51.194q-.405 0-.624-.337-.04.18-.04.328 0 .58.44.99t1.054.41q.625 0 1.062-.41t.438-.99-.438-.987-1.062-.41zm2.375-1.704Q10.65.898 9.7.723t-1.92.348q.212-.468.646-.753t.922-.31.95.134.776.583.348 1.027zm5.86 9.68q.06.086-.087.328.055.18.055.312.008.438-.348.88t-.855.714-.922.29q-.375.015-.72-.17t-.515-.51q-5.367.194-9.836 0-.18.32-.52.507t-.723.173q-.67-.023-1.4-.63T.685 12.07q.016-.172.055-.312-.147-.242-.085-.328.047-.078.242-.008.11-.172.32-.398-.055-.227.016-.297.086-.078.305.03.227-.155.46-.265 0-.227.103-.29.18-.093.4.126.272-.04.476.016.14.03.297.148v-.57q-.086 0-.14-.016-.415-.078-.76-.348t-.43-.684q-.07-.297 0-.633.118-.483.728-.74.017-.134.15-.278t.28-.184.258.06.148.237h.102q.36.04.47.18.022.023.038.055.078-.008.238-.027t.238-.027q-.117-.086-.234-.133-.18-.312-.71-.336 0-.047.007-.078-.484-.017-.926-.146t-.66-.37q-.25-.282-.333-.72t-.02-.875q.125-.985.703-1.4.18-.124.406-.034t.25.316q0 .008.012.11t.02.163.023.156.044.15.066.077q.21.11.594.094.375-.358.766-.577-.312-.03-1.266.11l.367-.36q.478-.453 1.274-.867 1.133-.57 2.203-.672-.156-.062-.32-.12t-.367-.11-.332-.082-.37-.086-.337-.078q4.65-.984 7.063 1.086.766.656 1.234 1.734.664.078.945-.07h.008q.04-.023.066-.078t.043-.148.022-.152.023-.168l.008-.11q.023-.218.25-.31t.406.038q.57.406.71 1.39.055.446-.027.884t-.332.71q-.218.25-.65.38t-.903.145v.077q-.555.016-.742.336-.11.04-.242.133.086.008.25.027t.234.027q.008-.03.04-.062.124-.14.468-.18h.102q.04-.14.148-.234t.258-.062.28.18.15.28q.616.25.726.743.07.312.007.633-.094.414-.438.688t-.76.344q-.077.016-.132.016 0 .383-.008.57.156-.117.297-.148.203-.055.477-.016.22-.22.398-.125.11.07.11.29.257.124.46.265.21-.102.297-.03.077.077.015.296.22.234.32.398.18-.062.242.008zm-2.15-7.438q0 .227-.07.422.642.25.876 1.03.03-.288-.074-.77t-.324-.706q-.156-.148-.28-.133t-.126.156zm-.61.78q.274.33.372.85t-.004.972q.523-.102.758-.352.102-.11.14-.22-.022-.5-.24-.894t-.618-.52q-.117.117-.406.164zm-.288.033q-.234 0-.344-.008.328.898.414 1.867.164 0 .336-.023.125-.53.008-1.054t-.414-.78zm-12.218.64q.234-.78.875-1.03-.07-.196-.07-.423 0-.14-.128-.156t-.277.133q-.22.226-.324.706t-.073.77zm.28.797q.228.242.76.352-.103-.453-.005-.973t.372-.847q-.29-.047-.406-.164-.398.124-.613.515t-.246.898q.07.133.14.22zm1.384.422q.11-.97.57-1.836-.148.03-.43.14l-.352.15v-.01q-.36.696-.156 1.532.195.023.367.023zm7.523.305q.062.296.13.847t.09.7q.022.14.073.167t.184-.035q.312-.157.484-.67t.18-.98q-.187-.015-1.14-.03zM9 1.96q-.906 0-1.555.646t-.648 1.55q0 .915.648 1.56T9 6.36t1.555-.644.648-1.56q0-.905-.648-1.55T9 1.96zm1.78 4.993q-.827-.016-1.647 0v-.008q-.008.21.02.672t.105.516q.227.11.73.113t.746-.082q.07-.023.086-.305t-.004-.544-.035-.363zM8.69 8.508q.062-.03.074-.375t-.004-.688-.03-.492v-.008l-1.673.023q-.03.156-.055.484T7 8.1t.11.36q.265.116.788.124t.79-.078zM5.608 7.03q-.124.462.036.927t.605.66q.116.062.186.04t.094-.165q.023-.125.062-.703t.078-.806Q6.13 7 5.608 7.03zm-.99.986q.022.18-.267.28Q5.383 9.4 6.473 10.173t2.387 1.203q1.343-.383 2.425-1.14t2.293-1.954q-.258-.1-.234-.265l.023-.07q-.133-.016-.39-.043t-.376-.035q-.202.703-.64 1.03-.398.298-.64-.007-.04-.047-.07-.11-.056-.1-.134-.483-.016.04-.04.07t-.058.055-.062.043-.074.03l-.078.02-.094.017-.094.012-.105.008-.104.004q-.828.07-1.273-.086-.03.133-.078.207t-.164.117-.18.055-.28.026q-.016 0-.023.004t-.023.004H8.36q-1.397.133-1.585-.312-.016.492-.438.422-.367-.062-.71-.422-.095-.102-.157-.203-.133-.228-.203-.51-.453.048-.68.08.008.015.03.077zm-.657 4.906q.024-.11.024-.234-.133-.555-.398-1.016t-.57-.547q-.32-.094-.793.113t-.816.625-.305.84q.273.414.78.727t.93.328q.4.016.735-.22t.414-.616zm.024-1.336q.18.492.21.93 1.524-.883 3.064-1.36-.766-.405-1.41-.936T4.446 8.93q-.047.032-.227.103 0 .016-.01.04t-.007.03q.242.14.172.29-.094.18-.438.265-.078.102-.227.187h-.008q-.016.648.008 1.172.148.266.273.57zm.54 1.297q4.155.164 8.944 0-1.984-1.148-3.344-1.53-.594.272-1.22.444-.06.023-.124 0-.508-.164-1.008-.383-1.625.47-3.25 1.47h-.008v.007q.008 0 .008-.007zm9.25-.36q.03-.422.218-.937.11-.297.258-.555l-.008.01q.023-.603.023-1.196-.117-.062-.234-.195-.327-.07-.437-.26-.07-.155.172-.296-.016-.03-.016-.07-.126-.03-.22-.094-1.594 1.484-2.992 2.22 1.547.46 3.234 1.374zm3.062.18q.04-.422-.305-.84t-.812-.625-.797-.113q-.296.086-.565.55t-.402 1.013q0 .125.023.234.078.383.414.617t.734.218q.422-.016.93-.328t.78-.727z" /></svg>