<svg xmlns="http://www.w3.org/2000/svg" viewBox="0 0 11 14"><path d="M10.97 10.82q0 .914-.618 1.53t-1.53.618q-1.056 0-1.837-.78L.915 6.123Q.032 5.226.032 4.007q0-1.242.86-2.11t2.1-.866q1.235 0 2.134.884l4.727 4.734q.078.078.078.172 0 .125-.237.363t-.363.238q-.102 0-.18-.077L4.416 2.6Q3.8 2 3.002 2q-.828 0-1.398.585T1.034 4q0 .82.594 1.413l6.063 6.07q.493.492 1.134.492.5 0 .828-.328t.328-.828q0-.642-.492-1.134l-4.54-4.54q-.202-.186-.468-.186-.227 0-.375.148t-.148.375q0 .25.195.46l3.203 3.204q.078.078.078.172 0 .124-.242.366t-.366.242q-.094 0-.172-.078L3.45 6.647q-.493-.477-.493-1.164 0-.64.445-1.086t1.086-.445q.688 0 1.164.492l4.54 4.54q.78.765.78 1.835z" /></svg>