<svg xmlns="http://www.w3.org/2000/svg" viewBox="0 0 12 14"><path d="M11.867 5.047q.14.656-.03 1.594-.68 3.47-4.415 3.47h-.344q-.195 0-.344.13t-.187.33l-.03.15-.43 2.702-.017.117q-.04.202-.19.33t-.35.13H3.57q-.164 0-.258-.117t-.07-.28q.07-.44.207-1.314t.206-1.314.21-1.31.212-1.308q.04-.29.336-.29h1.023q1.04.017 1.844-.163Q8.65 7.6 9.524 6.78q.797-.742 1.21-1.922.188-.547.274-1.04.008-.046.02-.058t.027-.008.047.027q.618.46.767 1.265zm-1.344-2.203q0 .836-.36 1.844-.624 1.82-2.358 2.46-.883.313-1.97.33 0 .007-.702.007l-.703-.008q-.78 0-.922.75-.016.062-.664 4.14-.008.08-.094.08H.445q-.172 0-.285-.13t-.09-.3L1.882.523q.04-.227.215-.375T2.5 0h4.67q.267 0 .763.103t.87.25q.837.32 1.278.96t.442 1.532z" /></svg>