<svg xmlns="http://www.w3.org/2000/svg" viewBox="0 0 12 14"><path d="M10 9.32q0-.086-.016-.125-.023-.062-.3-.23t-.692-.387l-.414-.227q-.04-.022-.148-.1t-.195-.118-.164-.04q-.14 0-.366.255t-.445.512-.345.257q-.055 0-.13-.027t-.12-.05-.133-.075-.11-.066q-.772-.43-1.33-.99T4.1 6.58q-.015-.024-.065-.11t-.074-.133-.05-.12-.028-.13q0-.102.16-.262t.352-.3.352-.31.16-.285q0-.078-.04-.164t-.117-.195-.102-.147q-.022-.047-.116-.223t-.195-.355-.208-.37-.195-.317-.13-.14T3.684 3q-.375 0-.79.173-.358.164-.624.738t-.267 1.02q0 .126.02.267t.04.238.07.258.077.23.098.258.086.235q.47 1.28 1.69 2.504t2.505 1.69q.046.016.233.086t.258.098.23.078.26.07.237.04.266.02q.445 0 1.02-.267t.738-.625q.173-.414.173-.79zm2-6.07v7.5q0 .93-.66 1.59T9.75 13h-7.5q-.93 0-1.59-.66T0 10.75v-7.5q0-.93.66-1.59T2.25 1h7.5q.93 0 1.59.66T12 3.25z" /></svg>