<svg xmlns="http://www.w3.org/2000/svg" viewBox="0 0 12 14"><path d="M8.172 7.97q0 .5-.297.85t-.71.353q-.337 0-.548-.117V6.892q.22-.133.547-.133.414 0 .71.354t.298.855zm-2.68-3.345q0 .5-.297.855t-.71.355q-.337 0-.548-.117V3.554q.22-.133.547-.133.414 0 .71.353t.298.852zm4.39 3.367q0-1.047-.687-1.79t-1.664-.74q-.155 0-.304.022-.18.61-.61 1.062-.68.742-1.647.79v4.968l1.647-.32v-1.61q.398.15.914.15.978 0 1.665-.743t.688-1.788zm-2.68-3.336q0-1.047-.69-1.79t-1.668-.74q-.578 0-1.102.28H2.29V8.97l1.647-.32V7.04q.43.148.906.148.977 0 1.668-.742t.692-1.79zM12 3.25v7.5q0 .93-.66 1.59T9.75 13h-7.5q-.93 0-1.59-.66T0 10.75v-7.5q0-.93.66-1.59T2.25 1h7.5q.93 0 1.59.66T12 3.25z" /></svg>