<svg xmlns="http://www.w3.org/2000/svg" viewBox="0 0 12 14"><path d="M9.75 1q.93 0 1.59.66T12 3.25v7.5q0 .93-.66 1.59T9.75 13H4.086q.664-.953.844-1.64.07-.267.414-1.634.164.305.574.523t.88.218q1.413 0 2.308-1.152T10 6.398q0-.656-.272-1.27t-.754-1.086-1.19-.758T6.243 3q-.813 0-1.52.222T3.53 3.82t-.84.855-.52 1T2 6.71q0 .797.31 1.406t.91.86q.102.038.184 0t.113-.15q.078-.343.117-.476.047-.18-.086-.328-.39-.484-.39-1.172 0-1.172.808-2.004t2.113-.832q1.163 0 1.815.633t.652 1.64q0 1.314-.527 2.235t-1.355.922q-.47 0-.758-.34t-.18-.81q.062-.265.207-.722t.23-.797.086-.582q0-.383-.207-.637t-.59-.254q-.477 0-.81.44t-.33 1.09q0 .564.186.946l-.767 3.234q-.187.78-.055 1.984h-1.43q-.93 0-1.59-.66t-.66-1.59v-7.5q0-.93.66-1.59t1.59-.66h7.5z" /></svg>