<svg xmlns="http://www.w3.org/2000/svg" viewBox="0 0 11 14"><path d="M10.75 1.25q.344.406.094 1.156T10 3.75L8.742 5.008l1.25 5.437q.04.148-.094.258l-1 .75q-.055.047-.148.047-.03 0-.055-.008-.117-.023-.164-.125l-2.18-3.97L4.33 9.422l.414 1.517q.04.133-.062.242l-.75.75q-.07.07-.18.07h-.016q-.117-.017-.187-.103L2.07 9.927.1 8.452q-.085-.054-.1-.18-.01-.1.07-.194l.75-.758q.07-.07.18-.07.046 0 .06.008l1.517.414L4.6 5.647.63 3.467Q.523 3.405.5 3.28q-.016-.125.07-.21l1-1q.11-.103.234-.063L6.997 3.25 8.247 2q.594-.595 1.344-.845t1.157.094z" /></svg>