<svg xmlns="http://www.w3.org/2000/svg" viewBox="0 0 12 14"><path d="M12 7q0 1.22-.477 2.328t-1.28 1.914-1.915 1.28T6 13t-2.328-.477-1.914-1.28-1.28-1.915T0 7q0-1.422.63-2.68T2.4 2.21q.335-.25.745-.194t.652.39q.25.33.19.74t-.386.66q-.765.577-1.183 1.413T2 7q0 .813.315 1.55T3.17 9.83t1.277.855 1.55.316 1.552-.317 1.276-.855.855-1.277T9.998 7q0-.945-.418-1.78T8.394 3.804q-.328-.25-.387-.66t.19-.738q.243-.336.657-.39t.742.194q1.14.853 1.77 2.11t.63 2.68zM7 1v5q0 .406-.297.703T6 7t-.703-.297T5 6V1q0-.406.297-.703T6 0t.703.297T7 1z" /></svg>