<svg xmlns="http://www.w3.org/2000/svg" viewBox="0 0 13 14"><path d="M13 8.578q0 .633-.348 1.055t-.965.422q-.32 0-.605-.137t-.46-.297-.442-.296-.555-.137q-.86 0-.86.97 0 .304.126.897t.118.898v.04q-.172 0-.258.007-.266.022-.762.09t-.902.104-.766.04q-.477 0-.805-.208t-.328-.652q0-.29.137-.555t.297-.442.298-.46.137-.606q0-.617-.422-.965T4.578 8q-.656 0-1.117.354T3 9.35q0 .336.117.648t.262.504.26.414.118.395q0 .353-.36.696-.288.273-.913.273-.742 0-1.914-.188-.07-.016-.214-.03T.14 12.03l-.1-.016q-.01 0-.024-.008-.016 0-.016-.008v-8q.016.008.137.027t.266.04.168.026q1.173.188 1.915.188.625 0 .914-.273.358-.344.358-.695 0-.172-.117-.395T3.38 2.5t-.263-.503T3 1.35q0-.642.46-.997t1.126-.355q.625 0 1.047.348t.422.965q0 .32-.137.606t-.297.46-.296.442-.137.555q0 .445.328.652t.805.207q.5 0 1.406-.117T9 3.982v.016q-.01.016-.028.137t-.04.266-.026.17Q8.72 5.74 8.72 6.482q0 .625.272.914.344.36.695.36.172 0 .395-.118t.414-.263.504-.262.648-.117q.64 0 .996.46T13 8.577z" /></svg>