<svg xmlns="http://www.w3.org/2000/svg" viewBox="0 0 14 14"><path d="M2.11 6.297q-.063-.148-.063-.406 0-.155.086-.382t.187-.352q-.008-.172.06-.414t.175-.336q0-1.086.723-2.254t1.7-1.637Q6.062 0 7.507 0q1.04 0 2.078.43.383.163.703.374t.554.438.43.53.328.58.254.66.2.698.17.766l.01.04q.43.647.43 1.17 0 .11-.07.313t-.07.296q0 .008.01.027t.028.04.016.026q.602.89.94 1.675t.34 1.63q0 .335-.15.78t-.435.445q-.07 0-.152-.06t-.148-.136-.148-.203-.125-.206-.105-.203-.07-.136q-.008-.008-.023-.008l-.04.03q-.46 1.204-1.03 1.743.156.155.48.3t.54.324.276.508q-.016.03-.03.125t-.056.14q-.5.76-2.36.76-.413 0-.862-.07t-.766-.157-.816-.234q-.117-.04-.18-.055-.11-.03-.36-.034t-.31-.012q-.32.352-.997.508t-1.316.156q-.273 0-.54-.012t-.726-.07-.788-.16-.582-.312-.254-.5q0-.312.078-.465t.32-.38q.086-.016.316-.102t.387-.094q.03 0 .11-.016.015-.016.015-.03l-.016-.024q-.375-.086-.844-.824t-.57-1.223l-.04-.023q-.03 0-.093.156-.142.32-.427.582t-.605.293H.41q-.03 0-.047-.035t-.04-.043q-.18-.422-.18-.78 0-2.15 1.97-3.642z" /></svg>