<svg xmlns="http://www.w3.org/2000/svg" viewBox="0 0 8 14"><path d="M5.5 9.812v1.875q0 .125-.094.22t-.22.093H3.313q-.125 0-.22-.094T3 11.686V9.813q0-.125.093-.22t.22-.093h1.874q.125 0 .22.093t.093.22zm2.47-4.687q0 .422-.122.79t-.273.597-.43.465-.45.34-.476.277q-.32.18-.536.508t-.215.523q0 .133-.095.254t-.22.12H3.282q-.116 0-.198-.145T3 8.562V8.21q0-.648.508-1.223t1.117-.848q.46-.212.656-.44t.196-.593q0-.328-.363-.578t-.84-.25q-.508 0-.844.226-.274.195-.837.898-.102.125-.242.125-.093 0-.194-.063L.876 4.49q-.103-.078-.122-.195t.043-.22Q2.047 2 4.422 2q.625 0 1.258.242t1.14.648.83.996.32 1.238z" /></svg>