<svg xmlns="http://www.w3.org/2000/svg" viewBox="0 0 14 14"><path d="M.148 6.828q.062-1.695.906-3.172t2.383-2.484h.04q0 .008-.01.023-.06.062-.218.262t-.407.598-.47.863-.347 1.06-.11 1.175.306 1.23.848 1.203q.39.39.797.543t.707.09.543-.185.367-.254l.125-.124q.304-.398.413-.91t.05-.957-.163-.837-.207-.625l-.11-.227q-.077-.194-.237-.386t-.336-.32-.34-.23-.273-.148l-.102-.047.813-.9q.305.134.61.407t.46.477l.148.21q.008-.374-.145-.808t-.315-.684L5.72 1.43 6.976 0l1.25 1.414q-.258.36-.41.8t-.176.708l-.03.258q.172-.29.48-.566t.527-.41l.22-.133.804.9q-.343.108-.663.39t-.47.508l-.147.227q-.242.438-.375 1.043T7.93 6.466t.445 1.223q.258.35.605.472t.664.043.594-.207.45-.262l.163-.125q.47-.413.755-.897t.38-.95.077-.948-.14-.922-.29-.84-.355-.727-.352-.563-.27-.37l-.102-.134q-.11-.103-.055-.103l.078.023q.312.227.488.36t.484.39.5.453.457.508.434.603.354.688.297.806.185.914.082 1.062q.023 2.023-.844 3.633t-2.438 2.508T7.013 14q-1.445 0-2.742-.577t-2.214-1.547-1.438-2.29T.145 6.83z" /></svg>