<svg xmlns="http://www.w3.org/2000/svg" viewBox="0 0 14 14"><path d="M5.203 3.758q-.47.72-1.07 2.133-.172-.35-.29-.565T3.53 4.83t-.398-.442-.492-.273T2 4.002H.25q-.108 0-.18-.07T0 3.752v-1.5q0-.11.07-.18t.18-.07H2q1.954 0 3.204 1.758zM14 10q0 .11-.07.18l-2.5 2.5q-.07.07-.18.07-.102 0-.176-.074T11 12.5V11q-.25 0-.664.004t-.633.008-.57-.008-.555-.04-.5-.08-.492-.146-.453-.223-.46-.312-.43-.418-.44-.543q.462-.727 1.063-2.133.172.35.29.565t.315.496.4.442.49.273.638.113h2v-1.5q0-.11.07-.18t.18-.07q.094 0 .187.078l2.492 2.492q.07.07.07.18zm0-7q0 .11-.07.18l-2.5 2.5q-.07.07-.18.07-.102 0-.176-.074T11 5.5V4H9q-.375 0-.68.117t-.54.352-.397.48-.352.604q-.25.484-.608 1.336-.227.516-.387.867t-.422.82-.5.78-.578.65-.703.534-.832.33-1 .128H.25q-.11 0-.18-.07t-.07-.18v-1.5q0-.11.07-.18t.18-.07H2q.375 0 .68-.117t.54-.35.397-.48.352-.606q.25-.484.608-1.336.227-.516.387-.867t.422-.82.5-.78.578-.648.703-.535T8 2.13 9 2h2V.5q0-.11.07-.18t.18-.07q.094 0 .187.078L13.93 2.82q.07.07.07.18z" /></svg>