<svg xmlns="http://www.w3.org/2000/svg" viewBox="0 0 14 14"><path d="M6.53 9.133l-.116 2.875-.016.172-3.28-.227q-.282-.023-.524-.246t-.367-.512q-.086-.21-.113-.43t.03-.508.095-.43.167-.5.148-.414q.61.094 3.977.22zM3.51 4.555l1.406 2.96-1.148-.718q-.492.563-.87 1.13t-.567.976-.31.738-.145.493l-.03.164L.36 7.507Q.227 7.306.22 7.07t.046-.367l.062-.14q.273-.493.89-1.47L.126 4.42zm9.617 4.04l-1.47 2.804q-.093.226-.284.362t-.34.16l-.14.03q-.555.056-1.71.095l.06 1.28-1.796-2.866 1.648-2.827.055 1.352q1.328.125 2.21.04t1.33-.26zm-6.133-7.22q-.367.492-2.07 3.398l-2.477-1.46-.148-.095L4.055.438q.156-.243.47-.353t.624-.078q.186.016.378.094t.328.165.324.258.28.27.282.31.25.272zm5.117 2.398l1.655 2.836q.14.288.098.593t-.215.578q-.102.157-.258.29t-.297.22-.38.17-.366.126-.402.11-.36.093q-.265-.564-2.07-3.407l2.446-1.523zM10.99 2.008l1.11-.648-1.72 2.914-3.273-.156 1.18-.672q-.267-.695-.587-1.297t-.59-.966T6.61.56 6.24.195L6.11.094l3.163.008q.242-.023.453.082t.305.223l.087.117q.305.477.875 1.484z" /></svg>