<svg xmlns="http://www.w3.org/2000/svg" viewBox="0 0 14 14"><path d="M8.555 9.117q.125.125 0 .242-.484.483-1.555.483T5.445 9.36q-.125-.118 0-.243.047-.047.117-.047t.117.047Q6.053 9.5 7 9.5q.936 0 1.32-.383.046-.047.116-.047t.117.047zm-2.4-1.414q0 .29-.202.492t-.492.203-.495-.203-.207-.492q0-.297.207-.5T5.46 7t.493.207.203.496zm3.087 0q0 .29-.207.492t-.496.203-.493-.203-.203-.492.203-.496T8.54 7t.495.203.207.5zm1.96-.937q0-.383-.272-.656t-.664-.273-.672.28q-1.016-.702-2.43-.75l.492-2.21 1.563.352q0 .288.202.49t.492.204.496-.207.207-.496-.207-.495-.496-.207q-.422 0-.625.39L7.56 2.807q-.148-.04-.195.125l-.54 2.44q-1.405.054-2.413.757-.273-.29-.68-.29-.39 0-.664.274t-.273.657q0 .273.145.5t.387.344q-.048.212-.048.44 0 1.108 1.094 1.897t2.633.79q1.546 0 2.64-.79t1.094-1.898q0-.25-.055-.446.233-.117.374-.34t.14-.496zM14 7q0 1.422-.555 2.72t-1.492 2.233-2.234 1.492T7 14t-2.72-.555-2.233-1.492T.555 9.72 0 7t.555-2.72 1.492-2.233T4.28.555 7 0t2.72.555 2.233 1.492 1.492 2.234T14 7z" /></svg>