<svg xmlns="http://www.w3.org/2000/svg" viewBox="0 0 12 14"><path d="M7.336 8.82q.102.102 0 .203-.414.414-1.336.414t-1.336-.414q-.102-.102 0-.203.04-.047.102-.047t.102.047q.328.328 1.133.328t1.134-.328q.04-.047.102-.047t.102.047zM5.28 7.602q0 .242-.18.422t-.42.18-.423-.18-.18-.422q0-.25.176-.426T4.68 7t.425.176.176.426zm2.642 0q0 .242-.18.422t-.422.18-.422-.18-.18-.422q0-.25.176-.426T7.32 7t.426.176.176.426zm1.68-.805q0-.328-.234-.563T8.798 6q-.328 0-.57.242-.883-.61-2.086-.64l.422-1.9L7.9 4.01q.008.25.184.422t.418.172q.25 0 .426-.176T9.104 4t-.176-.426-.426-.176q-.375 0-.54.336l-1.476-.328q-.133-.04-.164.102l-.47 2.094q-1.202.047-2.07.648Q3.55 6 3.206 6q-.336 0-.57.234t-.234.563q0 .234.126.43t.328.297q-.04.195-.04.375 0 .952.938 1.628t2.258.676q1.328 0 2.266-.676t.937-1.63q0-.194-.047-.382.195-.102.316-.293t.12-.426zM12 3.25v7.5q0 .93-.66 1.59T9.75 13h-7.5q-.93 0-1.59-.66T0 10.75v-7.5q0-.93.66-1.59T2.25 1h7.5q.93 0 1.59.66T12 3.25z" /></svg>