<svg xmlns="http://www.w3.org/2000/svg" viewBox="0 0 14 14"><path d="M8.14 5.492q0-.688-.468-.945-.258-.14-.914-.14h-.96V6.6h1.265q.516 0 .797-.288t.28-.82zm.407 2.227l1.602 2.913q.06.133-.01.242-.06.125-.21.125H8.743q-.156 0-.22-.133L7.01 8.015h-1.21v2.734q0 .108-.07.18t-.18.07H4.5q-.11 0-.18-.07t-.07-.18v-7.5q0-.11.07-.18T4.5 3h2.297q1 0 1.484.186.665.242 1.048.852t.383 1.406q0 .72-.33 1.293t-.903.855q.047.078.07.125zM7 1.25q-1.172 0-2.234.457T2.934 2.934 1.707 4.766 1.25 7t.457 2.234 1.227 1.832 1.832 1.227T7 12.75t2.234-.457 1.832-1.227 1.227-1.832T12.75 7t-.457-2.234-1.227-1.832-1.832-1.227T7 1.25zM14 7q0 1.422-.555 2.72t-1.492 2.233-2.234 1.492T7 14t-2.72-.555-2.233-1.492T.555 9.72 0 7t.555-2.72 1.492-2.233T4.28.555 7 0t2.72.555 2.233 1.492 1.492 2.234T14 7z" /></svg>