<svg xmlns="http://www.w3.org/2000/svg" viewBox="0 0 12 14"><path d="M12 2v3.5q0 .203-.148.352T11.5 6H8q-.328 0-.46-.312-.134-.305.108-.54l1.078-1.077Q7.57 3 6 3q-.814 0-1.552.317t-1.277.855-.854 1.277T2 7t.316 1.55.855 1.278 1.278.855 1.55.316q.93 0 1.76-.407t1.397-1.148q.055-.078.18-.094.11 0 .195.07l1.07 1.08q.07.06.074.16t-.06.175q-.85 1.03-2.06 1.598T5.997 13q-1.22 0-2.328-.478t-1.914-1.28-1.28-1.915T-.003 7t.477-2.33 1.28-1.913 1.915-1.28T5.998.998q1.148 0 2.223.433t1.91 1.223l1.017-1.008q.227-.242.547-.11Q12 1.673 12 2z" /></svg>