<svg xmlns="http://www.w3.org/2000/svg" viewBox="0 0 15 14"><path d="M10 11.75q0 .102-.074.176T9.75 12h-7.5q-.062 0-.105-.016t-.07-.055-.043-.063-.023-.09-.01-.09V7H.5Q.3 7 .15 6.852T0 6.5q0-.187.118-.32l2.5-3q.148-.172.383-.172t.384.172l2.5 3Q6 6.313 6 6.5q0 .203-.147.352T5.5 7H4v3h4.5q.126 0 .196.086l1.25 1.5q.055.086.055.164zm5-3.25q0 .187-.117.32l-2.5 3Q12.227 12 12 12t-.383-.18l-2.5-3Q9 8.687 9 8.5q0-.203.148-.352T9.5 8H11V5H6.5q-.125 0-.195-.094l-1.25-1.5Q5 3.336 5 3.25q0-.102.074-.176T5.25 3h7.5q.062 0 .105.016t.07.055.043.063.023.09.01.09V8h1.5q.202 0 .35.148T15 8.5z" /></svg>