<svg xmlns="http://www.w3.org/2000/svg" viewBox="0 0 15 14"><path d="M8.68 7.78v-.03l-.187-2.5q-.008-.102-.086-.176T8.227 5H6.774q-.102 0-.18.074t-.086.176l-.187 2.5v.03q-.007.095.063.157T6.547 8h1.906q.094 0 .164-.063t.062-.156zm5.93 3.65q0 .57-.36.57h-5.5q.102 0 .172-.074t.062-.176l-.156-2q-.008-.102-.086-.176t-.18-.074H6.437q-.102 0-.18.074t-.086.176l-.155 2q-.008.102.062.176T6.25 12H.75q-.36 0-.36-.57 0-.422.203-.906L3.85 2.368q.063-.148.204-.258T4.35 2H7q-.103 0-.18.075t-.087.176l-.117 1.5q-.008.11.062.18T6.85 4h1.297q.102 0 .172-.07t.06-.18l-.116-1.5q-.008-.1-.086-.175T7.998 2h2.648q.156 0 .297.11t.203.258l3.258 8.156q.203.484.203.906z" /></svg>