<svg xmlns="http://www.w3.org/2000/svg" viewBox="0 0 13 14"><path d="M11.25 3.5q0-.312-.22-.53t-.53-.22-.53.22-.22.53.22.53.53.22.53-.22.22-.53zM13 1.25q0 1.945-.59 3.363T10.43 7.43q-.633.624-1.523 1.374l-.156 2.96q-.015.126-.124.204l-3 1.75q-.055.03-.125.03-.093 0-.18-.07l-.5-.5q-.1-.108-.06-.25l.663-2.155-2.195-2.195-2.156.664q-.023.008-.07.008-.11 0-.18-.07l-.5-.5q-.133-.148-.04-.305l1.75-3q.08-.11.204-.125l2.96-.156q.75-.89 1.376-1.523 1.47-1.46 2.797-2.015T12.735 1q.11 0 .187.074T13 1.25z" /></svg>