<svg xmlns="http://www.w3.org/2000/svg" viewBox="0 0 16 14"><path d="M11.72 10.71V4.985q0-.164-.118-.28t-.273-.118H10.6q-.156 0-.273.117t-.118.28v5.728q0 .157.117.274t.272.117h.727q.155 0 .272-.116t.117-.273zm-2.22 0V6.564q0-.156-.117-.273t-.273-.117h-.79q-.155 0-.272.117t-.117.273v4.148q0 .157.118.274t.273.117h.79q.156 0 .273-.116t.117-.273zm-2.28 0V7.36q0-.157-.118-.274T6.83 6.97h-.79q-.156 0-.273.116t-.117.273v3.35q0 .157.117.274t.273.117h.79q.155 0 .272-.116t.117-.273zm-2.282 0V7.884q0-.156-.117-.273t-.272-.117h-.79q-.155 0-.272.117t-.117.273v2.828q0 .157.116.274t.273.117h.788q.156 0 .273-.116t.118-.273zM16 9.57q0 1.297-.922 2.22t-2.22.92H3.14q-1.297 0-2.22-.92T0 9.57q0-.906.49-1.676t1.314-1.16q-.078-.266-.078-.57 0-.883.63-1.512t1.51-.63q.798 0 1.407.524.352-1.43 1.516-2.344t2.64-.914q1.164 0 2.148.574t1.56 1.56.573 2.147q0 .515-.108.952 1.055.258 1.727 1.113T16 9.57z" /></svg>