<svg xmlns="http://www.w3.org/2000/svg" viewBox="0 0 12 14"><path d="M7.852 8.602l2.75-2.75q.148-.148.148-.352t-.148-.352l-2.75-2.75q-.234-.242-.54-.11-.31.134-.31.462V4q-.93 0-1.69.152t-1.27.398-.89.617-.598.746-.348.852-.168.87-.04.864q0 1.413 1.306 3.155.078.094.195.094.054 0 .1-.024.173-.07.15-.258-.345-2.766.483-3.695.36-.406 1.016-.59T7 7v1.25q0 .327.31.46.095.04.188.04.203 0 .352-.15zM12 3.25v7.5q0 .93-.66 1.59T9.75 13h-7.5q-.93 0-1.59-.66T0 10.75v-7.5q0-.93.66-1.59T2.25 1h7.5q.93 0 1.59.66T12 3.25z" /></svg>