<svg xmlns="http://www.w3.org/2000/svg" viewBox="0 0 16 14"><path d="M14.148 12.148Q14.296 12 14.5 12t.352.148l1 1-.703.703-.65-.647-.647.648q-.14.15-.352.15t-.35-.15l-.65-.647-.647.648q-.148.15-.352.15t-.35-.15l-.65-.647-.647.648Q9.705 14 9.5 14t-.35-.15l-.65-.647-.647.648Q7.705 14 7.5 14t-.35-.15l-.65-.647-.647.648Q5.705 14 5.5 14t-.35-.15l-.65-.647-.647.648Q3.705 14 3.5 14t-.35-.15l-.65-.647-.647.648Q1.705 14 1.5 14t-.35-.15l-1-1 .702-.702.648.648.648-.648Q2.296 12 2.5 12t.352.148l.648.648.648-.648Q4.296 12 4.5 12t.352.148l.648.648.648-.648Q6.296 12 6.5 12t.352.148l.648.648.648-.648Q8.296 12 8.5 12t.352.148l.648.648.648-.648Q10.296 12 10.5 12t.352.148l.648.648.648-.648Q12.296 12 12.5 12t.352.148l.648.648zm-12.296-.296Q1.704 12 1.5 12t-.352-.148l-1-1 .703-.703.65.64.647-.64Q2.295 10 2.5 10t.35.15l.65.64.5-.5V8L2.357 5.55q-.133-.203-.055-.44t.312-.317l1.383-.452V2.002h1v-1h2v-1h2v1h2v1h1v2.336l1.383.453q.235.08.313.317t-.055.44l-1.64 2.454v2.29l.147-.14q.148-.15.352-.15t.352.15l.647.64.648-.64q.148-.15.352-.15t.352.15l1 1-.704.702-.648-.648-.648.648q-.14.148-.352.148t-.352-.148l-.648-.648-.648.648q-.148.148-.352.148t-.352-.148l-.648-.648-.648.648Q9.702 12 9.498 12t-.352-.148l-.648-.648-.648.648Q7.702 12 7.498 12t-.352-.148l-.648-.648-.648.648Q5.702 12 5.498 12t-.352-.148l-.648-.648-.648.648Q3.702 12 3.498 12t-.352-.148l-.648-.648zM5 3v1l3-1 3 1V3h-1V2H6v1H5z" /></svg>