<svg xmlns="http://www.w3.org/2000/svg" viewBox="0 0 12 14"><path d="M0 0h12v10.875l-6.063 2.64L0 10.876V0zm11.22 10.367V3.133H.78v7.234l5.165 2.297zm0-8.015V.782H.78v1.57h10.44zM1.413 4.68v.898h-.29V4.68h.29zm0 1.156v.898h-.29v-.898h.29zm0 1.156v.898h-.29v-.898h.29zm0 1.156v.898h-.29v-.898h.29zm0 1.157v.898h-.29v-.898h.29zm.203 1.117l.117-.266.82.367-.117.258zm1.063.47l.117-.267.82.36-.117.265zm1.054.467l.117-.267.82.36-.116.265zm1.063.46l.117-.258.813.36-.117.265zm1.43.102l.82-.36.117.26-.82.366zm1.054-.47l.82-.358.118.266-.82.36zm1.064-.468l.82-.36.117.267-.82.36zm1.054-.46l.82-.368.117.266-.82.36zM2.023 1.147v.28h-.89v-.28h.89zm1.266 0v.28h-.9v-.28h.9zm1.265 0v.28h-.898v-.28h.898zm1.258 0v.28h-.89v-.28h.89zm1.265 0v.28h-.89v-.28h.89zm1.266 0v.28h-.898v-.28h.898zm1.265 0v.28h-.9v-.28h.9zm1.257 0v.28h-.89v-.28h.89zM1.414 3.805v.617h-.29v-.898h.9v.28h-.61zm1.875-.282v.28h-.9v-.28h.9zm1.265 0v.28h-.898v-.28h.898zm1.258 0v.28h-.89v-.28h.89zm1.265 0v.28h-.89v-.28h.89zm1.266 0v.28h-.898v-.28h.898zm1.265 0v.28h-.9v-.28h.9zm.976.9v-.618h-.61v-.28h.9v.897h-.29zm0 1.155V4.68h.29v.898h-.29zm0 1.156v-.898h.29v.898h-.29zm0 1.157v-.897h.29v.898h-.29zm0 1.157V8.15h.29v.897h-.29zm0 1.156v-.898h.29v.898h-.29zM5.938 9.93q-1.008 0-1.727-.715t-.718-1.73q0-1.008.72-1.727t1.726-.72q1.016 0 1.73.72t.715 1.727q0 1.016-.715 1.73t-1.73.715zm-1.29-2.977q0 .28.152.44t.387.196.5.054.5.016.387.07.152.238q0 .383-.875.383-.757 0-.96-.397h-.023l-.242.492q.523.328 1.266.328.228 0 .442-.04t.434-.124.355-.26.138-.413q0-.36-.215-.543t-.527-.21-.62-.024-.524-.04-.215-.198q0-.164.16-.258t.316-.117.32-.023q.266 0 .55.086t.403.266h.023l.233-.453Q7.14 6.415 7 6.357t-.177-.07-.152-.055-.17-.055-.157-.035-.187-.03-.18-.01q-.227 0-.44.04t-.423.13-.336.265-.13.418z" /></svg>