<svg xmlns="http://www.w3.org/2000/svg" viewBox="0 0 12 14"><path d="M9.25 7q0 .203-.148.352l-4.25 4.25q-.148.148-.352.148t-.352-.148T4 11.25V9H.5q-.203 0-.352-.148T0 8.5v-3q0-.203.148-.352T.5 5H4V2.75q0-.203.148-.352T4.5 2.25t.352.148l4.25 4.25q.148.148.148.352zM12 4.25v5.5q0 .93-.66 1.59T9.75 12h-2.5q-.102 0-.176-.074T7 11.75q0-.03-.008-.156t-.004-.207.023-.184.08-.152.16-.05h2.5q.515 0 .882-.367T11 9.75v-5.5q0-.516-.368-.883T9.75 3H7.31l-.09-.008-.09-.023-.06-.044-.056-.07-.016-.105q0-.03-.008-.155t-.004-.207.023-.184.077-.152.16-.05h2.5q.93 0 1.59.66t.66 1.59z" /></svg>