<svg xmlns="http://www.w3.org/2000/svg" viewBox="0 0 16 14"><path d="M13.203 6.148q1.156 0 1.977.77t.82 1.91q0 1.227-.852 2.043t-2.086.817q-.664 0-1.266-.215t-1.078-.574-.922-.828-.852-.988-.81-1.035-.847-.984-.914-.828T5.31 5.66t-1.24-.214q-1.204 0-1.966.715t-.762 1.91q0 1.228.813 1.954t2.055.727q.78 0 1.625-.292t1.508-.77q.04-.03.164-.145t.234-.187.173-.074q.11 0 .19.082t.083.19q0 .188-.47.603-.788.688-1.83 1.11t-2.036.42q-1.04 0-1.918-.452T.526 9.945 0 8.064Q0 6.46 1.103 5.4T3.82 4.336q.936 0 1.77.34t1.448.883 1.184 1.195 1.086 1.31 1.043 1.198 1.17.883 1.347.34q.797 0 1.316-.48t.52-1.27q0-.742-.504-1.242t-1.247-.5q-.234 0-.637.145t-.535.144q-.155 0-.276-.117t-.12-.273q0-.14.065-.445t.065-.462q0-1.242-.84-2.055T8.593 3.12q-.453 0-.87.145t-.657.316-.434.317-.258.145q-.117 0-.2-.082t-.08-.2q0-.147.194-.358.46-.523 1.148-.81t1.422-.284q1.492 0 2.484.98t.992 2.465q0 .29-.03.516.444-.118.897-.118z" /></svg>