<svg xmlns="http://www.w3.org/2000/svg" viewBox="0 0 13 14"><path d="M11.867 6.063q.484 0 .81.316T13 7.17q0 .758-.727 1.016l-1.344.46.437 1.306q.055.164.055.367 0 .462-.328.798t-.79.336q-.366 0-.667-.21t-.418-.564l-.43-1.29-2.423.83.43 1.28q.062.187.062.367 0 .46-.33.797T5.735 13q-.367 0-.664-.21t-.414-.564l-.43-1.273-1.195.414q-.226.07-.39.07-.477 0-.793-.312t-.316-.79q0-.366.216-.663t.56-.414l1.218-.414-.82-2.445-1.22.42q-.202.063-.374.063-.47 0-.79-.316T0 5.782q0-.367.216-.664t.56-.414L2 4.29l-.414-1.242q-.062-.187-.062-.367 0-.468.328-.8t.797-.332q.368 0 .665.21t.414.564l.42 1.25 2.423-.82-.422-1.25q-.06-.187-.06-.367 0-.46.33-.797t.794-.336q.367 0 .668.215t.418.56l.414 1.257 1.266-.43q.164-.047.336-.047.47 0 .8.31t.333.77q0 .35-.235.636t-.578.402l-1.227.422.82 2.47 1.28-.44q.188-.06.36-.06zM5.664 8.11l2.422-.82-.82-2.462-2.422.836z" /></svg>