<svg xmlns="http://www.w3.org/2000/svg" viewBox="0 0 12 14"><path d="M10.516 10.258q0-.492-.344-.906t-.805-.414q-.406 0-.648.29t-.243.733.285.743.816.297q.39 0 .664-.21t.273-.532zm-4.766.992q0 .094-.078.187L3.18 13.93Q3.102 14 3 14q-.094 0-.18-.07l-2.5-2.5q-.117-.126-.055-.274Q.327 11 .5 11H2V.25q0-.11.07-.18T2.25 0h1.5q.108 0 .18.07T4 .25V11h1.5q.108 0 .18.07t.07.18zm5.86-.54q0 .485-.103.95t-.32.89-.53.747-.77.512-.997.19q-.484 0-.844-.125-.187-.062-.328-.117l.305-.883q.117.055.242.086.29.103.586.103.657 0 1.052-.457t.52-1.137h-.016q-.164.18-.48.288t-.66.11q-.828 0-1.352-.56T7.39 9.96q0-.82.564-1.39T9.368 8q.96 0 1.602.737t.64 1.973zm-.235-5.6V6H7.71v-.89h1.306V1.733q0-.055.004-.148t.004-.133v-.125h-.016l-.055.094q-.062.102-.203.242l-.484.453-.64-.672L9.125 0h.96v5.11h1.29z" /></svg>