<svg xmlns="http://www.w3.org/2000/svg" viewBox="0 0 13 14"><path d="M9.305 11.188h1.383l-.563-1.703-.094-.367q-.015-.125-.015-.156h-.03l-.024.156q0 .008-.026.14t-.06.228zm-3.555.062q0 .094-.078.187L3.18 13.93Q3.102 14 3 14q-.094 0-.18-.07l-2.5-2.5q-.117-.126-.055-.274Q.327 11 .5 11H2V.25q0-.11.07-.18T2.25 0h1.5q.108 0 .18.07T4 .25V11h1.5q.108 0 .18.07t.07.18zm7.227 1.922V14h-2.25v-.828h.586l-.367-1.125H9.048l-.367 1.125h.587V14H7.025v-.828h.547L9.37 8h1.265l1.797 5.172h.547zM12.28 4.18V6H7.72v-.703L10.6 1.164q.094-.14.164-.21l.086-.07V.86q-.016 0-.05.004t-.06.004q-.094.023-.234.023H8.696v.9H7.76V0h4.43v.695l-2.884 4.14q-.047.063-.164.204l-.086.077v.023l.11-.023q.07-.008.233-.008h1.936v-.93h.945z" /></svg>