<svg xmlns="http://www.w3.org/2000/svg" viewBox="0 0 18 14"><path d="M6.125 10.72l.125-1.884-.125-4.086q-.008-.078-.06-.133t-.128-.055q-.07 0-.125.055t-.055.133l-.11 4.086.11 1.883q.008.077.06.128t.12.05q.172 0 .187-.18zm2.313-.228l.086-1.648-.094-4.578q0-.125-.102-.187-.062-.04-.125-.04t-.125.04q-.102.06-.102.186l-.008.047-.078 4.523.086 1.844v.008q0 .078.047.133.07.087.18.087.086 0 .156-.07.07-.055.07-.156zM.273 7.836l.156 1-.157.984q-.016.07-.07.07t-.07-.07L0 8.836l.133-1q.016-.07.07-.07t.07.07zm.672-.617l.203 1.616-.203 1.586q-.016.07-.078.07-.07 0-.07-.078l-.18-1.578.18-1.617q0-.07.07-.07.062 0 .078.07zm.72-.298l.194 1.914-.196 1.852q0 .086-.086.086-.078 0-.094-.086L1.32 8.836l.164-1.914q.016-.094.094-.094.086 0 .086.094zm.733-.055l.18 1.97-.18 1.905q-.016.102-.11.102-.1 0-.1-.102l-.165-1.906.164-1.97q0-.1.102-.1.093 0 .108.1zm.735.14l.164 1.83-.164 1.92q-.016.126-.125.126-.047 0-.082-.035t-.035-.09l-.155-1.922.156-1.828q0-.047.036-.082t.082-.035q.11 0 .125.118zm.734-1.14l.164 2.97-.163 1.92q0 .056-.04.1t-.093.042q-.125 0-.14-.142L3.45 8.836l.14-2.97q.017-.14.142-.14.055 0 .094.043t.04.097zm.735-.672L4.75 8.85l-.148 1.907q0 .062-.043.105t-.106.043q-.14 0-.156-.148L4.173 8.85l.125-3.655q.016-.148.156-.148.062 0 .105.043t.042.105zm.765-.312l.14 3.953-.14 1.89q-.016.165-.172.165-.148 0-.164-.163l-.124-1.89.125-3.954q0-.07.052-.12t.113-.052q.07 0 .117.052t.055.12zM8.43 10.68zM6.883 4.852L7 8.836l-.117 1.867q0 .078-.06.137t-.136.06-.133-.056-.062-.14l-.11-1.868.11-3.984q0-.086.06-.14t.136-.056.137.055.06.142zM7.656 5l.11 3.844-.11 1.844q0 .086-.062.148t-.148.062-.148-.062-.07-.148l-.094-1.844L7.228 5q.008-.094.07-.156t.148-.062.145.062.067.156zm1.657 3.844l-.11 1.805q0 .1-.07.17t-.17.07-.173-.07-.078-.17l-.047-.892-.047-.914.094-4.97v-.022q.016-.117.094-.187.07-.055.156-.055.062 0 .117.04.108.06.124.202zM18 8.694q0 .915-.648 1.56t-1.563.645H9.647q-.102-.017-.172-.087t-.07-.172V3.62q0-.18.22-.258.663-.266 1.413-.266 1.522 0 2.64 1.027t1.25 2.528q.414-.172.86-.172.913 0 1.562.648T18 8.694z" /></svg>