<svg xmlns="http://www.w3.org/2000/svg" viewBox="0 0 17 14"><path d="M4.844 8.75q-.86.5-2.094.5h-1v-.5h-.5q-.102 0-.176-.184T1 8.126q0-.188.055-.384Q.602 7.726.3 7.66T0 7.5t.3-.16.755-.082Q1 7.063 1 6.875q0-.258.074-.44t.176-.185h.5v-.5h1q1.234 0 2.094.5h8.695q.325.055.83.14t.63.11q.693.117 1.17.316t.652.37T17 7.5t-.176.31-.652.372T15 8.498q-.125.023-.63.11t-.83.14H4.843zm8.742-1.97q.414.282.414.72t-.414.72l.633.233q.53-.375.53-.953t-.53-.953zM4.883 8.876h7.93L9.25 9.5q-.444 0-.882.187t-.648.375l-.22.187-2.25 2.25q-.202.2-.55.35T4 13h-.75l-.726-3.626h.227q1.23 0 2.136-.5zM2.75 5.626h-.227L3.25 2H4q.36 0 .703.148t.547.352L7.5 4.75q.03.03.086.082t.238.18.38.227.48.18.565.08l3.56.624H4.88q-.905-.5-2.132-.5z" /></svg>