<svg xmlns="http://www.w3.org/2000/svg" viewBox="0 0 12 14"><path d="M8.805 9.453q0-.25-.234-.398-1.5-.898-3.49-.898-1.04 0-2.24.266-.33.07-.33.406 0 .15.11.27t.278.11q.04 0 .29-.06 1.03-.21 1.9-.21 1.765 0 3.1.8.15.082.26.082.147 0 .257-.106t.11-.27zm.75-1.68q0-.312-.273-.477-1.852-1.102-4.28-1.102-1.196 0-2.368.328-.375.102-.375.5 0 .195.13.332t.33.137q.055 0 .29-.06.952-.26 1.96-.26 2.18 0 3.812.97.186.11.296.11.195 0 .332-.137t.136-.332zm.843-1.937q0-.367-.312-.547-.984-.57-2.29-.87t-2.68-.295q-1.593 0-2.843.367-.18.054-.3.2t-.122.377q0 .242.16.406t.41.166q.087 0 .31-.062 1.04-.29 2.4-.29 1.24 0 2.418.27t1.98.742q.165.095.313.095.227 0 .395-.16t.17-.403zM12 7q0 1.633-.805 3.012T9.01 12.196 6 13t-3.013-.804-2.184-2.184T-.002 7t.805-3.012 2.184-2.184T6 1t3.01.804 2.185 2.184T12 7z" /></svg>