<svg xmlns="http://www.w3.org/2000/svg" viewBox="0 0 14 14"><path d="M12.36 4.547q0 .79-.56 1.348t-1.348.56-1.348-.56-.56-1.348.56-1.348 1.348-.56 1.348.56.56 1.344zm-6.016 5.797q0-.813-.57-1.383T4.39 8.39q-.21 0-.42.048l.812.328q.602.242.855.832t.012 1.184q-.246.602-.84.852t-1.187.008q-.164-.062-.484-.19t-.477-.192q.25.47.71.754t1.017.285q.815 0 1.385-.57t.57-1.387zm6.484-5.79q0-.983-.7-1.683t-1.683-.695q-.992 0-1.69.7t-.7 1.683q0 .992.7 1.688t1.69.695q.984 0 1.684-.695t.695-1.688zm1.172 0q0 1.478-1.043 2.517t-2.512 1.04L7.03 10.605q-.093 1.008-.85 1.703T4.39 13q-.945 0-1.672-.594t-.922-1.5L0 10.186v-3.35L3.037 8.06q.617-.375 1.352-.375.1 0 .27.016l2.22-3.18q.015-1.46 1.06-2.49T10.444 1q1.47 0 2.512 1.043T14 4.555z" /></svg>