<svg xmlns="http://www.w3.org/2000/svg" viewBox="0 0 12 14"><path d="M9.703 5.055q0-.625-.445-1.066t-1.07-.443-1.066.445-.44 1.062q0 .625.44 1.066t1.066.442 1.07-.44.445-1.067zM4.938 9.648q0 .648-.453 1.098t-1.094.45q-.436 0-.803-.228t-.563-.602q.406.156.766.312.468.187.936-.012t.664-.676q.187-.47-.012-.937t-.676-.656l-.64-.258q.17-.04.327-.04.64 0 1.092.45t.453 1.096zM12 3.25v7.5q0 .93-.66 1.59T9.75 13h-7.5q-.93 0-1.59-.66T0 10.75V9.555l1.344.54q.156.718.73 1.186t1.316.47q.813 0 1.414-.546t.68-1.352l2.696-1.97q1.17 0 1.995-.823T11 5.07q0-1.172-.825-1.996T8.18 2.25q-1.157 0-1.978.816T5.366 5.04L3.608 7.554q-.07-.008-.22-.008-.585 0-1.07.29L0 6.906V3.25q0-.93.66-1.59T2.25 1h7.5q.93 0 1.59.66T12 3.25zm-1.93 1.82q0 .78-.555 1.332t-1.336.55-1.334-.55-.55-1.332.55-1.336T8.18 3.18q.788 0 1.34.55t.55 1.34z" /></svg>