<svg xmlns="http://www.w3.org/2000/svg" viewBox="0 0 11 14"><path d="M11 12q0 .492-.48.887t-1.28.633-1.76.36T5.5 14t-1.98-.12-1.757-.36-1.28-.633T.003 12q0-.383.256-.69t.71-.52.92-.35 1.02-.23q.2-.038.372.083t.203.324q.04.203-.08.375t-.325.203q-.452.078-.827.184t-.6.19-.38.183-.213.152T.997 12q.022.087.21.208t.57.26.89.254 1.255.195T5.5 13t1.575-.077 1.254-.195.89-.258.57-.264.21-.215q-.01-.03-.07-.08t-.217-.15-.378-.18-.6-.195-.827-.185q-.203-.03-.324-.204t-.083-.372q.03-.203.206-.324t.373-.08q.554.093 1.022.23t.922.35.71.52.26.69zM8 5v3q0 .203-.148.352T7.5 8.5H7v3q0 .203-.148.352T6.5 12h-2q-.203 0-.352-.148T4 11.5v-3h-.5q-.203 0-.352-.148T3 8V5q0-.414.293-.707T4 4h3q.414 0 .707.293T8 5zm-.75-3q0 .727-.512 1.238T5.5 3.75t-1.238-.512T3.75 2 4.262.762 5.5.25t1.238.512T7.25 2z" /></svg>