<svg xmlns="http://www.w3.org/2000/svg" viewBox="0 0 14 14"><path d="M13.75 7q.11 0 .18.07t.07.18v.5q0 .11-.07.18t-.18.07H.25q-.11 0-.18-.07T0 7.75v-.5q0-.11.07-.18T.25 7h13.5zm-9.977-.5q-.22-.273-.398-.625Q3 5.117 3 4.405q0-1.413 1.047-2.413Q5.087 1 7.117 1q.39 0 1.305.148.516.094 1.383.375.078.297.164.922.1.96.1 1.43 0 .14-.04.352l-.097.023-.656-.047-.11-.016q-.39-1.164-.805-1.602-.688-.71-1.64-.71-.89 0-1.423.46-.525.453-.525 1.14 0 .57.513 1.095t2.18 1.008q.54.156 1.35.516.453.22.742.406h-5.8zm3.96 2h3.212q.055.305.055.72 0 .866-.32 1.655-.18.43-.555.813-.29.273-.852.633-.625.38-1.195.52-.625.16-1.586.16-.89 0-1.523-.18l-1.1-.31q-.45-.12-.57-.22-.06-.06-.06-.17v-.1q0-.84-.018-1.22-.01-.23 0-.53l.015-.29v-.34l.795-.012q.118.266.235.555t.178.438.1.21q.273.448.625.737.336.28.82.445.46.173 1.03.173.5 0 1.087-.21.6-.202.952-.67.364-.48.364-1.01 0-.658-.63-1.23-.268-.226-1.07-.554z" /></svg>