<svg xmlns="http://www.w3.org/2000/svg" viewBox="0 0 12 14"><path d="M6.766 6.555l.703-.21V5.86q0-.617-.455-1.055t-1.078-.438T4.86 4.8t-.453 1.052v2.21q0 .157-.11.263t-.257.105-.254-.105-.105-.262v-.937H2.5v.953q0 .64.45 1.084t1.09.445q.633 0 1.082-.44t.45-1.068V5.915q0-.148.104-.258t.262-.11q.148 0 .254.11t.105.258v.422zm2.6 1.523v-.953h-1.17v.984q0 .154-.106.26t-.262.105q-.148 0-.254-.11T7.47 8.11v-.962l-.704.203-.47-.217v.96q0 .626.454 1.07t1.086.446 1.082-.446.45-1.086zM12 7q0 1.633-.805 3.012T9.01 12.196 6 13t-3.013-.804-2.184-2.184T-.002 7t.805-3.012 2.184-2.184T6 1t3.01.804 2.185 2.184T12 7z" /></svg>