<svg xmlns="http://www.w3.org/2000/svg" viewBox="0 0 12 14"><path d="M7.008 10.695V12H5.07l-1.24-1.97-.188-.327q-.062-.07-.086-.164h-.023l-.07.162q-.078.156-.195.344L2.058 12H.04v-1.305h1l1.54-2.273-1.445-2.125H.065V4.984H2.22l1.087 1.78q.016.032.18.33.062.07.086.163h.023q.023-.07.086-.164l.195-.328 1.094-1.78h2.01v1.312H6L4.564 8.383l1.594 2.313h.852zM12 12.39V14H7.984l-.03-.21-.024-.36q0-.5.203-.914t.508-.676.658-.508.656-.426.508-.422.204-.5q0-.297-.23-.488t-.55-.19q-.4 0-.76.304-.108.086-.28.297l-.82-.72q.203-.288.492-.515.625-.508 1.47-.508.858 0 1.39.465t.53 1.236q0 .516-.27.926t-.655.672-.776.488-.68.492-.32.57h1.812v-.625H12z" /></svg>