<svg xmlns="http://www.w3.org/2000/svg" viewBox="0 0 14 14"><path d="M11.5 7q0-.914-.355-1.746t-.96-1.438-1.44-.96T7 2.5t-1.746.355-1.438.96-.96 1.44T2.5 7t.355 1.746.96 1.438 1.44.96T7 11.5t1.746-.355 1.438-.96.96-1.44T11.5 7zm2.156 2.164q-.03.117-.156.156l-2.28.75v2.39q0 .126-.103.204-.117.078-.227.03l-2.28-.733-1.408 1.94Q7.125 14 7 14t-.203-.102L5.39 11.96l-2.28.735q-.11.047-.227-.03-.102-.08-.102-.204v-2.39L.5 9.32q-.125-.04-.156-.156-.04-.133.03-.227L1.782 7 .376 5.063q-.07-.102-.03-.227.03-.117.155-.156l2.28-.75V1.54q0-.126.105-.204.117-.078.227-.03l2.28.733L6.8.1q.068-.092.2-.092t.203.094L8.61 2.04l2.28-.735q.11-.047.227.03.102.08.102.204v2.39l2.28.75q.123.04.154.154.04.125-.03.227L12.218 7l1.405 1.937q.07.094.03.227z" /></svg>