<svg xmlns="http://www.w3.org/2000/svg" viewBox="0 0 10 14"><path d="M6.578 4.47q0 .624-.445 1.065t-1.062.44q-.46 0-.86-.272-.482.523-.9 1.14-1.93 2.9-1.58 6.712.01.172-.1.3T1.36 14h-.04q-.154 0-.27-.103t-.134-.262Q.806 12.65.888 11.7t.23-1.695.422-1.453.54-1.215.577-.977q.477-.703 1.03-1.29-.124-.272-.124-.6 0-.626.44-1.067t1.067-.44 1.066.44.44 1.066zm2.977.085q0 1.234-.61 2.28t-1.66 1.657T5 9.102q-.5 0-1.02-.11-.165-.04-.255-.184t-.05-.31q.038-.155.18-.245t.304-.06q.39.103.84.103.76 0 1.45-.297t1.193-.8T8.44 6t.298-1.45-.296-1.45-.797-1.196-1.195-.797T5 .81t-1.452.3-1.196.796T1.557 3.1 1.26 4.555q0 .89.406 1.703.078.156.027.312t-.2.233-.308.023-.238-.203q-.5-.96-.5-2.07 0-.93.363-1.773t.973-1.453 1.453-.97T5.002 0q1.234 0 2.285.608t1.66 1.66.61 2.285z" /></svg>