<svg xmlns="http://www.w3.org/2000/svg" viewBox="0 0 12 14"><path d="M.633 1.008l.422.21q.094.04 1.648.04.344 0 1.03-.016t1.032-.016q.547 0 1.926-.008t2.38-.004T11 1.25q.258.007.438-.243L11.766 1q.03 0 .11.003t.108.004Q12 1.882 12 3.632q0 .625-.04.852-.304.11-.53.14-.195-.343-.422-1-.023-.07-.086-.37t-.117-.574-.055-.28q-.078-.103-.21-.15-.04-.015-.517-.015-.234 0-.727-.008T8.49 2.22t-.733.015-.75.055q-.07.633-.062 1.062l.008 1.187v-.41q0 .43.008 1.2t.02 1.404.004 1.195q0 .125-.02.56t0 .714.098.54q.313.163.97.33t.937.294q.04.31.04.39 0 .11-.024.23l-.27.01q-.592.015-1.7-.06t-1.618-.08q-.39 0-1.18.07T3.028 11L3 10.596v-.07q.134-.21.48-.336t.77-.228.61-.21q.055-.126.09-.58t.047-1.136.012-1.21-.01-1.2 0-.696q0-.054-.02-.167t-.02-.176q0-.055.002-.344t.008-.57 0-.598-.022-.527-.05-.25q-.088-.094-1.268-.094-.32 0-1.273.105t-1.08.19q-.147.09-.265.56t-.246.87-.333.42Q.11 4.15 0 4.01V1.016zm9.6 10.015q.095 0 .33.152t.448.324.47.38.28.23q.207.163.207.382t-.202.382q-.03.022-.28.233t-.465.383-.45.324-.33.15q-.1 0-.16-.08t-.08-.222-.02-.262.014-.258.012-.152H2q0 .016.012.152t.012.258-.02.262-.078.223-.16.08q-.094 0-.328-.15t-.45-.325-.464-.384-.28-.235Q.04 12.717.04 12.5t.203-.384q.03-.023.28-.234T.99 11.5t.448-.325.328-.152q.102 0 .16.082t.078.223.02.262-.012.258T2 12h8q0-.016-.012-.152t-.012-.258.02-.262.078-.223.16-.082z" /></svg>