<svg xmlns="http://www.w3.org/2000/svg" viewBox="0 0 14 14"><path d="M13.625 11q.258 0 .328.145t-.086.348l-.984 1.266q-.156.2-.383.2t-.383-.204l-.984-1.267q-.156-.203-.086-.348t.328-.145H12V3h-.625q-.258 0-.328-.145t.086-.348l.984-1.266q.156-.2.383-.2t.383.204l.984 1.267q.156.203.086.348T13.625 3H13v8h.625zM.633 1.008l.422.21q.094.04 1.648.04.344 0 1.03-.016t1.032-.016q.28 0 .84.004t.84.004h2.29q.046 0 .163.004t.16 0 .125-.023.137-.07.117-.137L9.765 1q.03 0 .11.004t.108.004Q10 1.883 10 3.633q0 .625-.04.852-.305.11-.53.14-.196-.343-.423-1-.023-.07-.086-.374t-.11-.57-.06-.277q-.045-.06-.092-.097t-.12-.047-.103-.02-.14-.005-.13.005q-.133 0-.52-.005T7.06 2.23t-.5.016-.554.047q-.07.633-.062 1.062 0 .734.016 3.03t.015 3.556q0 .128-.02.56t0 .717.098.54q.312.163.97.33t.936.294q.035.31.035.39 0 .11-.023.228l-.266.008q-.595.016-1.704-.062t-1.617-.078q-.392 0-1.18.07t-1.188.07l-.02-.41v-.07q.132-.21.48-.335t.77-.226.608-.21q.148-.33.148-2.993 0-.79-.023-2.366t-.02-2.367v-.914l.004-.12.004-.196-.008-.2-.023-.186-.04-.11q-.085-.092-1.265-.092-.258 0-.727.094t-.625.206q-.148.102-.266.566t-.246.868-.332.418q-.328-.203-.438-.344V1.02z" /></svg>