<svg xmlns="http://www.w3.org/2000/svg" viewBox="0 0 14 14"><path d="M4 9.75v1.5q0 .312-.22.53t-.53.22H.75q-.312 0-.53-.22T0 11.25v-1.5q0-.312.22-.53T.75 9h2.5q.312 0 .53.22t.22.53zm0-4v1.5q0 .312-.22.53T3.25 8H.75q-.312 0-.53-.22T0 7.25v-1.5q0-.312.22-.53T.75 5h2.5q.312 0 .53.22t.22.53zm5 4v1.5q0 .312-.22.53t-.53.22h-2.5q-.312 0-.53-.22T5 11.25v-1.5q0-.312.22-.53T5.75 9h2.5q.312 0 .53.22t.22.53zm-5-8v1.5q0 .312-.22.53T3.25 4H.75q-.312 0-.53-.22T0 3.25v-1.5q0-.312.22-.53T.75 1h2.5q.312 0 .53.22t.22.53zm5 4v1.5q0 .312-.22.53T8.25 8h-2.5q-.312 0-.53-.22T5 7.25v-1.5q0-.312.22-.53T5.75 5h2.5q.312 0 .53.22t.22.53zm5 4v1.5q0 .312-.22.53t-.53.22h-2.5q-.312 0-.53-.22t-.22-.53v-1.5q0-.312.22-.53t.53-.22h2.5q.312 0 .53.22t.22.53zm-5-8v1.5q0 .312-.22.53T8.25 4h-2.5q-.312 0-.53-.22T5 3.25v-1.5q0-.312.22-.53T5.75 1h2.5q.312 0 .53.22t.22.53zm5 4v1.5q0 .312-.22.53t-.53.22h-2.5q-.312 0-.53-.22T10 7.25v-1.5q0-.312.22-.53t.53-.22h2.5q.312 0 .53.22t.22.53zm0-4v1.5q0 .312-.22.53t-.53.22h-2.5q-.312 0-.53-.22T10 3.25v-1.5q0-.312.22-.53t.53-.22h2.5q.312 0 .53.22t.22.53z" /></svg>