<svg xmlns="http://www.w3.org/2000/svg" viewBox="0 0 12 14"><path d="M2 3.5q0-.203-.148-.352T1.5 3t-.352.148T1 3.5t.148.352T1.5 4t.352-.148T2 3.5zM11 8q0-.273-.168-.633T10.414 7q.117-.133.195-.37t.075-.435q0-.54-.414-.93.14-.25.14-.54t-.135-.573-.37-.41q.038-.234.038-.438 0-.664-.383-.984T8.5 2h-1q-1.023 0-2.672.57-.04.016-.227.082t-.274.098-.273.09-.296.086-.258.05T3.25 3H3v5h.25q.125 0 .277.07t.312.21.3.278.31.344.27.332.246.32.18.234q.43.53.602.71.32.337.464.856t.238.98.297.664q.75 0 1-.367T8 11.5q0-.46-.375-1.254T7.25 8.998H10q.39 0 .695-.3t.305-.7zm1 .008q0 .805-.594 1.398T10 10H8.625Q9 10.773 9 11.5q0 .922-.273 1.453-.273.54-.797.793T6.75 14q-.398 0-.703-.29-.266-.257-.422-.64t-.2-.707-.136-.66-.245-.5q-.375-.39-.836-.992Q3.422 9.19 3.14 9H1q-.414 0-.707-.293T0 8V3q0-.414.293-.707T1 2h2.25q.172 0 1.078-.312 1-.344 1.742-.516T7.633 1h.875q1.094 0 1.77.617t.668 1.688v.04q.47.6.47 1.39 0 .172-.024.336.297.526.297 1.128 0 .28-.07.54.38.577.38 1.272z" /></svg>