<svg xmlns="http://www.w3.org/2000/svg" viewBox="0 0 13 14"><path d="M2 4.5q0 .203-.148.352T1.5 5q-.21 0-.355-.148T1 4.5q0-.21.145-.355T1.5 4q.203 0 .352.145T2 4.5zm1.25 4v-5q0-.203-.148-.352T2.75 3H.5q-.203 0-.352.148T0 3.5v5q0 .203.148.352T.5 9h2.25q.203 0 .352-.148T3.25 8.5zm8.82-1.164q.43.477.43 1.164-.008.61-.45 1.055T11 10H8.836q.03.11.062.187t.086.172.078.14q.14.29.21.442t.15.457.077.6q0 .185-.008.303t-.04.352-.093.39-.187.353-.312.314-.47.203-.643.08q-.204 0-.353-.147-.156-.155-.266-.39t-.15-.406-.1-.477q-.07-.33-.106-.474t-.137-.38-.243-.373q-.258-.26-.79-.94-.382-.5-.788-.944t-.595-.46q-.195-.017-.336-.16t-.142-.34V3.5q0-.202.148-.347T4.25 3q.273-.007 1.234-.343.602-.203.94-.31t.95-.226T8.497 2h1.008q1.04.016 1.54.61.452.538.382 1.413.305.29.422.734.13.477 0 .914.355.48.332 1.07 0 .25-.117.598z" /></svg>