<svg xmlns="http://www.w3.org/2000/svg" viewBox="0 0 12 14"><path d="M2 10.5q0-.203-.148-.352T1.5 10t-.352.148T1 10.5t.148.352T1.5 11t.352-.148T2 10.5zM11 6q0-.398-.305-.7T10 5H7.25q0-.453.375-1.246T8 2.5q0-.766-.25-1.133T6.75 1q-.203.203-.297.664t-.238.98-.465.855q-.172.18-.602.71l-.18.23-.246.32-.27.33-.312.34-.3.272-.313.21-.277.07H3v5h.25q.102 0 .246.024t.258.052.297.084.28.09.28.1.23.08q1.65.57 2.676.57h.945q1.5 0 1.5-1.304 0-.2-.04-.436.236-.123.373-.41t.137-.57-.14-.54q.41-.39.41-.93 0-.196-.08-.435t-.2-.367q.25-.01.42-.37t.163-.63zm1-.008q0 .695-.383 1.273.07.258.07.54 0 .6-.297 1.124.023.16.023.33 0 .79-.47 1.39.01 1.08-.663 1.71T8.507 13H7.5q-.75 0-1.48-.176t-1.692-.512Q3.422 12 3.25 12H1q-.414 0-.707-.293T0 11V6q0-.414.293-.707T1 5h2.14q.282-.187 1.07-1.21.454-.587.837-1 .187-.196.277-.67t.238-.987.484-.844Q6.35 0 6.75 0q.655 0 1.18.254t.796.793T9 2.5q0 .727-.376 1.5H10q.812 0 1.405.594T12 5.992z" /></svg>