<svg xmlns="http://www.w3.org/2000/svg" viewBox="0 0 13 14"><path d="M2 10.5q0-.203-.148-.352T1.5 10q-.21 0-.355.148T1 10.5q0 .21.145.355T1.5 11q.203 0 .352-.145T2 10.5zm1.25-4v5q0 .203-.148.352T2.75 12H.5q-.203 0-.352-.148T0 11.5v-5q0-.203.148-.352T.5 6h2.25q.203 0 .352.148t.148.352zm9.25 0q0 .672-.43 1.164.117.344.117.594.023.594-.336 1.07.14.438 0 .914-.11.445-.42.734.07.875-.38 1.414-.5.594-1.54.61H8.5q-.517 0-1.126-.122t-.95-.227-.94-.3q-.96-.34-1.234-.35-.203-.01-.352-.15t-.148-.35V6.49q0-.195.14-.34t.337-.16q.187-.016.594-.46t.79-.946q.53-.68.79-.937.14-.14.24-.375t.14-.38.11-.472q.057-.305.1-.477t.153-.406.266-.39q.147-.15.35-.15.36 0 .646.083t.47.203.31.316.188.35.095.39.04.35 0 .31q0 .29-.074.59t-.15.47-.22.434q-.02.046-.074.14t-.09.175-.06.186H11q.61 0 1.056.444T12.5 6.5z" /></svg>