<svg xmlns="http://www.w3.org/2000/svg" viewBox="0 0 14 14"><path d="M8 3.53L10.47 6 6 10.47 3.53 8zm-1.648 7.65l4.828-4.828q.148-.148.148-.352t-.148-.352L8.352 2.82q-.14-.14-.352-.14t-.352.14L2.82 7.648q-.148.148-.148.352t.148.352l2.828 2.828q.14.14.352.14t.352-.14zm6.945-4.977L6.21 13.297q-.288.29-.706.29t-.707-.29l-.984-.984q.438-.438.438-1.062t-.433-1.06-1.062-.44-1.06.44L.71 9.208Q.42 8.917.42 8.5t.29-.708L7.798.715q.29-.29.707-.29t.707.29l.977.977q-.44.44-.44 1.064t.44 1.062 1.06.438 1.06-.438l.983.977q.29.29.29.708t-.29.708z" /></svg>