<svg xmlns="http://www.w3.org/2000/svg" viewBox="0 0 16 14"><path d="M9 7q0-.813-.316-1.55T7.83 4.17t-1.28-.853T5.002 3t-1.552.317-1.277.855-.855 1.277T1.002 7t.316 1.55.855 1.278 1.277.855T5 11t1.552-.317 1.277-.855.852-1.277T9 7zm6 0q0-.813-.316-1.55t-.854-1.28-1.278-.855T11.002 3H7.984q.93.704 1.473 1.75T10 7t-.54 2.25T7.985 11H11q.814 0 1.552-.315t1.277-.855.852-1.277.316-1.55zm1 0q0 1.016-.398 1.94t-1.066 1.595-1.594 1.066-1.94.4H5q-1.017 0-1.942-.4t-1.594-1.063T.4 8.94.002 7 .4 5.06t1.066-1.595T3.06 2.4 5 2h6q1.017 0 1.942.4t1.594 1.065 1.066 1.594T16 7z" /></svg>