<svg xmlns="http://www.w3.org/2000/svg" viewBox="0 0 15 14"><path d="M6.695 4.25v.914q0 .102-.074.172t-.173.07h-2.33v6.344q0 .102-.07.176t-.17.074H2.82q-.102 0-.176-.07t-.074-.18V5.406H.25q-.102 0-.176-.07T0 5.164V4.25q0-.11.07-.18T.25 4h6.195q.102 0 .176.074t.077.176zm8.11-.023l.602 7.508q.008.102-.062.187-.078.078-.18.078h-1.047q-.094 0-.164-.066t-.078-.16l-.36-4.594-1.476 3.32q-.062.148-.227.148h-.937q-.156 0-.227-.148L9.18 7.164l-.352 4.61q-.008.093-.078.16T8.586 12H7.53q-.1 0-.18-.08-.07-.078-.07-.187l.61-7.508q.008-.094.078-.16T8.132 4h1.11q.155 0 .226.148l1.72 4.063q.077.19.155.4.023-.054.074-.19t.082-.207l1.724-4.062q.07-.147.227-.147h1.103q.102 0 .172.066t.078.16z" /></svg>