<svg xmlns="http://www.w3.org/2000/svg" viewBox="0 0 13 14"><path d="M10 .25q0-.11.07-.18t.18-.07h2.25q.203 0 .352.148T13 .5v2.25q0 .11-.07.18t-.18.07h-.5q-.11 0-.18-.07T12 2.75V1.703l-1.984 1.992Q11 4.93 11 6.5q0 1.727-1.152 3.004T7 10.97V12h.75q.11 0 .18.07t.07.18v.5q0 .11-.07.18t-.18.07H7v.75q0 .11-.07.18t-.18.07h-.5q-.11 0-.18-.07T6 13.75V13h-.75q-.11 0-.18-.07T5 12.75v-.5q0-.11.07-.18t.18-.07H6v-1.03q-1.695-.188-2.848-1.466T2 6.5q0-1.57.984-2.805l-.406-.414-.79.87q-.07.08-.17.08t-.18-.06l-.376-.34Q.984 3.766.98 3.66t.066-.185l.82-.898L1 1.702V2.75q0 .108-.07.18T.75 3h-.5q-.11 0-.18-.07T0 2.75V.5Q0 .295.146.146T.5 0h2.25q.108 0 .18.07T3 .25v.5q0 .108-.07.18T2.75 1H1.71l.828.835.672-.734q.07-.073.172-.08t.18.06l.375.346q.078.062.082.168t-.07.185l-.704.772.444.44Q4.93 2 6.5 2t2.805.985L11.297 1H10.25q-.11 0-.18-.07T10 .75v-.5zM6.5 10q1.445 0 2.473-1.027T10 6.5 8.973 4.027 6.5 3 4.027 4.027 3 6.5t1.027 2.473T6.5 10z" /></svg>