<svg xmlns="http://www.w3.org/2000/svg" viewBox="0 0 12 14"><path d="M11.75 11.5q0 .203-.148.352T11.25 12H7.64q.01.133.048.684t.04.848q0 .195-.142.332T7.25 14h-2.5q-.195 0-.336-.136t-.14-.332q0-.297.038-.848T4.36 12H.75q-.203 0-.352-.148T.25 11.5t.148-.352L3.538 8H1.75q-.203 0-.352-.148T1.25 7.5t.148-.352L4.538 4H3q-.203 0-.352-.148T2.5 3.5t.148-.352l3-3Q5.796 0 6 0t.352.148l3 3q.148.148.148.352t-.148.352T9 4H7.46l3.142 3.148q.148.148.148.352t-.148.352T10.25 8H8.46l3.142 3.148q.148.148.148.352z" /></svg>