<svg xmlns="http://www.w3.org/2000/svg" viewBox="0 0 18 14"><path d="M5.086 7.79q0 .304-.215.52t-.51.214q-.3 0-.52-.215t-.21-.52q0-.3.22-.52t.52-.22q.298 0 .51.215t.218.512zm9.016-.01q0 .306-.215.52t-.52.216-.52-.215-.215-.52.215-.51.52-.21.52.21.215.52zm-8.125.01q0-.618-.44-1.063T4.47 6.282t-1.066.44-.44 1.067.44 1.06 1.066.44 1.066-.44.44-1.07zm9.007-.01q0-.624-.44-1.065t-1.067-.44q-.617 0-1.062.44T11.97 7.78t.44 1.067 1.067.44 1.066-.44.44-1.066zm-8.343.01q0 .905-.63 1.542t-1.54.638q-.9 0-1.54-.642t-.634-1.54.64-1.534 1.54-.637T6 6.254t.64 1.536zm9.02-.01q0 .9-.63 1.536t-1.542.637q-.9 0-1.535-.637t-.64-1.536.637-1.53 1.535-.638q.906 0 1.543.637t.637 1.53zm-7.53.025q0-1.492-1.06-2.55t-2.55-1.06q-.98 0-1.8.484T1.4 5.99.916 7.8 1.4 9.61t1.31 1.32 1.805.483q1.492 0 2.55-1.06t1.06-2.55zm5.22-4.477Q11.36 2.46 9 2.46q-2.492 0-4.477.86.914 0 1.742.355t1.426.957.96 1.43T9 7.804q0-.898.34-1.715t.92-1.41 1.388-.97 1.695-.39zm3.74 4.477q0-1.492-1.05-2.55t-2.544-1.06-2.55 1.06-1.06 2.55 1.06 2.55 2.55 1.06 2.547-1.06 1.056-2.55zm-2.08-4.422H18q-.344.398-.586.895t-.312.895q.86 1.18.86 2.633 0 1.22-.603 2.25t-1.64 1.63-2.24.597q-1.04 0-1.95-.438T10 10.635q-.36.435-1 1.395-.086-.172-.418-.645T8 10.625q-.625.773-1.535 1.215t-1.95.44q-1.21 0-2.24-.597T.64 10.053t-.6-2.25q0-1.452.858-2.632-.07-.39-.312-.89T0 3.38h2.852q1.164-.78 2.773-1.22T9 1.718q1.75 0 3.29.436t2.718 1.227z" /></svg>