<svg xmlns="http://www.w3.org/2000/svg" viewBox="0 0 14 14"><path d="M5 11q0-.406-.297-.703T4 10t-.703.297T3 11t.297.703T4 12t.703-.297T5 11zM2 7h3V5H3.766q-.102 0-.172.07L2.07 6.593q-.07.07-.07.172V7zm10 4q0-.406-.297-.703T11 10t-.703.297T10 11t.297.703T11 12t.703-.297T12 11zm2-8.5v8q0 .117-.03.207t-.106.145-.13.09-.183.047-.173.013-.2 0T13 11q0 .83-.586 1.415T11 13t-1.414-.585T9 11H6q0 .83-.586 1.415T4 13t-1.414-.585T2 11h-.5q-.023 0-.176.005t-.2 0-.175-.016-.187-.05-.13-.09-.104-.145T.5 10.5q0-.203.148-.352T1 10V7.5q0-.062-.004-.273t0-.297.02-.27.05-.29.11-.237.176-.234L2.9 4.35q.147-.148.394-.25T3.75 4H5V2.5q0-.203.15-.352T5.5 2h8q.204 0 .353.148T14 2.5z" /></svg>