<svg xmlns="http://www.w3.org/2000/svg" viewBox="0 0 9 14"><path d="M9 6.5q0 1.492-.738 2.758t-2.004 2.004T3.5 12H2.25q-.11 0-.18-.07T2 11.75V6.977l-1.68.516Q.297 7.5.25 7.5q-.078 0-.148-.046Q0 7.376 0 7.25v-1q0-.18.18-.24L2 5.453v-.727l-1.68.516q-.023.008-.07.008-.078 0-.148-.046Q0 5.126 0 5V4q0-.18.18-.24L2 3.203V1.25q0-.108.07-.18T2.25 1H3.5q.11 0 .18.07t.07.18v1.415l2.93-.906q.117-.04.22.037T7 2v1q0 .18-.18.243l-3.07.945v.727l2.93-.906q.118-.04.22.037t.102.203v1q0 .18-.18.243l-3.07.945v3.805q1.47-.102 2.484-1.18T7.252 6.5q0-.11.07-.18t.18-.07h1.25q.11 0 .18.07t.07.18z" /></svg>