<svg xmlns="http://www.w3.org/2000/svg" viewBox="0 0 14 14"><path d="M3.5 10.25v1.5q0 .11-.07.18t-.18.07h-1.5q-.11 0-.18-.07t-.07-.18v-1.5q0-.11.07-.18t.18-.07h1.5q.11 0 .18.07t.07.18zm-1.5-3v1.5q0 .11-.07.18T1.75 9H.25q-.11 0-.18-.07T0 8.75v-1.5q0-.11.07-.18T.25 7h1.5q.11 0 .18.07t.07.18zm4.5 3v1.5q0 .11-.07.18t-.18.07h-1.5q-.11 0-.18-.07t-.07-.18v-1.5q0-.11.07-.18t.18-.07h1.5q.11 0 .18.07t.07.18zm-1.5-3v1.5q0 .11-.07.18T4.75 9h-1.5q-.11 0-.18-.07T3 8.75v-1.5q0-.11.07-.18T3.25 7h1.5q.11 0 .18.07t.07.18zM.516 6q-.22 0-.367-.148T0 5.492V4.486h4.017v1.008q0 .21-.148.36T3.51 6H.518zM9.5 10.25v1.5q0 .11-.07.18t-.18.07h-1.5q-.11 0-.18-.07t-.07-.18v-1.5q0-.11.07-.18t.18-.07h1.5q.11 0 .18.07t.07.18zm-1.5-3v1.5q0 .11-.07.18T7.75 9h-1.5q-.11 0-.18-.07T6 8.75v-1.5q0-.11.07-.18T6.25 7h1.5q.11 0 .18.07t.07.18zm4.5 3v1.5q0 .11-.07.18t-.18.07h-1.5q-.11 0-.18-.07t-.07-.18v-1.5q0-.11.07-.18t.18-.07h1.5q.11 0 .18.07t.07.18zm-1.5-3v1.5q0 .11-.07.18t-.18.07h-1.5q-.11 0-.18-.07T9 8.75v-1.5q0-.11.07-.18T9.25 7h1.5q.11 0 .18.07t.07.18zm3-3.187v.102H9.984v-.078q0-.813-2.984-.797-2.984.008-2.984.797v.078H0v-.102q0-.133.066-.336t.266-.5.512-.59.863-.594 1.25-.527 1.75-.37T7 1t2.29.145 1.75.37 1.253.528.863.594.512.59.266.5.066.336zm0 3.187v1.5q0 .11-.07.18t-.18.07h-1.5q-.11 0-.18-.07T12 8.75v-1.5q0-.11.07-.18t.18-.07h1.5q.11 0 .18.07t.07.18zm0-2.766v1.008q0 .21-.148.36t-.36.147h-3q-.21 0-.358-.15t-.148-.36V4.484h4.016z" /></svg>