<svg xmlns="http://www.w3.org/2000/svg" viewBox="0 0 13 14"><path d="M12.656 3.188q-.523.766-1.266 1.305.008.11.008.328 0 1.02-.297 2.03t-.9 1.94-1.44 1.647-2.015 1.14-2.523.427Q2.1 12 .344 10.87q.273.03.61.03 1.757 0 3.132-1.077-.82-.015-1.47-.503t-.89-1.246q.258.04.477.04.336 0 .664-.086-.875-.18-1.45-.87t-.57-1.61v-.03q.53.295 1.14.32-.516-.346-.82-.9t-.306-1.2q0-.69.345-1.274.945 1.164 2.3 1.863t2.903.777q-.062-.297-.062-.578 0-1.047.738-1.785t1.785-.735q1.093 0 1.843.797.852-.164 1.602-.61-.29.9-1.11 1.39.728-.076 1.454-.39z" /></svg>