<svg xmlns="http://www.w3.org/2000/svg" viewBox="0 0 12 14"><path d="M.375 1.742q-.29-.016-.352-.03L0 1.02q.102-.007.312-.007.47 0 .875.03 1.03.056 1.297.056.672 0 1.313-.027.906-.03 1.14-.04.44 0 .673-.015l-.008.11.016.5v.07q-.47.07-.97.07-.468 0-.616.194-.102.11-.102 1.03 0 .103.004.255t.004.2l.008 1.79.11 2.186q.046.97.397 1.578.273.46.75.72.688.367 1.383.367.813 0 1.492-.22.438-.14.773-.394.38-.28.51-.5.28-.438.418-.89.164-.57.164-1.79 0-.617-.027-1t-.085-.957-.107-1.25l-.03-.46q-.04-.524-.188-.69-.262-.27-.6-.265l-.78.017-.11-.022.018-.675h.656l1.602.078q.593.024 1.53-.077l.14.017q.047.297.047.4 0 .054-.03.24-.354.095-.658.103-.57.086-.618.133-.116.116-.116.32 0 .054.013.21t.01.242q.06.147.17 3.093.05 1.524-.115 2.376-.117.593-.32.952-.297.508-.875.96-.588.446-1.424.696-.852.257-1.992.257-1.304 0-2.218-.36-.93-.366-1.398-.95-.48-.595-.65-1.524-.125-.625-.125-1.852v-2.6q0-1.47-.132-1.665-.193-.28-1.146-.305zM12 12.75v-.5q0-.11-.07-.18t-.18-.07H.25q-.11 0-.18.07t-.07.18v.5q0 .11.07.18t.18.07h11.5q.11 0 .18-.07t.07-.18z" /></svg>