<svg xmlns="http://www.w3.org/2000/svg" viewBox="0 0 11 14"><path d="M4.5 12l.75-3.5-.75-1-1-.5zm2 0l1-5-1 .5-.75 1zm1.25-7.89q-.016-.032-.03-.048Q7.64 4 6.97 4q-.548 0-1.306.148-.055.016-.164.016t-.164-.016Q4.578 4 4.03 4q-.67 0-.75.062-.015.016-.03.047.016.14.03.21.017.022.06.05t.06.082q.015.03.058.16t.055.16.06.133.065.133.07.108.094.105.11.075.136.062.16.03.19.016q.282 0 .462-.098t.254-.234.113-.27.09-.23.137-.097h.094q.086 0 .137.098t.09.23.113.27.254.235.46.098q.103 0 .192-.016t.16-.03.137-.063.11-.074.095-.105.07-.11.066-.132.06-.133.055-.16.06-.16q.015-.055.058-.082t.06-.05q.015-.07.03-.21zM11 10.976q0 .945-.57 1.484T8.914 13H2.086q-.945 0-1.516-.54T0 10.978q0-.477.035-.922t.148-.98.293-.965.496-.81.73-.58L1 5h1.67q-.17-.5-.17-1 0-.094.015-.25Q1 3.438 1 3q0-.445 1.64-.773.133-.484.402-1.047t.55-.89q.25-.29.595-.29.234 0 .656.242T5.5.484t.655-.242T6.81 0q.345 0 .595.29.28.327.55.89t.403 1.047q1.64.328 1.64.773 0 .438-1.515.75.055.633-.156 1.25H10l-.642 1.758q.492.258.84.754t.512 1.12.227 1.185.062 1.16z" /></svg>