<svg xmlns="http://www.w3.org/2000/svg" viewBox="0 0 16 14"><path d="M5.5 7q-1.242 0-2.12-.88T2.5 4t.88-2.12T5.5 1t2.12.88T8.5 4t-.88 2.12T5.5 7zM13 8h2.75q.102 0 .176.074T16 8.25v1.5q0 .102-.074.176T15.75 10H13v2.75q0 .102-.074.176T12.75 13h-1.5q-.102 0-.176-.074T11 12.75V10H8.25q-.102 0-.176-.074T8 9.75v-1.5q0-.102.074-.176T8.25 8H11V5.25q0-.102.074-.176T11.25 5h1.5q.102 0 .176.074T13 5.25V8zM7.25 9.75q0 .406.297.703t.703.297h2v1.86q-.53.39-1.336.39H2.086q-.945 0-1.516-.54T0 10.978q0-.414.027-.81t.11-.85.206-.85.336-.76.482-.634.668-.418.872-.156q.148 0 .305.132.617.477 1.207.715t1.285.238 1.283-.238 1.207-.715q.157-.133.306-.133 1.03 0 1.695.75H8.25q-.407 0-.704.295t-.297.703v1.5z" /></svg>