<svg xmlns="http://www.w3.org/2000/svg" viewBox="0 0 14 14"><path d="M13.984 4.133q.094 1.21-.41 2.28t-1.453 1.75T10 8.97V11h1.75q.11 0 .18.07t.07.18v.5q0 .11-.07.18t-.18.07H10v1.75q0 .11-.07.18t-.18.07h-.5q-.11 0-.18-.07T9 13.75V12H5v1.75q0 .11-.07.18t-.18.07h-.5q-.11 0-.18-.07T4 13.75V12H2.25q-.11 0-.18-.07T2 11.75v-.5q0-.11.07-.18t.18-.07H4V8.97q-1.172-.126-2.12-.806T.425 6.414t-.41-2.28Q.15 2.524 1.3 1.347T4.056.024Q5.666-.14 7 .758 8.336-.14 9.945.024q1.602.148 2.754 1.324t1.283 2.785zM7 6.945Q8 5.922 8 4.5T7 2.055Q6 3.078 6 4.5t1 2.445zM4.5 8q.898 0 1.703-.445Q5 6.265 5 4.5q0-1.75 1.203-3.055Q5.398 1 4.5 1 3.055 1 2.027 2.027T1 4.5t1.027 2.473T4.5 8zM9 11V8.97q-1.07-.118-2-.735-.93.617-2 .734V11h4zm.5-3q1.445 0 2.473-1.027T13 4.5t-1.027-2.473T9.5 1q-.898 0-1.703.445Q9 2.75 9 4.5q0 1.766-1.203 3.055Q8.602 8 9.5 8z" /></svg>