<svg xmlns="http://www.w3.org/2000/svg" viewBox="0 0 12 14"><path d="M11.695 6.46v1.55q-.79.18-1.547.18-.508 1.062-1.293 2.117T7.437 11.99t-1 .83q-.625.353-1.266-.022-.216-.133-.47-.34t-.664-.652-.8-1.004-.84-1.438-.825-1.906T.854 5t-.55-3.046h2.21q.203 1.703.547 3.113t.817 2.477.95 1.84 1.093 1.523q1.32-1.32 2.242-3.172-1.11-.563-1.742-1.72t-.633-2.6q0-1.5.813-2.458T8.82 0q1.39 0 2.132.824t.742 2.324q0 1.242-.453 2.234-.052.008-.15.023t-.36.016-.49-.044-.484-.2-.395-.4q.24-.806.24-1.44 0-.68-.225-1.03t-.617-.352q-.414 0-.664.387t-.25 1.098q0 1.453.82 2.293t2.086.84q.482 0 .943-.11z" /></svg>