<svg xmlns="http://www.w3.org/2000/svg" viewBox="0 0 13 14"><path d="M6 2.75v8.5q0 .203-.148.352t-.352.148-.352-.148L2.546 9H.5q-.204 0-.353-.148T0 8.5v-3q0-.203.147-.352T.5 5h2.046l2.602-2.602q.148-.148.352-.148t.352.148T6 2.75zM9 7q0 .594-.332 1.105t-.88.73q-.077.04-.194.04-.203 0-.352-.146t-.148-.36q0-.168.094-.28t.227-.196.266-.18.23-.277T8 7t-.094-.445-.227-.277-.27-.18-.228-.195-.095-.277q0-.21.15-.355t.35-.14q.118 0 .196.04.546.21.878.73T9 7.008zm2 0q0 1.195-.664 2.207T8.578 10.68q-.102.04-.195.04-.21 0-.36-.15t-.147-.35q0-.306.305-.462.44-.227.6-.344.58-.422.9-1.06T10 7t-.323-1.355-.902-1.06q-.156-.116-.594-.343-.3-.156-.3-.46 0-.204.15-.353t.35-.15q.1 0 .206.04 1.094.46 1.758 1.47T11 7zm2 0q0 1.797-.992 3.3t-2.64 2.216q-.103.04-.204.04-.203 0-.352-.15t-.148-.35q0-.282.305-.462.05-.03.17-.082t.173-.082q.36-.195.64-.398.96-.71 1.5-1.773T12 7t-.54-2.26-1.5-1.772q-.28-.204-.64-.4-.055-.03-.176-.08t-.176-.083q-.307-.18-.307-.46 0-.204.15-.353t.358-.148q.102 0 .203.04 1.648.71 2.64 2.214T13 7.003z" /></svg>