<svg xmlns="http://www.w3.org/2000/svg" viewBox="0 0 16 14"><path d="M4.53 3.602q0-.32-.194-.516T3.82 2.89q-.336 0-.594.2t-.258.512q0 .305.258.504t.594.2q.32 0 .516-.192t.195-.512zm5.806 3.96q0-.218-.2-.39T9.626 7q-.21 0-.387.176t-.178.387q0 .22.176.395t.386.176q.312 0 .512-.172t.2-.398zm-1.844-3.96q0-.32-.19-.516T7.79 2.89q-.338 0-.596.2t-.258.513q0 .305.258.504t.594.2q.32 0 .51-.192t.192-.512zm4.96 3.96q0-.218-.202-.39T12.742 7q-.21 0-.387.176t-.176.387q0 .22.173.395t.387.176q.306 0 .51-.172t.202-.398zm-2.077-3.1q-.242-.032-.547-.032-1.32 0-2.43.602t-1.746 1.63-.637 2.245q0 .61.18 1.187-.273.023-.53.023-.204 0-.392-.012t-.43-.05T4.495 10t-.426-.084-.394-.082l-1.977.992.563-1.703Q-.002 7.538-.002 5.296q0-1.32.762-2.43T2.822 1.12t2.84-.637Q7.037.483 8.26 1t2.047 1.425 1.066 2.035zM16 8.842q0 .915-.535 1.747t-1.45 1.51l.43 1.414-1.554-.852q-1.17.29-1.7.29-1.32 0-2.43-.552t-1.746-1.495-.637-2.062.637-2.062T8.76 5.287t2.43-.55q1.257 0 2.366.55t1.777 1.5.668 2.06z" /></svg>