<svg xmlns="http://www.w3.org/2000/svg" viewBox="0 0 14 14"><path d="M5.273 10.03q.164-.265.086-.538T5 9.102q-.266-.11-.57-.01t-.47.36q-.17.266-.1.535t.335.395.582.02.487-.37zm.735-.944q.062-.102.027-.207t-.137-.15q-.11-.04-.223 0t-.168.14q-.133.24.102.35.1.04.22-.01T6 9.08zm1.36.836q-.353.797-1.235 1.172t-1.75.094q-.836-.266-1.152-.988t.06-1.465q.37-.727 1.19-1.086t1.64-.15q.87.22 1.24.93t.02 1.49zm2.437-1.25q-.07-.75-.695-1.328t-1.63-.852-2.144-.164q-1.742.18-2.887 1.105T1.41 9.5q.07.75.695 1.327t1.628.852 2.145.16q1.743-.18 2.888-1.11t1.037-2.06zm2.406.03q0 .532-.28 1.09t-.85 1.07-1.31.92T8 12.43t-2.114.24-2.15-.26-1.88-.73T.51 10.5 0 8.942q0-.897.543-1.913t1.543-2.02q1.32-1.32 2.668-1.85t1.926.05q.508.5.156 1.63-.03.11-.008.15t.078.053.113-.003.1-.027L7.16 5q1.08-.46 1.92-.46t1.19.476q.353.49 0 1.39-.015.102-.034.156t.034.1.095.06.132.045q.446.14.806.368t.623.635.266.91zm-.57-4.874q.33.367.43.848t-.05.918q-.06.18-.23.266t-.35.03q-.18-.06-.26-.23t-.03-.347q.16-.492-.19-.867t-.83-.273q-.186.04-.35-.062t-.196-.28q-.04-.18.06-.35t.29-.2q.468-.1.93.05t.788.51zm1.42-1.273q.68.75.88 1.738t-.11 1.887q-.07.21-.26.312t-.402.03-.316-.265-.04-.406q.22-.64.08-1.34t-.626-1.23q-.482-.54-1.154-.74t-1.35-.07q-.22.05-.41-.07t-.232-.34.074-.4.34-.23q.96-.2 1.904.09t1.627 1.05z" /></svg>