<svg xmlns="http://www.w3.org/2000/svg" viewBox="0 0 12 14"><path d="M7.695 7.61q.102 0 .762.343t.7.414q.015.04.015.117 0 .258-.133.594-.13.305-.56.512t-.797.207q-.445 0-1.484-.484-.766-.352-1.328-.922T3.72 6.95q-.564-.836-.556-1.516v-.06q.023-.71.578-1.235.187-.174.406-.174.047 0 .14.012t.15.01q.147 0 .206.05t.12.216q.063.156.26.688t.194.587q0 .164-.27.45t-.27.362q0 .054.04.116.265.57.796 1.07.438.413 1.18.79.094.053.172.053.117 0 .422-.38t.406-.38zM6.11 11.75q.99 0 1.9-.39t1.567-1.048 1.047-1.566.39-1.902-.39-1.902-1.047-1.566T8.01 2.33t-1.9-.392-1.903.39-1.567 1.05T1.595 4.94t-.39 1.902q0 1.586.936 2.875l-.613 1.82 1.89-.604q1.235.813 2.696.813zm0-10.797q1.194 0 2.284.47t1.88 1.257 1.257 1.88.47 2.284-.47 2.285-1.253 1.874-1.88 1.258-2.284.47q-1.523 0-2.852-.735L0 13.05l1.06-3.164q-.843-1.39-.843-3.04 0-1.194.47-2.284t1.257-1.88 1.88-1.257 2.284-.47z" /></svg>