<svg xmlns="http://www.w3.org/2000/svg" viewBox="0 0 13 14"><path d="M7.992 9.273l.797 1.594q-.456 1.398-1.644 2.266T4.5 14q-1.22 0-2.254-.605t-1.64-1.64T0 9.5q0-1.414.816-2.578T2.96 5.274l.134 1.023Q2.14 6.72 1.57 7.59T1 9.5q0 1.445 1.028 2.473T4.5 13q.985 0 1.817-.508t1.29-1.37.386-1.85zm4.28.782l.454.89-2 1Q10.624 12 10.5 12q-.314 0-.447-.27L8.187 8H4.5q-.187 0-.332-.128T4 7.556L3.25 1.47q-.016-.125.047-.328.11-.398.445-.645T4.5.25q.516 0 .883.368t.367.883q0 .54-.406.92t-.937.325L4.697 5H8v1H4.82l.126 1H8.5q.313 0 .446.274l1.78 3.555z" /></svg>