<svg xmlns="http://www.w3.org/2000/svg" viewBox="0 0 14 14"><path d="M.992 7q0-1.273.523-2.445l2.867 7.852q-1.53-.742-2.46-2.195t-.93-3.21zm10.063-.305q0 .148-.02.3t-.078.388-.09.344-.137.46-.137.454l-.594 2-2.174-6.45q.36-.023.688-.062.148-.016.203-.145t-.02-.24-.223-.106l-1.602.078q-.586-.008-1.578-.078-.094-.008-.16.04t-.09.116-.012.145.07.13.152.06l.625.063.936 2.564-1.313 3.94-2.188-6.5q.36-.024.688-.063.148-.015.203-.144t-.02-.242-.223-.105l-1.602.077q-.054 0-.18-.004t-.202-.005q.82-1.25 2.144-1.98t2.87-.73q1.15 0 2.192.414t1.863 1.163h-.08q-.43 0-.718.316t-.29.746q0 .094.016.187t.03.168.062.18.07.165.094.176.098.165.113.187.11.18q.49.837.49 1.657zm-3.953.828l1.852 5.055q.008.047.04.086-.985.344-1.993.344-.873 0-1.693-.25zm5.164-3.406q.742 1.36.742 2.883 0 1.633-.813 3.012t-2.18 2.176L11.85 6.89q.462-1.32.462-2.155 0-.328-.047-.617zM7 0q1.422 0 2.72.555t2.233 1.492 1.492 2.234T14 7t-.555 2.72-1.492 2.233-2.234 1.492T7 14t-2.72-.555-2.233-1.492T.555 9.72 0 7t.555-2.72 1.492-2.233T4.28.555 7 0zm0 13.68q1.352 0 2.59-.53t2.133-1.427T13.15 9.59 13.68 7t-.53-2.59-1.427-2.133T9.59.85 7 .32 4.41.85 2.277 2.278.85 4.41.32 7t.53 2.59 1.427 2.133T4.41 13.15t2.59.53z" /></svg>