<svg xmlns="http://www.w3.org/2000/svg" viewBox="0 0 12 14"><path d="M7.18 10.18V8.953q0-.39-.227-.39-.133 0-.258.124v1.75q.125.125.258.125.227 0 .227-.383zm1.437-.953h.516V8.96q0-.397-.258-.397t-.258.398v.27zm-4.46-2.08v.548H3.53V11h-.577V7.695h-.61v-.547h1.813zm1.57.986V11h-.523v-.312q-.305.352-.594.352-.258 0-.328-.22-.047-.124-.047-.42V8.132h.516v2.11q0 .186.01.202.01.117.12.117.16 0 .33-.24V8.13h.527zM7.695 9v1.14q0 .407-.055.57-.094.33-.414.33-.273 0-.53-.32V11H6.17V7.148h.523v1.258q.25-.312.53-.312.32 0 .415.328.055.164.055.578zm1.96 1.008v.07q0 .227-.015.336-.023.172-.117.312-.21.312-.625.312-.406 0-.633-.297-.164-.21-.164-.67V9.06q0-.46.16-.67.23-.298.63-.298t.61.297q.165.21.165.67v.59H8.62v.51q0 .4.266.4.187 0 .234-.21l.003-.055.005-.13V10h.53zM6.135 3.57v1.22q0 .397-.25.397t-.25-.398V3.57q0-.406.25-.406t.25.406zm4.163 5.57q0-1.382-.148-2.03-.08-.344-.337-.574t-.594-.27Q8.15 6.15 6 6.15q-2.148 0-3.21.116-.345.04-.6.27t-.33.574q-.157.68-.157 2.03 0 1.376.156 2.032.07.336.33.57t.59.273q1.07.117 3.22.117t3.22-.117q.33-.04.59-.273t.33-.57q.15-.656.15-2.03zm-5.9-5.085l.704-2.313h-.585L4.12 3.265l-.415-1.523h-.61l.188.54.18.538q.274.805.36 1.234v1.57H4.4v-1.57zm2.26.632V3.67q0-.452-.165-.68-.227-.296-.61-.296-.397 0-.608.297-.164.23-.164.68v1.02q0 .46.17.68.21.3.61.3.38 0 .61-.292.166-.21.166-.68zm1.413.938h.53v-2.89h-.53v2.21q-.17.242-.324.242-.117 0-.125-.125-.01-.016-.01-.203V2.73h-.53v2.29q0 .288.048.43.086.21.336.21.28 0 .6-.352v.313zM12 3.25v7.5q0 .93-.66 1.59T9.75 13h-7.5q-.93 0-1.59-.66T0 10.75v-7.5q0-.93.66-1.59T2.25 1h7.5q.93 0 1.59.66T12 3.25z" /></svg>