<svg xmlns="http://www.w3.org/2000/svg" viewBox="0 0 14 14"><path d="M10 7q0-.29-.234-.422l-4-2.5q-.242-.156-.508-.016Q5 4.202 5 4.5v5q0 .297.258.438.125.062.242.062.156 0 .266-.078l4-2.5Q10 7.29 10 7zm4 0q0 .75-.008 1.172t-.066 1.066-.176 1.152q-.125.57-.54.96t-.968.454Q10.508 12 7 12t-5.242-.196q-.555-.062-.973-.453t-.543-.96q-.11-.506-.168-1.15T.008 8.17 0 7t.008-1.172.066-1.066T.25 3.61q.125-.57.54-.96t.968-.454Q3.492 2 7 2t5.242.196q.555.062.973.453t.543.96q.11.506.168 1.15t.066 1.066T14 7z" /></svg>