<svg xmlns="http://www.w3.org/2000/svg" viewBox="0 0 12 14"><path d="M7.586 9.72v1.647q0 .523-.305.523-.18 0-.35-.172V9.366q.17-.172.35-.172.31 0 .31.523zm2.64.007v.36h-.702v-.36q0-.53.352-.53t.352.53zM2.68 8.023h.836V7.29H1.078v.733h.82v4.445h.78V8.023zm2.25 4.446h.695V8.61H4.93v2.953q-.234.328-.445.328-.14 0-.164-.16V8.61h-.7v3.055q0 .383.06.57.1.29.46.29.38 0 .8-.478v.422zm3.35-1.16V9.77q0-.57-.07-.77-.132-.438-.554-.438-.39 0-.727.422V7.29h-.7v5.18h.69v-.375q.35.43.72.43.42 0 .55-.43.07-.21.07-.78zm2.642-.08v-.1h-.71q0 .39-.017.47-.055.28-.312.28-.36 0-.36-.54v-.68h1.4v-.8q0-.62-.212-.91-.3-.4-.82-.4-.53 0-.83.392-.22.29-.22.906V11.2q0 .615.23.904.31.4.85.4.564 0 .845-.42.14-.21.163-.42.017-.07.017-.456zM6.172 4.1V2.46q0-.538-.336-.538t-.336.54V4.1q0 .547.336.547t.336-.548zm5.617 5.867q0 1.827-.21 2.733-.11.46-.46.774t-.8.36q-1.44.163-4.34.163t-4.337-.165q-.45-.047-.8-.36T.41 12.7q-.2-.872-.2-2.73 0-1.83.204-2.735.11-.46.453-.773t.805-.367Q3.102 5.94 6 5.94t4.336.155q.453.055.8.367t.45.773q.203.875.203 2.734zM3.99 0h.797L3.84 3.117v2.117h-.78V3.117q-.11-.578-.477-1.656Q2.296.66 2.078 0h.828l.555 2.055zm2.89 2.602V3.97q0 .632-.218.92-.29.4-.828.4-.523 0-.82-.4-.22-.296-.22-.92V2.6q0-.625.22-.914.297-.398.82-.398.54 0 .828.398.22.29.22.914zM9.5 1.336v3.898h-.71v-.43q-.415.484-.806.484-.36 0-.46-.29-.063-.186-.063-.585V1.335h.72v2.867q0 .258.01.273.03.172.17.172.21 0 .45-.336V1.34h.71z" /></svg>