<svg xmlns="http://www.w3.org/2000/svg" viewBox="0 0 10 14"><path d="M7.445 2.953l-.89 2.563.913.164q1.29-3.523 1.29-4.047 0-.438-.298-.438-.445 0-1.016 1.758zM5.11 8.32l.257.688q.29-.328.555-.523l-.258-.043-.3-.055-.255-.066zm-2.282-7q0 .766 1.242 4.07.14-.078.383-.078.117 0 .586.04L4.09 2.61Q3.508.89 3.132.89q-.15 0-.226.137t-.078.293zM2.21 7.25q0 .28.403.93t.918 1.195.79.547q.11 0 .2-.102t.09-.21q0-.188-.25-.798-.1-.25-.25-.563t-.37-.7-.48-.64-.48-.25q-.156 0-.355.21t-.2.37zM.978 9.867q0 .32.195.813.46 1.133 1.434 1.773t2.2.64q1.772 0 2.983-1.327 1.186-1.32 1.186-3.336 0-.336-.008-.523t-.09-.484-.238-.438q-.438-.383-1.652-.59t-2.113-.207q-.29 0-.383.086-.094.04-.094.273 0 .266.168.47t.434.31.605.185.684.09.66.03.54 0h.18q.183 0 .31.15.12.147.15.43-.22.218-.75.42-.48.173-.73.36-.5.36-.85.89t-.348 1.07q0 .243.145.692t.145.684l-.02.094q-.03.094-.03.11-1.07-.08-1.143-1.69-.06.017-.32.017.016.05.016.16 0 .41-.316.7T3.2 12q-.64 0-1.3-.61t-.66-1.24q0-.267.258-.524.408.5.47.594.603.813 1.04.813.094 0 .207-.067t.113-.16q0-.264-.686-1.13t-.91-.867q-.335 0-.546.35t-.21.71zm-.89.07q0-.79.33-1.273t1.067-.688q-.22-.578-.22-.813 0-.484.478-.96t.953-.478q.227 0 .547.117-1.273-3.61-1.273-4.43 0-.625.32-1.02t.93-.395q1.022 0 2.538 4.54.047.132.062.18l.227-.622.34-.926.422-1 .5-.96.55-.68.6-.28q.55 0 .87.38t.32.95q0 .842-1.24 4.295.47.117.78.36t.454.61.203.73.054.862q0 1.17-.367 2.185t-1.03 1.76-1.65 1.17-2.17.43q-.87 0-1.744-.33-1.15-.433-2-1.483T.086 9.934z" /></svg>