<svg xmlns="http://www.w3.org/2000/svg" viewBox="0 0 12 14"><path d="M8.75 7.25q0 .094-.078.187L6.18 9.93Q6.094 10 6 10t-.18-.07l-2.5-2.5q-.117-.126-.055-.274Q3.327 7 3.5 7H5V4.25q0-.11.07-.18T5.25 4h1.5q.108 0 .18.07t.07.18V7h1.5q.108 0 .18.07t.07.18zM6 2.75q-1.156 0-2.133.57T2.32 4.867 1.75 7t.57 2.133 1.547 1.547T6 11.25t2.133-.57T9.68 9.133 10.25 7t-.57-2.133T8.133 3.32 6 2.75zM12 7q0 1.633-.805 3.012T9.01 12.196 6 13t-3.013-.804-2.184-2.184T-.002 7t.805-3.012 2.184-2.184T6 1t3.01.804 2.185 2.184T12 7z" /></svg>