<svg xmlns="http://www.w3.org/2000/svg" viewBox="0 0 16 14"><path d="M12.172 6.656Q12.65 9.436 14.5 11q0 .406-.297.703T13.5 12H10q0 .828-.586 1.414T8 14t-1.41-.582-.59-1.41zM8 13.376q.125 0 .125-.126T8 13.125q-.46 0-.793-.332T6.875 12q0-.125-.125-.125T6.625 12q0 .57.402.973t.973.402zm7.828-12.5q.062.077.06.183t-.083.174L1.18 13.907q-.078.062-.184.055t-.168-.086l-.656-.75q-.062-.078-.06-.184t.083-.168l1.453-1.258Q1.5 11.266 1.5 11q.39-.328.71-.688t.665-.934.582-1.238.39-1.61T4 4.5q0-1.187.914-2.207t2.398-1.238Q7.25.907 7.25.75q0-.312.22-.53T8 0t.53.22.22.53q0 .156-.062.305.97.14 1.71.645t1.157 1.23L14.82.094q.08-.062.185-.055t.168.084z" /></svg>