<svg xmlns="http://www.w3.org/2000/svg" viewBox="0 0 16 14"><path d="M8.125 13.25q0-.125-.125-.125-.46 0-.793-.332T6.875 12q0-.125-.125-.125T6.625 12q0 .57.402.973t.973.402q.125 0 .125-.125zM3.93 9.54l6.852-5.94q-.328-.687-1.035-1.144T8 2q-.726 0-1.323.245t-.95.63-.538.804T5 4.5q0 3-1.07 5.038zM14.5 11q0 .406-.297.703T13.5 12H10q0 .828-.586 1.414T8 14t-1.41-.582-.59-1.41L7.164 11h5.914q-1.297-1.46-1.773-3.586l.867-.758Q12.65 9.436 14.5 11zM15.172.125l.656.75q.062.078.06.184t-.083.174L1.18 13.907q-.078.062-.184.055t-.168-.086l-.656-.75q-.062-.078-.06-.184t.083-.168l1.453-1.258Q1.5 11.266 1.5 11q.39-.328.71-.688t.665-.934.582-1.238.39-1.61T4 4.5q0-1.187.914-2.207t2.398-1.238Q7.25.907 7.25.75q0-.312.22-.53T8 0t.53.22.22.53q0 .156-.062.305.97.14 1.71.645t1.157 1.23L14.82.094q.08-.062.185-.055t.168.084z" /></svg>