<svg xmlns="http://www.w3.org/2000/svg" viewBox="0 0 11 14"><path d="M6.367 6.71q.062.493-.395.79t-.87.047q-.306-.133-.42-.453t-.003-.64.4-.454q.28-.14.56-.094t.5.277.21.527zm.867-.163q-.11-.836-.883-1.28t-1.53-.103q-.49.22-.78.69t-.27 1.013q.03.71.608 1.21t1.294.44q.71-.063 1.188-.657t.39-1.313zm1.868-4.234q-.156-.21-.438-.348t-.453-.172-.55-.098q-2.27-.367-4.42.016-.33.06-.51.1t-.43.17-.39.34q.236.22.596.36t.575.17.685.09q1.78.23 3.5.01.49-.06.7-.092t.564-.17.586-.36zm.445 8.085q-.062.203-.12.598t-.11.656-.223.547-.453.44q-.67.37-1.48.56t-1.57.17-1.57-.15q-.36-.06-.633-.14t-.6-.21-.57-.34-.405-.48q-.195-.75-.445-2.28l.045-.13.14-.07q1.74 1.15 3.96 1.15t3.963-1.15q.163.045.186.18t-.04.35-.06.29zM10.96 2.89q-.202 1.306-.866 5.118-.04.234-.21.438t-.34.312T9.116 9q-1.97.984-4.766.688-1.936-.21-3.077-1.086-.117-.094-.2-.207T.94 8.122t-.07-.266-.045-.31-.043-.272q-.07-.39-.206-1.172T.354 4.84.172 3.688 0 2.454q.022-.203.136-.38t.246-.292.352-.234.36-.176.374-.145q.977-.36 2.445-.5 2.96-.29 5.28.39 1.212.36 1.68.954.126.16.13.4t-.043.42z" /></svg>