<svg xmlns="http://www.w3.org/2000/svg" viewBox="0 0 10 14"><path d="M9.117 5q.14 1.422-1.023 2.016.914.22 1.367.805t.36 1.68q-.05.56-.25.98t-.503.698-.76.457-.95.27-1.135.118V14h-1.2v-1.96q-.625 0-.953-.008v1.97H2.85V12.01q-.14 0-.422-.006T2 12H.437l.242-1.43h.86q.39 0 .45-.397v-3.14h.122q-.047-.01-.125-.01v-2.24q-.1-.533-.695-.533h-.86V2.97l1.656.008q.5 0 .76-.008V1h1.204v1.93q.64-.015.953-.015V1h1.2v1.97q.614.055 1.09.176t.884.352.645.61.285.894zm-1.68 4.258q0-.28-.116-.5t-.28-.36-.45-.237-.51-.14-.58-.07-.54-.02-.5.01-.37.01v2.64l.29.006.374.004.413-.01.458-.03.447-.07.434-.11.37-.163.31-.234.19-.312.072-.395zm-.554-3.72q0-.257-.098-.456t-.238-.328-.375-.22-.43-.128-.48-.062-.453-.02-.43.008-.31.004v2.398q.04 0 .27.004t.36 0 .39-.016.43-.043.403-.09.38-.15.29-.21.21-.3.07-.4z" /></svg>