<svg xmlns="http://www.w3.org/2000/svg" viewBox="0 0 16 14"><path d="M14.25 7q.727 0 1.238.512T16 8.75v3q0 .11-.07.18t-.18.07H15v.5q0 .625-.438 1.062T13.5 14t-1.062-.438T12 12.5V12H4v.5q0 .625-.438 1.062T2.5 14t-1.062-.438T1 12.5V12H.25q-.11 0-.18-.07T0 11.75v-3q0-.727.512-1.238T1.75 7h.22l.82-3.273q.18-.734.812-1.23T5 2h1V.25q0-.108.07-.18T6.25 0h3.5q.11 0 .18.07t.07.18V2h1q.766 0 1.398.497t.813 1.23L14.03 7h.22zM2.5 10.75q.516 0 .883-.367T3.75 9.5t-.367-.883T2.5 8.25t-.883.367-.367.883.367.883.883.367zM4.03 7h7.938l-.695-2.79q-.016-.06-.11-.136T11 4H5q-.07 0-.164.074t-.11.137zm9.47 3.75q.516 0 .883-.367t.367-.883-.367-.883-.883-.367-.883.367-.367.883.367.883.883.367z" /></svg>