<svg xmlns="http://www.w3.org/2000/svg" viewBox="0 0 18 14"><path d="M.93 5.328h.695l-.352-.844zm4.85 4.11l.58-.617-.548-.616H4.54v.383h1.108v.43h-1.11v.422h1.243zm1.236-.61l.773.86V7.99zm2.25-.367q0-.257-.312-.257h-.656v.54h.648q.32 0 .32-.282zm2.257-.03q0-.227-.328-.227h-.64v.477h.632q.336 0 .336-.25zm-2.17-3.64q0-.228-.33-.228h-.64v.47h.633q.336 0 .336-.243zm3.585.538h.695l-.344-.844zM5.46 4.118v2.116h-.515V4.578L4.21 6.234h-.444l-.734-1.656v1.656h-1.03l-.196-.47H.75l-.194.47H.01l.905-2.117h.75l.86 2.008V4.117h.827l.664 1.438.602-1.438h.844zM9.806 8.46q0 .157-.043.274t-.11.195-.175.128-.203.078-.246.035-.246.01-.254-.005-.23-.004v.712h-.984L6.69 9.18l-.65.702h-2V7.765h2.032l.625.695.64-.695h1.618q.852 0 .852.695zM7.53 5.798v.438H5.837V4.118H7.53v.445H6.345v.383H7.5v.43H6.344v.422H7.53zM18 10.164v1.79q0 .43-.3.737t-.73.31H1.03q-.43 0-.73-.31t-.3-.737V6.656h.866l.195-.477h.43l.195.476H3.39v-.36l.15.36h.882l.156-.367v.366h4.227v-.773l.078-.008q.078 0 .078.11v.67h2.18v-.18q.18.095.43.142t.41.05.493-.003.402-.008l.195-.477h.438l.195.476h1.773v-.453l.266.453h1.422V3.703h-1.406v.344l-.195-.344h-1.445v.344l-.18-.344h-1.945q-.54 0-.852.172v-.172H9.798v.172q-.187-.172-.57-.172H4.32l-.335.758-.336-.757H2.1v.344l-.172-.344H.61L0 5.1V2.047q0-.43.302-.738t.73-.31H16.97q.43 0 .73.31t.3.738v5.297h-.937q-.398 0-.633.172v-.172h-1.383q-.43 0-.61.172v-.172H11.97v.172q-.243-.172-.68-.172H9.655v.172q-.18-.172-.71-.172h-1.83l-.42.453-.392-.453H3.577v2.953h2.68l.43-.46.406.46H8.74V9.6h.165q.46 0 .703-.1v.796h1.36v-.773h.06q.063 0 .08.016t.015.077v.68h4.133q.445 0 .688-.187v.187h1.313q.47 0 .742-.133zm-5.922-1.828q0 .18-.094.336t-.266.227q.195.07.266.202t.07.36v.42h-.508v-.35q0-.26-.094-.34t-.36-.083h-.538v.772h-.508V7.765h1.203q.374 0 .6.117t.228.453zm-2.164-3.65q0 .188-.098.345t-.262.228q.203.07.27.2t.066.362v.414h-.508q0-.07.004-.207t0-.195-.023-.145-.066-.125-.137-.066-.23-.027h-.547v.765h-.5V4.118l1.195.008q.383 0 .61.113t.226.448zm4.133 4.76v.437H12.36V7.766h1.687v.438h-1.18v.383h1.156v.43h-1.156v.422zm-3.328-5.33v2.118h-.517V4.117h.516zm5.413 5.095q0 .673-.797.673h-.984V9.43h.984q.266 0 .266-.195 0-.125-.133-.164t-.325-.038-.387-.027-.328-.176-.133-.43q0-.306.203-.47t.516-.164h1.016v.445h-.93q-.28 0-.28.196 0 .125.136.16t.328.03.383.02.327.17.137.425zM18 8.82v.79q-.187.272-.688.272h-.977V9.43h.977q.258 0 .258-.196 0-.102-.098-.148t-.242-.043-.312-.016-.312-.062-.242-.187-.098-.38q0-.304.207-.468t.52-.164H18v.445h-.92q-.282 0-.282.196 0 .156.227.172t.535.04.44.202zm-1.29-4.695v2.11h-.718l-.953-1.587v1.586h-1.032l-.203-.47h-1.047l-.195.47h-.586q-1.008 0-1.008-1.04 0-1.077 1.038-1.077h.492v.46q-.055 0-.22-.007t-.222-.004-.18.016-.168.05-.113.106-.09.18-.023.262q0 .297.105.453t.386.156h.227l.72-1.665h.757l.852 2v-2h.773l.89 1.47v-1.47h.517z" /></svg>