<svg xmlns="http://www.w3.org/2000/svg" viewBox="0 0 18 14"><path d="M12.477 7.055q0 .54-.164.828-.148.273-.406.273-.18 0-.32-.07v-1.75q.227-.234.445-.234.445 0 .445.953zm3.42-.282h-.858q.046-.766.437-.766.398 0 .422.766zM3.72 7.828q0-.46-.26-.715t-.788-.45q-.28-.1-.406-.186t-.125-.195q0-.203.298-.203.453 0 .97.257l.14-.875q-.523-.25-1.164-.25-.602 0-.96.297-.376.304-.376.85 0 .454.254.708t.777.44q.304.11.425.2t.12.215q0 .242-.374.242-.226 0-.546-.098T1.14 7.83L1 8.71q.563.32 1.312.32.633 0 1.008-.29.398-.32.398-.913zm2.303-1.68l.148-.867h-.75V4.227l-1.007.164-.14.89-.36.063-.133.805h.484v1.71q0 .657.344.938.297.234.867.234.25 0 .617-.086v-.922q-.25.055-.344.055-.328 0-.328-.39v-1.54h.602zm2.47.196V5.258q-.118-.023-.22-.023-.25 0-.434.125t-.263.36L7.5 5.28H6.475v3.68h1.172V6.57q.203-.242.64-.242.126 0 .204.016zM8.78 8.96h1.173V5.28H8.78v3.68zm4.86-1.944q0-.953-.35-1.398-.313-.406-.868-.406-.5 0-.914.438l-.062-.367h-1.03v5.04l1.17-.196v-1.18q.282.086.532.086.648 0 1.047-.438.477-.508.477-1.578zm-3.656-2.72q0-.257-.18-.437t-.438-.18-.438.18-.18.437.18.44.438.185.438-.184.18-.44zM17 7.087q0-.883-.375-1.375-.39-.5-1.125-.5-.75 0-1.184.517t-.434 1.406q0 1 .492 1.47.43.43 1.258.43.79 0 1.25-.313l-.125-.805q-.445.242-1 .242-.336 0-.492-.148-.18-.15-.22-.517h1.938q.016-.11.016-.406zM18 2v10q0 .406-.297.703T17 13H1q-.406 0-.703-.297T0 12V2q0-.406.297-.703T1 1h16q.406 0 .703.297T18 2z" /></svg>