<svg xmlns="http://www.w3.org/2000/svg" viewBox="0 0 12 14"><path d="M10.75 7l1.078 1.055q.234.22.156.547-.094.32-.406.398l-1.47.375.415 1.453q.094.32-.148.547-.227.242-.547.148l-1.453-.414L8 12.577q-.078.312-.398.406-.094.016-.148.016-.242 0-.398-.172L6 11.75l-1.054 1.078q-.22.234-.547.156-.32-.086-.4-.406l-.374-1.47-1.453.415q-.32.094-.547-.148-.242-.227-.148-.547l.414-1.453L.422 9q-.31-.078-.405-.398-.078-.328.156-.547L1.25 7 .174 5.945q-.234-.22-.156-.547Q.11 5.078.423 5l1.47-.375-.415-1.453q-.094-.32.148-.547.227-.242.547-.148l1.453.414L4 1.423q.08-.32.4-.398.32-.094.546.148L6 2.258l1.056-1.086q.227-.234.547-.148.32.078.398.398l.376 1.47 1.453-.415q.32-.094.546.148.242.227.148.547l-.414 1.453L11.58 5q.31.078.405.398.078.328-.156.547z" /></svg>