<svg xmlns="http://www.w3.org/2000/svg" viewBox="0 0 14 14"><path d="M1.688 9.133l4.71 3.14V9.47L3.79 7.726zm-.485-1.125L2.71 7 1.204 5.992v2.016zm6.4 4.265l4.71-3.14-2.102-1.407-2.608 1.742v2.805zM7 8.423L9.125 7 7 5.578 4.875 7zm-3.21-2.15L6.397 4.53V1.727l-4.71 3.14zm7.5.727l1.507 1.008V5.992zm-1.08-.727l2.103-1.406-4.71-3.14V4.53zM14 4.867v4.266q0 .32-.266.5L7.336 13.9Q7.172 14 7 14t-.336-.1L.266 9.632Q0 9.453 0 9.133V4.867q0-.32.266-.5L6.664.1Q6.828 0 7 0t.336.1l6.398 4.267q.266.18.266.5z" /></svg>