<svg xmlns="http://www.w3.org/2000/svg" viewBox="0 0 14 14"><path d="M7 3q-1.594 0-2.98.543T1.817 5.008 1 7q0 .875.56 1.668t1.574 1.37l.68.392-.21.75q-.188.71-.548 1.344 1.187-.492 2.148-1.336l.336-.297.445.048Q6.525 11 7 11q1.595 0 2.98-.543t2.204-1.465T13 7t-.816-1.992T9.98 3.543 7 3zm7 4q0 1.36-.937 2.512t-2.547 1.82T7 12q-.547 0-1.133-.062-1.547 1.367-3.594 1.89-.383.11-.89.173h-.04q-.117 0-.21-.08t-.126-.216v-.008q-.023-.03-.004-.094t.016-.078.034-.074l.047-.07.056-.066.062-.07q.055-.062.242-.27t.27-.297.242-.31.254-.397.21-.46.204-.595Q1.413 10.22.706 9.195T0 7.002q0-1.358.936-2.51t2.547-1.82T7 2t3.515.67 2.547 1.82T14 7z" /></svg>