<svg xmlns="http://www.w3.org/2000/svg" viewBox="0 0 14 14"><path d="M1.078 1h1.54q-.548.5-.985 1.164-.28.438-.46.898t-.235.98-.066.937.082 1.03.164.984.22 1.066l.046.22q.398 1.858.633 2.57.445 1.335 1.187 2.147H1.08q-.376 0-.642-.266t-.266-.64V1.902q0-.375.266-.64t.64-.267zm9.438 0h2.406q.375 0 .64.266t.267.64v10.19q0 .374-.267.64t-.64.266H11.53q1.657-1.64 1.532-4.414l-3.664.79q-.016.35-.094.64t-.242.563-.465.466-.73.285q-.96.204-1.555-.31-.25-.212-.414-.478t-.402-1.008-.504-2.016q-.273-1.273-.355-2.055t-.043-1.086.18-.602q.156-.32.488-.57t.8-.352q.353-.094.653-.05t.523.132.422.273.336.375.27.44l3.656-.78Q11.392 1.876 10.516 1z" /></svg>