<svg xmlns="http://www.w3.org/2000/svg" viewBox="0 0 14 14"><path d="M7.5 7q.203 0 .352.148T8 7.5t-.148.352T7.5 8t-.352-.148T7 7.5t.148-.352T7.5 7zm2.344.5l3.96 3.11q.22.155.196.437-.04.273-.273.398l-1 .5Q12.625 12 12.5 12q-.133 0-.242-.062l-5.39-3.023-.86.516q-.062.032-.094.04.11.383.078.758-.055.602-.438 1.152t-1.03.965Q3.49 13 2.358 13q-1.063 0-1.735-.608-.703-.656-.617-1.617.055-.594.438-1.148t1.023-.97q1.03-.655 2.17-.655.65 0 1.18.242.07-.102.173-.172l.953-.57-.953-.57q-.102-.07-.172-.172-.53.242-1.18.242-1.14 0-2.17-.656-.642-.414-1.024-.97T.008 4.23q-.04-.462.12-.884t.497-.727Q1.29 2 2.36 2q1.132 0 2.163.656.648.406 1.03.96t.44 1.157q.03.375-.08.758.032.008.095.04l.86.515 5.39-3.023q.11-.062.242-.062.125 0 .227.055l1 .5q.234.125.273.398.023.28-.195.438zm-5.32-2.03q.358-.33.163-.845T3.86 3.71q-.72-.46-1.5-.46-.58 0-.884.28-.36.33-.164.845t.828.914q.72.46 1.5.46.578 0 .883-.28zm-.665 5.82q.632-.4.827-.915t-.164-.844q-.305-.28-.883-.28-.78 0-1.5.46-.633.4-.828.915t.164.844q.305.28.883.28.78 0 1.5-.46zM5.25 6.5l.75.453v-.086q0-.28.258-.438l.11-.063L5.75 6l-.203.203q-.023.023-.078.086t-.095.093q-.016.016-.03.027t-.024.02zM7 8.25l.75.25L13.5 4l-1-.5-6 3.367v.883l-1.25.75.07.062q.016.016.055.047.03.03.086.093t.087.094L5.75 9zm5.5 3.25l1-.5-4.063-3.188L8.054 8.89q-.016.023-.102.055z" /></svg>