<svg xmlns="http://www.w3.org/2000/svg" viewBox="0 0 12 14"><path d="M8 11.72q-.328-1.884-1.094-3.892H6.89l-.016.008q-.125.047-.336.13t-.79.382-1.07.64-1.022.896-.805 1.156l-.116-.086Q4.172 12.126 6 12.126q1.03 0 2-.406zM6.555 6.976q-.164-.383-.414-.867-2.43.727-5.257.727Q.875 6.892.875 7q0 .97.344 1.85t.968 1.573q.39-.695.965-1.3t1.113-.974 1.02-.634.777-.375l.29-.1q.03-.01.1-.028t.103-.035zM5.72 5.32Q4.78 3.656 3.812 2.367q-1.078.508-1.828 1.453t-1 2.125q2.36 0 4.734-.625zm5.343 2.493q-1.64-.47-3.195-.227.68 1.867 1 3.664.867-.586 1.445-1.48t.75-1.957zm-6.29-5.79q-.008 0-.016.008.008-.007.016-.007zm4.61 1.133Q7.938 1.876 6 1.876q-.594 0-1.21.147Q5.81 3.35 6.71 5.007q.54-.203 1.017-.473t.754-.48.513-.445.293-.317zm1.742 3.79Q11.102 5.132 9.96 3.74l-.007.008q-.07.094-.148.19t-.34.35-.555.472-.78.508-1.028.504q.195.414.344.742.016.047.05.137t.06.13q.28-.04.582-.056t.574-.016.54.013.5.03.44.044.375.05.285.048.195.035zM12 7q0 1.633-.805 3.012T9.01 12.196 6 13t-3.013-.804-2.184-2.184T-.002 7t.805-3.012 2.184-2.184T6 1t3.01.804 2.185 2.184T12 7z" /></svg>