<svg xmlns="http://www.w3.org/2000/svg" viewBox="0 0 12 14"><path d="M11.47 2.97q.218.218.374.593T12 4.25v9q0 .313-.22.532t-.53.22H.75q-.312 0-.53-.22t-.22-.53V.75Q0 .438.22.22T.75 0h7q.312 0 .688.157t.594.375zM8 1.06V4h2.937q-.078-.228-.172-.32L8.32 1.233Q8.226 1.14 8 1.062zM11 13V5H7.75q-.312 0-.53-.22T7 4.25V1H1v12h10zM3.75 6q.062-.086.164-.098t.187.05l.4.298q.085.062.097.164t-.05.187L3.123 8.5l1.422 1.897q.062.086.05.187t-.097.164l-.4.297q-.085.062-.186.05T3.75 11L1.984 8.646q-.11-.148 0-.297zm6.266 2.352q.11.148 0 .297L8.25 11q-.062.087-.164.1t-.187-.052l-.4-.297q-.085-.06-.097-.163t.05-.187l1.423-1.898-1.422-1.898q-.062-.086-.05-.187t.097-.164l.4-.297q.085-.062.186-.05t.164.097zm-4.844 3.6q-.102-.015-.16-.1t-.043-.188l1.077-6.492q.016-.102.102-.16t.186-.043l.492.077q.102.016.16.102t.043.186l-1.077 6.492q-.016.102-.102.16t-.186.043z" /></svg>