<svg xmlns="http://www.w3.org/2000/svg" viewBox="0 0 14 14"><path d="M13 8.164V3.35q-1.32.712-2.39.712-.642 0-1.134-.25-.78-.383-1.438-.598T6.648 3q-1.353 0-3.15.99v4.68q1.915-.882 3.384-.882.43 0 .81.06t.765.202.602.242.644.31l.22.108q.343.172.788.172.937 0 2.29-.72zM2.5 2q0 .273-.137.5T2 2.86v9.89q0 .11-.07.18t-.18.07h-.5q-.11 0-.18-.07T1 12.75V2.86Q.773 2.725.637 2.5T.5 2q0-.414.293-.707T1.5 1t.707.293T2.5 2zm11.5.5v5.96q0 .306-.273.446l-.133.07q-1.703.906-2.883.906-.687 0-1.233-.273l-.22-.11q-.5-.258-.772-.375t-.71-.227-.892-.11q-.797 0-1.84.345t-1.785.797Q3.14 10 3 10q-.125 0-.25-.062Q2.5 9.79 2.5 9.5V3.703q0-.273.242-.43.273-.164.613-.332t.89-.405 1.192-.387T6.647 2q.876 0 1.634.242t1.634.672q.297.148.695.148.952 0 2.42-.875l.243-.133q.242-.125.484.016.242.156.242.43z" /></svg>