<svg xmlns="http://www.w3.org/2000/svg" viewBox="0 0 12 14"><path d="M3 12h6V9H3v3zm7 0h1V5q0-.11-.078-.3t-.156-.27L8.57 2.233q-.077-.078-.265-.156T8 2v3.25q0 .312-.22.53T7.25 6h-4.5q-.312 0-.53-.22T2 5.25V2H1v10h1V8.75q0-.312.22-.53T2.75 8h6.5q.312 0 .53.22t.22.53V12zM7 4.75v-2.5q0-.102-.074-.176T6.75 2h-1.5q-.102 0-.176.074T5 2.25v2.5q0 .102.074.176T5.25 5h1.5q.102 0 .176-.074T7 4.75zM12 5v7.25q0 .312-.22.53t-.53.22H.75q-.312 0-.53-.22T0 12.25V1.75q0-.312.22-.53T.75 1H8q.312 0 .688.156t.594.375L11.47 3.72q.22.22.375.594T12 5z" /></svg>