<svg xmlns="http://www.w3.org/2000/svg" viewBox="0 0 15 14"><path d="M13.914 7.273Q13.914 7 13.5 7H5q-.312 0-.668.168t-.56.41l-2.296 2.836q-.14.187-.14.312 0 .273.413.273h8.5q.31 0 .67-.173t.556-.414l2.297-2.836q.14-.172.14-.305zM5 6h6V4.75q0-.312-.22-.53T10.25 4h-4.5q-.312 0-.53-.22T5 3.25v-.5q0-.312-.22-.53T4.25 2h-2.5q-.312 0-.53.22T1 2.75v6.664l2-2.46q.344-.415.906-.685T5 6zm9.914 1.273q0 .484-.36.937l-2.304 2.836q-.336.414-.906.684T10.25 12h-8.5q-.72 0-1.234-.516T0 10.25v-7.5q0-.72.516-1.234T1.75 1h2.5q.72 0 1.234.516T6 2.75V3h4.25q.72 0 1.234.516T12 4.75V6h1.5q.422 0 .773.19t.523.552q.117.25.117.53z" /></svg>