<svg xmlns="http://www.w3.org/2000/svg" viewBox="0 0 12 14"><path d="M7.25 10.594V5h-2.5v5.594q0 .195.14.3t.36.106h1.5q.22 0 .36-.105t.14-.3zM3.687 4H5.21l-.984-1.258q-.203-.242-.54-.242-.31 0-.53.22t-.22.53.22.53.53.22zm5.375-.75q0-.312-.22-.53t-.53-.22q-.336 0-.54.242L6.797 4h1.516q.312 0 .53-.22t.22-.53zm2.938 2v2.5q0 .11-.07.18t-.18.07H11v3.25q0 .312-.22.53t-.53.22h-8.5q-.312 0-.53-.22T1 11.25V8H.25q-.11 0-.18-.07T0 7.75v-2.5q0-.11.07-.18T.25 5h3.438Q2.96 5 2.45 4.488T1.938 3.25t.512-1.238T3.688 1.5q.836 0 1.313.602l1 1.29L7 2.1Q7.48 1.5 8.315 1.5q.727 0 1.238.512t.512 1.238-.512 1.238T8.314 5h3.438q.11 0 .18.07t.07.18z" /></svg>