<svg xmlns="http://www.w3.org/2000/svg" viewBox="0 0 12 14"><path d="M3.078 10.562q-.062.07-.156-.023-.102-.087-.03-.15.06-.07.155.024.094.086.03.148zm-.328-.476q.07.094 0 .148-.062.047-.133-.055t0-.142q.07-.055.133.047zm-.477-.47q-.04.056-.102.017-.077-.04-.054-.094.023-.04.102-.017.078.04.055.094zm.243.267q-.047.055-.125-.023-.07-.086-.015-.125.047-.047.125.023.07.086.016.125zm1.007.875q-.03.094-.148.047-.133-.03-.102-.117t.148-.055q.126.04.103.125zm.493.04q0 .085-.125.085-.132.016-.132-.086 0-.086.125-.086.133-.015.133.087zm.453-.08q.015.08-.11.11t-.14-.062.108-.117q.125-.017.14.07zM12 3.25v7.5q0 .93-.66 1.59T9.75 13H8q-.125 0-.19-.008t-.153-.04-.125-.112-.04-.215v-1.867q0-.758-.405-1.11.445-.046.8-.14t.735-.305.633-.52.414-.82.16-1.176q0-.945-.618-1.61.29-.71-.062-1.593-.22-.07-.633.086t-.72.344l-.296.187Q6.775 3.9 6 3.9T4.5 4.1q-.124-.085-.33-.21t-.653-.3-.672-.106q-.344.883-.055 1.594-.617.664-.617 1.61 0 .663.16 1.17t.41.82.63.524.733.305.8.14q-.31.282-.382.806-.164.078-.352.117t-.445.04-.512-.17-.434-.487q-.147-.25-.378-.406t-.387-.187l-.156-.023q-.165 0-.228.035t-.04.09.07.11.103.093l.055.04q.172.077.34.296t.246.4l.078.18q.102.296.344.48t.523.233.544.055.434-.027l.18-.03q0 .297.004.805t.004.53q0 .173-.086.263t-.172.102-.258.012H2.25q-.93 0-1.59-.66T0 10.752v-7.5q0-.93.66-1.59t1.59-.66h7.5q.93 0 1.59.66t.66 1.59z" /></svg>