<svg xmlns="http://www.w3.org/2000/svg" viewBox="0 0 12 14"><path d="M6.477 9.516q0 .594-.457.88t-1.09.284q-.32 0-.63-.074t-.59-.223-.452-.414-.172-.61q0-.36.195-.625t.513-.402.64-.195.66-.06q.157 0 .243.017.016.008.18.13t.203.147.18.14.19.173.148.176.133.204.07.207.036.247zm-.58-4.258q0 .47-.257.777t-.72.31q-.413 0-.726-.333t-.45-.754-.136-.828q0-.477.25-.813t.72-.336q.413 0 .73.353t.452.79.137.835zm.83-2.008l.688-.5h-2.07q-.664 0-1.258.25t-.996.766-.4 1.195q0 .728.503 1.208t1.238.48q.173 0 .337-.023-.102.227-.102.422 0 .344.312.734-1.367.095-2.008.493-.368.227-.59.57t-.224.742q0 .336.145.605t.38.44.54.29.604.164.598.047q.47 0 .94-.12t.888-.36.672-.644.258-.914q0-.383-.156-.7t-.383-.52-.452-.37-.383-.344-.156-.348.12-.332.293-.31.344-.327.293-.464.12-.645q0-.468-.175-.776t-.566-.707h.647zM9 6.75h1v-.5H9v-1h-.5v1h-1v.5h1V8H9V6.75zm3-3.5v7.5q0 .93-.66 1.59T9.75 13h-7.5q-.93 0-1.59-.66T0 10.75v-7.5q0-.93.66-1.59T2.25 1h7.5q.93 0 1.59.66T12 3.25z" /></svg>