<svg xmlns="http://www.w3.org/2000/svg" viewBox="0 0 15 14"><path d="M6.375 1q-.375 0-.62.266t-.247.64q0 .11.023.22L6.704 7H6.5l-.906-3.765q-.07-.297-.31-.484t-.542-.186q-.367 0-.617.266t-.25.633q0 .086.03.227.024.102.306 1.258t.532 2.203.25 1.08V10L2.594 8.205q-.266-.203-.602-.203-.406 0-.7.285T1 8.977q0 .524.438.86l3.96 2.96q.267.204.595.204h5.422q.258 0 .46-.16t.267-.41l.78-3.132q.063-.234.08-.688t.07-.672l.905-3.734Q14 4.11 14 4q0-.358-.258-.616t-.625-.258q-.297 0-.54.2t-.31.487L11.492 7h-.203l1.03-4.272q.024-.11.024-.22 0-.366-.25-.624t-.625-.258q-.298 0-.536.187t-.31.484L9.493 7H8.5L7.22 1.672q-.07-.297-.31-.484T6.375 1zm5.04 13H5.99q-.664 0-1.195-.398l-3.96-2.97Q.444 10.337.222 9.9T0 8.976q0-.82.586-1.398T1.992 7q.195 0 .387.044t.323.086.32.16.273.18.3.23.294.223l-.96-4q-.056-.273-.056-.46 0-.728.47-1.267T4.53 1.58Q4.64.9 5.16.45T6.373 0q.648 0 1.156.403t.664 1.035L9 4.782l.647-2.72q.156-.632.664-1.034t1.157-.402q.68 0 1.19.422t.646 1.086q.727.078 1.21.61T15 4q0 .235-.055.446l-.906 3.727q-.04.172-.04.523 0 .398-.1.844l-.79 3.133q-.148.586-.62.957T11.41 14z" /></svg>