<svg xmlns="http://www.w3.org/2000/svg" viewBox="0 0 13 14"><path d="M5 1q-.414 0-.707.293T4 2v7L2.82 7.422Q2.5 7 1.984 7q-.406 0-.695.297T1 8q0 .336.203.602l3 4Q4.5 13 5 13h5.61q.17 0 .308-.105t.176-.27l.72-2.875Q12 9 12 8.234V6.54q0-.32-.22-.556t-.53-.234-.53.22-.22.53h-.25v-.477q0-.375-.25-.637t-.625-.262q-.36 0-.617.258T8.5 6v.5h-.25v-.704q0-.43-.29-.738t-.71-.31q-.414 0-.707.294t-.293.707v.75H6V2.045q0-.43-.29-.738T5 .998zm0-1q.836 0 1.418.605T7 2.045v1.72q.172-.016.25-.016.773 0 1.352.538.367-.164.773-.164.883 0 1.438.68.21-.055.438-.055.735 0 1.243.526T13 6.538v1.695q0 .906-.218 1.758l-.72 2.876q-.124.5-.53.816t-.922.316H5q-.468 0-.894-.215T3.4 13.2l-3-4Q0 8.67 0 8q0-.82.583-1.41t1.402-.59q.555 0 1.016.273V2q0-.828.587-1.414T5-.002zm1 11V8h-.25v3H6zm2 0V8h-.25v3H8zm2 0V8h-.25v3H10z" /></svg>