<svg xmlns="http://www.w3.org/2000/svg" viewBox="0 0 14 14"><path d="M8.383 13H7q-1.273 0-1.766-1.102-.18-.383-.18-.797v-.038q-.484-.234-.77-.69T4 9.374q0-.297.038-.375h-2.04q-.827 0-1.413-.586T0 7t.585-1.414T2 5h.882l-.344-.133q-.578-.22-.934-.73T1.25 3q0-.828.585-1.414T3.25 1q.358 0 .71.133L8.866 3H12q.827 0 1.413.586T14 5v5.22q0 .687-.423 1.23t-1.094.706l-2.648.664q-.72.18-1.453.18zM8 7.445L6.79 8l-1.274.578q-.234.11-.375.324T5 9.375q0 .36.258.617t.617.258q.203 0 .36-.078l2.64-1.203q-.383-.08-.63-.392T8 7.875v-.43zm2.5 2.43q0-.36-.258-.617T9.625 9q-.203 0-.36.078L7 10.108q-.22.103-.29.134t-.237.133-.23.184-.125.226-.062.316q0 .39.246.64t.637.25q.155 0 .296-.07l2.75-1.25q.234-.108.375-.323t.142-.474zM8.688 4L3.61 2.063Q3.423 2 3.25 2q-.413 0-.706.294T2.25 3q0 .313.177.57t.465.368L7.002 5.5V6H2q-.415 0-.708.294T1 7t.294.708T2 8h4.18L8 7.174V5.626q0-.492.36-.828L9.227 4h-.54zm-.305 8q.64 0 1.21-.148l2.65-.664q.335-.086.546-.355t.21-.613V5q0-.413-.293-.706T12 4H9.594l-1.062.985q-.28.258-.28.64V7.94q0 .358.257.6t.616.243.617-.273.258-.633V6.252h.25v1.625q0 .547-.444.89.406.063.676.38t.27.73q0 .328-.18.61t-.477.413l-2.422 1.102h.71z" /></svg>