<svg xmlns="http://www.w3.org/2000/svg" viewBox="0 0 13 14"><path d="M13 6.922q0 1.297-.47 2.453l-.155.383-1.445.258q-.172.648-.707 1.066T9 11.5v.25q0 .11-.07.18t-.18.07h-.5q-.11 0-.18-.07T8 11.75v-4.5q0-.11.07-.18T8.25 7h.5q.11 0 .18.07t.07.18v.25q.555 0 1.016.277t.727.746l.53-.094q.228-.743.228-1.51 0-1.155-.687-2.18T8.965 3.11 6.5 2.498t-2.465.61T2.187 4.74 1.5 6.92q0 .767.226 1.51l.53.093q.267-.47.728-.746T4 7.5v-.25q0-.11.07-.18T4.25 7h.5q.11 0 .18.07t.07.18v4.5q0 .11-.07.18t-.18.07h-.5q-.11 0-.18-.07T4 11.75v-.25q-.688 0-1.223-.418t-.707-1.066L.625 9.758.47 9.375Q0 8.22 0 6.922q0-1.18.523-2.273T1.92 2.753 4 1.477 6.5 1t2.5.477 2.077 1.277 1.398 1.895.523 2.272z" /></svg>