<svg xmlns="http://www.w3.org/2000/svg" viewBox="0 0 11 14"><path d="M8 .25q0-.11.07-.18T8.25 0h2.25q.203 0 .352.148T11 .5v2.25q0 .11-.07.18t-.18.07h-.5q-.11 0-.18-.07T10 2.75V1.703L8.016 3.695Q9 4.93 9 6.5q0 1.727-1.152 3.004T5 10.97V12h.75q.11 0 .18.07t.07.18v.5q0 .11-.07.18t-.18.07H5v.75q0 .11-.07.18t-.18.07h-.5q-.11 0-.18-.07T4 13.75V13h-.75q-.11 0-.18-.07T3 12.75v-.5q0-.11.07-.18t.18-.07H4v-1.03q-1.164-.126-2.113-.806T.43 8.418.016 6.14q.125-1.593 1.25-2.76t2.71-1.35q.923-.108 1.782.15t1.547.804L9.297 1H8.25q-.11 0-.18-.07T8 .75v-.5zM4.5 10q1.445 0 2.473-1.027T8 6.5 6.973 4.027 4.5 3 2.027 4.027 1 6.5t1.027 2.473T4.5 10z" /></svg>