<svg xmlns="http://www.w3.org/2000/svg" viewBox="0 0 14 14"><path d="M5.594 12.54q-1.117-.274-2.043-.892T2.01 10.156q-1.086 2.344-.133 3.11.203.163.664.19t.995-.074 1.102-.324.957-.52zm-.18-6.493h3.53q0-.844-.48-1.32T7.15 4.25q-.806 0-1.27.488t-.466 1.31zm8.055-2.93h-.267q.203-.797.176-1.328t-.196-.86-.496-.445-.73-.086-.898.206-1.004.44-1.047.618q1.007.29 1.862.887t1.445 1.4.86 1.808.12 2.047H5.445q0 .47.078.828t.266.664.542.47.88.163q.68 0 1.112-.344t.566-.953h4.22q-.556 1.797-2.2 2.945t-3.73 1.148q-.648 0-1.242-.117-.273.31-1.18.733t-1.937.61-1.71-.274q-.61-.47-.78-1.243t.054-1.672.688-1.89 1.12-1.938 1.356-1.77 1.387-1.434 1.223-.875V2.67q-.937.29-2.02 1.075t-1.88 1.617T1.02 6.89q.03-.83.265-1.57T1.908 4t.922-1.06 1.152-.785 1.313-.512 1.41-.23 1.445.062Q10.572.022 12.08-.002h.055q.445 0 .805.14.625.235.766 1.036t-.234 1.94z" /></svg>