<svg xmlns="http://www.w3.org/2000/svg" viewBox="0 0 12 14"><path d="M12 6.5v1q0 1.57-.77 2.828t-2.14 1.965T6 13t-3.09-.707-2.142-1.965-.77-2.828v-1q0-.203.148-.352T.498 6h3q.203 0 .352.148t.148.352v1q0 .406.184.703t.418.445.555.234.5.102T6 9t.343-.016.5-.102.555-.234.418-.445T8 7.5v-1q0-.203.148-.352T8.5 6h3q.203 0 .352.148T12 6.5zm-8-5v3q0 .203-.148.352T3.5 5h-3q-.203 0-.352-.148T0 4.5v-3q0-.203.148-.352T.5 1h3q.203 0 .352.148T4 1.5zm8 0v3q0 .203-.148.352T11.5 5h-3q-.203 0-.352-.148T8 4.5v-3q0-.203.148-.352T8.5 1h3q.203 0 .352.148T12 1.5z" /></svg>