<svg xmlns="http://www.w3.org/2000/svg" viewBox="0 0 9 14"><path d="M5 5.03q1.695.188 2.848 1.466T9 9.5q0 1.305-.68 2.39t-1.844 1.657-2.492.422q-1.04-.118-1.918-.69T.644 11.813t-.63-1.945q-.093-1.21.41-2.28t1.454-1.75 2.12-.806V4H2.75q-.108 0-.18-.07t-.07-.18v-.5q0-.11.07-.18T2.75 3H4V1.71l-.718.72q-.078.07-.18.07t-.172-.07l-.36-.36Q2.5 2 2.5 1.9t.07-.18L4.15.15q.147-.15.35-.15t.353.15l1.58 1.57q.07.077.07.18t-.07.17l-.36.36q-.07.07-.172.07t-.18-.07l-.72-.72V3h1.25q.11 0 .18.07t.07.18v.5q0 .11-.07.18T6.25 4H5v1.03zM4.5 13q1.445 0 2.473-1.027T8 9.5 6.973 7.027 4.5 6 2.027 7.027 1 9.5t1.027 2.473T4.5 13z" /></svg>