<svg xmlns="http://www.w3.org/2000/svg" viewBox="0 0 12 14"><path d="M9.86 10.18q-.423.07-.86.07-1.422 0-2.633-.703T4.453 7.633 3.75 5q0-1.5.813-2.79-1.57.47-2.566 1.79T1 7q0 1.016.4 1.94t1.065 1.595T4.06 11.6 6 12q1.125 0 2.137-.48t1.723-1.34zm1.585-.664q-.734 1.586-2.215 2.535T6 13q-1.22 0-2.328-.477t-1.914-1.28-1.28-1.915T0 7q0-1.195.45-2.285t1.218-1.887 1.84-1.285 2.266-.535q.344-.016.477.305.142.32-.116.563-.672.61-1.027 1.418T4.752 5q0 1.157.57 2.134T6.87 8.68 9 9.25q.922 0 1.78-.397.32-.14.564.102.11.11.137.266t-.035.298z" /></svg>