<svg xmlns="http://www.w3.org/2000/svg" viewBox="0 0 18 14"><path d="M17.977 8.094q.094.805-.172 1.55t-.773 1.278-1.238.828-1.535.242q-1.26-.086-2.185-.977t-1.05-2.14q-.095-.868.214-1.646t.925-1.333l-.555-.836q-.75.626-1.18 1.517T10 8.483q0 .21-.145.363t-.355.152H6.96q-.18 1.28-1.163 2.14T3.5 12q-1.445 0-2.473-1.027T0 8.5t1.027-2.473T3.5 4.998q.594 0 1.187.21l.187-.35q-.96-.86-2.375-.86H2q-.204 0-.353-.148T1.5 3.498t.147-.352T2 2.998h1q.608 0 1.132.105t.91.3.56.31.397.285h4.897l-.664-1H8.5q-.235 0-.384-.176t-.11-.41q.032-.18.18-.297t.337-.117H10.5q.258 0 .414.22l.547.82.892-.892q.148-.148.36-.148h.788q.203 0 .352.148t.148.352v1q0 .203-.148.352t-.352.148h-1.398L13 5.342q1.023-.492 2.148-.28 1.117.202 1.906 1.05t.922 1.98zM3.5 11q.898 0 1.586-.566T5.953 9H3.5q-.273 0-.43-.242-.14-.25-.008-.492L4.21 6.102Q3.843 6 3.5 6q-1.032 0-1.767.734T1 8.5t.733 1.766T3.5 11zm11 0q1.03 0 1.766-.734T17 8.5t-.734-1.766T14.5 6q-.47 0-.945.187l1.36 2.03q.116.18.077.384t-.21.313Q14.663 9 14.5 9q-.273 0-.414-.228l-1.36-2.03Q12 7.48 12 8.498q0 1.03.734 1.765T14.5 11z" /></svg>