<svg xmlns="http://www.w3.org/2000/svg" viewBox="0 0 11 14"><path d="M10.953 8.617q-.25.625-.594 1.078t-.712.69-.773.364-.793.112-.754-.066-.676-.172-.543-.215-.36-.177l-.133-.078q-.883 1.78-2.262 2.81T.35 13.998q-.147 0-.25-.103t-.1-.25.1-.246.25-.097q1.353-.008 2.52-.84t1.966-2.3q-.28.108-.563.18t-.648.1-.71-.02-.728-.222-.72-.46-.66-.78-.58-1.142q.89-.367 1.67-.445t1.31.06.973.44.69.602.442.64q.414-1.022.617-2.272-.056.008-.142.02t-.363.02-.543-.004-.637-.08-.69-.18-.657-.33-.586-.51-.426-.737-.223-.996q.547-.22 1.043-.285t.88.008.718.234.574.39.438.478.328.492.215.438.124.31l.03.124q.095-.953.095-1.523-.063-.047-.17-.125T5.56 4.24t-.496-.56-.422-.726-.258-.88.094-.99T5.023 0q.57.196.996.48t.66.6.374.663.16.695-.004.668-.102.598-.148.484-.133.328l-.055.117q.008.04.008.395t-.008.56q.023-.056.078-.146t.238-.336.395-.453.555-.434.715-.35.875-.112 1.035.187q-.016.61-.168 1.105t-.39.816-.544.56-.636.354-.66.187-.625.074-.528-.007-.363-.035l-.134-.023q-.18 1.148-.57 2.21.047-.054.14-.144t.388-.32.605-.41.776-.327.918-.156 1.008.184 1.07.606z" /></svg>