<svg xmlns="http://www.w3.org/2000/svg" viewBox="0 0 13 14"><path d="M6.094 3.687q0 .47-.148.887t-.492.723-.82.305q-.594 0-1.078-.45t-.72-1.058-.233-1.18q0-.47.148-.887t.493-.723.82-.305q.602 0 1.082.448t.715 1.055.234 1.184zM3.422 7.46q0 .626-.328 1.087t-.93.46q-.594 0-1.105-.433T.273 7.53 0 6.345q0-.625.33-1.09t.93-.465q.593 0 1.104.433T3.15 6.27t.272 1.19zM6.5 7.25q.922 0 1.992.762t1.79 1.852.718 1.988q0 .36-.133.598t-.38.352-.503.156T9.39 13q-.53 0-1.465-.35T6.5 12.296q-.517 0-1.505.348t-1.566.348q-1.43 0-1.43-1.14 0-.673.437-1.497t1.09-1.504 1.465-1.14T6.5 7.25zm1.867-1.648q-.477 0-.82-.305t-.492-.723-.148-.887q0-.578.234-1.184t.716-1.055 1.082-.45q.477 0 .82.306t.492.723.148.887q0 .57-.234 1.18t-.72 1.06-1.077.448zm3.375-.813q.602 0 .93.464T13 6.344q0 .578-.273 1.187t-.785 1.044-1.105.434q-.602 0-.93-.46T9.58 7.46q0-.577.272-1.19t.785-1.047 1.105-.434z" /></svg>