<svg xmlns="http://www.w3.org/2000/svg" viewBox="0 0 16 14"><path d="M9.547 7.258q.586-.023 1.12.16t.923.457.79.738.655.844.59.94q.258.44.613.853t.59.63.773.69q-.374.234-.847.45t-1.082.46-.89.37q-.344-.288-.578-.897t-.34-1.285-.258-1.41-.332-1.316-.566-.96-.957-.38l-.08.016-.046.03q.03.04.102.11.047.04.22.184t.198.172.148.14.14.16.09.165.083.214.035.242.03.316l.01.258q.007.203-.02.45t-.06.405-.098.457-.09.414q-.273-.008-.79.074t-.765.082q-.305 0-.563-.078-.016-.125-.016-.367 0-.578.023-.75.017-.102.247-.324t.445-.46.207-.403q-.188-.016-.337.187-.28.414-.87.777t-1.067.363q-.195 0-.59-.492t-.832-1.09-.656-.754q-.047-.03-.21-.233-3.767.875-4.01.875-.124 0-.218-.086t-.094-.21q0-.118.066-.208t.176-.113l3.797-.828q-.062-.11-.062-.195t.043-.137.125-.09.157-.055.18-.035.145-.035q.03-.008.12-.06t.138-.05q.117 0 .22.125t.155.258q1.273-.29 1.344-.29.132 0 .23.087t.097.22q0 .116-.066.202t-.183.11l-1.422.31-.008.126q-.008.203.637.918t.816.715q.367 0 .93-.624t.563-1.008q0-.28-.184-.414t-.4-.145-.397-.09-.184-.267q0-.125.077-.266l-.53-.148q.335-.345.335-.915 0-.203-.04-.453.642-.125 1.126-.125.344 0 .56.012t.378.065.242.105.16.19.12.263.134.37.187.47l.39-.195q-.023.312-.18.47t-.332.163-.312.052-.13.16zm.47-1.836q-.04-.04-.106-.12t-.093-.114-.082-.09-.078-.082l-.062-.062-.066-.06-.063-.038L9.4 4.82q-.054-.022-.112-.038t-.16-.02-.172-.004H8.41q-.985 0-1.696.336.125-.234.28-.363t.423-.23.512-.28.358-.285.39-.43.34-.395q.095.07.22.246t.25.285.297.103l.094-.008v.594l.17.007q1.93-.742 2.9-1.484.218-.164.39-.305t.332-.293.258-.242.23-.266.187-.242.19-.29.18-.296.212-.372.23-.414l.054-.07q-.016.414-.336 1.086-.617 1.29-1.602 2.062t-2.39 1.11q-.11.022-.33.058t-.39.074-.305.11q.024.147.192.358t.168.266q0 .086-.203.234zm-1.728 7.195q.304-.203 1.026-.37t1.145-.17q.07 0 .177.122t.22.33.202.392.186.398.113.258q-.946.352-1.907.352-.477 0-.977-.086zM6.42 7.563l.375-.094.852 1.382-.57.375zm3.914 4.04q.023.116.023.124 0 .055-.138.113t-.36.102-.42.074-.42.06-.25.034l-.054-.336q.164-.016.473-.066t.564-.078.473-.027h.11zm-3.57-4.908l-.75.156-.047-.132q.077-.008.253-.055t.27-.047q.148 0 .273.078zm1.523 4.953h.24l.08.648-.32.094v-.742zM15.233.008zm0 0l-.008.04-.016.015.008-.023zm0 0L15.242 0z" /></svg>