<svg xmlns="http://www.w3.org/2000/svg" viewBox="0 0 12 14"><path d="M12 7q0 1.633-.805 3.012T9.01 12.196 6 13q-.868 0-1.704-.25.46-.726.61-1.28.07-.266.42-1.648.157.305.57.527t.892.222q.945 0 1.688-.535t1.148-1.473.406-2.11q0-.89-.465-1.67T8.217 3.51t-1.992-.492q-.82 0-1.53.227t-1.208.602-.852.863-.523 1.012-.168 1.047q0 .812.312 1.43t.914.866q.234.094.297-.156.016-.055.062-.242t.06-.234q.048-.18-.085-.336-.398-.477-.398-1.18 0-1.18.816-2.027t2.137-.847q1.18 0 1.84.64t.66 1.665q0 1.328-.535 2.258t-1.37.93q-.478 0-.767-.34t-.18-.816q.062-.273.207-.73t.234-.805.09-.59q0-.39-.212-.648t-.602-.258q-.484 0-.82.444t-.336 1.11q0 .57.195.952l-.773 3.266q-.133.547-.102 1.383-1.61-.71-2.602-2.195t-.992-3.305q0-1.633.805-3.012T2.986 1.81t3.012-.806 3.012.805 2.183 2.183.805 3.012z" /></svg>