<svg xmlns="http://www.w3.org/2000/svg" viewBox="0 0 12 14"><path d="M4 10q0-.414-.293-.707T3 9t-.707.293T2 10t.293.707T3 11t.707-.293T4 10zm2.742.734Q6.64 8.922 5.36 7.64T2.264 6.257q-.11-.008-.187.07T2 6.507v1q0 .102.066.172t.168.077q1.203.086 2.062.945t.945 2.062q.01.102.08.168t.17.066h1q.103 0 .18-.078t.07-.187zm3 .008q-.04-1.203-.438-2.324t-1.09-2.03-1.602-1.603-2.03-1.09-2.325-.438q-.11-.008-.18.07Q2 3.405 2 3.507v1q0 .102.07.172t.17.077q1.595.055 2.954.87T7.37 7.805t.87 2.953q.01.102.08.172t.17.07h1q.103 0 .18-.08.087-.07.07-.18zM12 3.25v7.5q0 .93-.66 1.59T9.75 13h-7.5q-.93 0-1.59-.66T0 10.75v-7.5q0-.93.66-1.59T2.25 1h7.5q.93 0 1.59.66T12 3.25z" /></svg>