<svg xmlns="http://www.w3.org/2000/svg" viewBox="0 0 14 14"><path d="M7.414 6.977q0 .203-.13.352t-.323.147q-.202 0-.35-.13t-.15-.323q0-.203.134-.352t.328-.148.344.13.148.323zm.117.453l2.735-4.54q-.07.063-.527.49t-.98.91-1.066.99-.914.864-.395.402l-2.727 4.53q.055-.054.523-.483t.983-.91 1.062-.992.914-.866.39-.395zM12.587 7q0 1.57-.813 2.898-.023-.016-.133-.086t-.207-.13-.13-.058q-.1 0-.1.102 0 .078.46.344-.578.875-1.44 1.488t-1.888.863L8.21 11.9q-.008-.078-.117-.078-.04 0-.062.043t-.015.074l.125.53q-.563.118-1.14.118-1.556 0-2.907-.82.008-.016.102-.16t.168-.262.074-.148q0-.102-.102-.102-.047 0-.133.113t-.176.27-.105.18q-.882-.586-1.5-1.465t-.858-1.91l.54-.116q.077-.023.077-.117 0-.04-.044-.062t-.082-.016l-.53.116q-.11-.563-.11-1.086 0-1.61.852-2.96.016.007.145.093t.235.148.137.063q.102 0 .102-.094 0-.048-.098-.122t-.254-.168l-.156-.094q.602-.875 1.477-1.477t1.906-.837l.116.523q.016.078.117.078.04 0 .062-.043t.016-.08l-.116-.517Q6.51 1.41 7 1.41q1.595 0 2.962.853-.305.438-.305.508 0 .103.094.103.087 0 .376-.5.867.586 1.465 1.453t.84 1.883l-.437.093q-.078.016-.078.125 0 .04.043.062t.074.016l.445-.102q.11.563.11 1.094zm.664 0q0-1.273-.496-2.43t-1.332-1.992T9.43 1.246 7 .75t-2.43.496-1.992 1.332T1.246 4.57.75 7t.496 2.43 1.332 1.992 1.992 1.332T7 13.25t2.43-.496 1.992-1.332 1.332-1.992T13.25 7zM14 7q0 1.422-.555 2.72t-1.492 2.233-2.234 1.492T7 14t-2.72-.555-2.233-1.492T.555 9.72 0 7t.555-2.72 1.492-2.233T4.28.555 7 0t2.72.555 2.233 1.492 1.492 2.234T14 7z" /></svg>