<svg xmlns="http://www.w3.org/2000/svg" viewBox="0 0 14 14"><path d="M6.82 5.78q0 .65-.496 1.114t-1.19.465-1.192-.466-.496-1.113q0-.655.496-1.116t1.19-.46 1.192.46.496 1.117zm3.922 0q0 .65-.492 1.114t-1.195.465q-.695 0-1.19-.466T7.367 5.78q0-.655.496-1.116t1.19-.46q.704 0 1.196.46t.492 1.117zM12.5 7.188v-5.21q0-.68-.25-.966t-.867-.284H2.695q-.648 0-.88.266t-.23.984v5.258q.337.18.692.312t.633.22.633.144.555.086.547.03.457.005.44-.015.35-.016q.53-.01.74.21.048.047.08.07.202.195.476.398.055-.71.922-.68.04 0 .285.012t.336.016.356.008.414-.008.426-.035.477-.065.484-.105.523-.152.527-.21.563-.27zm1.273-.04q-.945 1.165-2.906 1.97.656 2.227-.18 3.633-.516.883-1.43 1.156-.813.25-1.422-.117-.672-.4-.64-1.282l-.01-2.547v-.007q-.06-.016-.19-.047t-.184-.04l-.007 2.642q.03.89-.648 1.28-.617.368-1.43.118-.914-.28-1.422-1.172-.82-1.406-.172-3.617-1.96-.805-2.905-1.97-.195-.288-.03-.49t.468.007q.023.016.086.055t.085.06V1.36q0-.564.367-.962T2.092 0h9.82q.524 0 .892.398t.367.96v5.423l.165-.116q.305-.21.47-.008t-.032.492z" /></svg>