<svg xmlns="http://www.w3.org/2000/svg" viewBox="0 0 14 14"><path d="M5.75 11.25q0 .094-.078.187L3.18 13.93Q3.102 14 3 14q-.094 0-.18-.07l-2.5-2.5q-.117-.126-.055-.274Q.327 11 .5 11H2V.25q0-.11.07-.18T2.25 0h1.5q.108 0 .18.07T4 .25V11h1.5q.108 0 .18.07t.07.18zm8.25 1v1.5q0 .11-.07.18t-.18.07h-6.5q-.11 0-.18-.07T7 13.75v-1.5q0-.11.07-.18t.18-.07h6.5q.11 0 .18.07t.07.18zm-1.5-4v1.5q0 .11-.07.18t-.18.07h-5q-.11 0-.18-.07T7 9.75v-1.5q0-.11.07-.18T7.25 8h5q.11 0 .18.07t.07.18zm-1.5-4v1.5q0 .11-.07.18t-.18.07h-3.5q-.11 0-.18-.07T7 5.75v-1.5q0-.11.07-.18T7.25 4h3.5q.11 0 .18.07t.07.18zm-1.5-4v1.5q0 .11-.07.18T9.25 2h-2q-.11 0-.18-.07T7 1.75V.25q0-.11.07-.18T7.25 0h2q.11 0 .18.07t.07.18z" /></svg>