<svg xmlns="http://www.w3.org/2000/svg" viewBox="0 0 11 14"><path d="M10 5.5q0-.203-.148-.352T9.5 5t-.352.148T9 5.5t.148.352T9.5 6t.352-.148T10 5.5zm1 0q0 .484-.277.867T10 6.914V10q0 1.242-1.027 2.12T6.5 13t-2.473-.88T3 10V8.97q-1.28-.157-2.14-1T0 6V2q0-.203.148-.352T.5 1.5q.047 0 .125.016.133-.234.367-.375T1.5 1q.414 0 .707.293T2.5 2t-.293.707T1.5 3q-.258 0-.5-.14V6q0 .828.734 1.414T3.5 8t1.766-.586T6 6V2.86Q5.758 3 5.5 3q-.414 0-.707-.293T4.5 2t.293-.707T5.5 1q.273 0 .508.14t.367.376Q6.453 1.5 6.5 1.5q.203 0 .352.148T7 2v4q0 1.125-.86 1.97T4 8.97V10q0 .828.734 1.414T6.5 12t1.766-.586T9 10V6.914q-.445-.164-.723-.547T8 5.5q0-.625.438-1.062T9.5 4t1.062.438T11 5.5z" /></svg>