<svg xmlns="http://www.w3.org/2000/svg" viewBox="0 0 12 14"><path d="M7.008 10.695V12H5.07l-1.24-1.97-.188-.327q-.062-.07-.086-.164h-.023l-.07.16q-.078.154-.195.342L2.058 12H.04v-1.305h1l1.54-2.273-1.445-2.125H.065V4.984H2.22l1.087 1.78q.016.032.18.33.062.07.086.163h.023q.023-.07.086-.164l.195-.328 1.094-1.78h2.01v1.312H6L4.564 8.383l1.594 2.313h.852zm4.976-5.304V7H7.968l-.023-.21q-.03-.22-.03-.36 0-.5.202-.914t.508-.676.656-.508.66-.426.51-.422.203-.5q0-.297-.23-.488t-.55-.19q-.4 0-.76.304-.11.086-.28.297l-.82-.72q.203-.288.49-.515.65-.508 1.47-.508.86 0 1.39.465t.53 1.232q0 .438-.19.805t-.482.6-.636.455-.64.395-.513.404-.237.493H11V5.39h.984z" /></svg>