<svg xmlns="http://www.w3.org/2000/svg" viewBox="0 0 13 14"><path d="M7 6.47V11q0 .813-.594 1.406T5 13t-1.406-.594T3 11q0-.203.148-.352T3.5 10.5t.352.148T4 11q0 .39.305.695T5 12t.695-.305T6 11V6.47q.258-.087.5-.087t.5.086zm6 .21q0 .102-.074.176t-.176.074q-.086 0-.18-.078-.383-.36-.727-.54t-.797-.18q-.53 0-1 .29t-.805.758q-.05.078-.13.22t-.113.186q-.085.133-.218.133-.14 0-.228-.14-.03-.047-.113-.187t-.138-.22q-.338-.47-.8-.758t-1-.288-.997.29-.8.757q-.056.078-.138.22t-.113.186q-.085.134-.226.134-.133 0-.22-.134-.03-.047-.112-.187t-.137-.22q-.337-.47-.806-.758t-1-.29q-.453 0-.797.18t-.727.54q-.097.078-.18.078-.105 0-.18-.074T0 6.675q0-.04.007-.055.353-1.43 1.348-2.49t2.328-1.6T6.496 2q1.094 0 2.145.312t1.93.887 1.52 1.46.9 1.96q.01.015.01.054zM7 1v.766q-.328-.016-.5-.016t-.5.016V1q0-.203.148-.352T6.5.5t.352.148T7 1z" /></svg>