<svg xmlns="http://www.w3.org/2000/svg" viewBox="0 0 16 14"><path d="M5.5 7q-1.242 0-2.12-.88T2.5 4t.88-2.12T5.5 1t2.12.88T8.5 4t-.88 2.12T5.5 7zm8.414 2.5l1.945 1.945q.07.07.07.18 0 .102-.07.172l-1.066 1.062q-.07.07-.172.07-.11 0-.18-.07L12.5 10.91l-1.945 1.945q-.07.07-.18.07-.102 0-.172-.07l-1.063-1.06q-.07-.07-.07-.173 0-.11.07-.18L11.087 9.5 9.14 7.555q-.07-.07-.07-.18 0-.102.07-.172l1.063-1.062q.07-.07.172-.07.11 0 .18.07L12.5 8.09l1.945-1.945q.07-.07.18-.07.102 0 .172.07l1.062 1.063q.07.07.07.172 0 .11-.07.18zm-3.89 0L8.61 10.914q-.29.29-.29.71 0 .415.29.704l.646.648Q9.093 13 8.913 13H2.085q-.945 0-1.516-.54T0 10.976q0-.414.026-.81t.11-.85.206-.85.336-.76.484-.634.668-.418.87-.156q.15 0 .306.133 1.203.957 2.492.957T7.99 6.63q.156-.132.305-.132.22 0 .445.047-.22.21-.32.39t-.102.44q0 .42.29.71z" /></svg>