<svg xmlns="http://www.w3.org/2000/svg" viewBox="0 0 12 14"><path d="M10.094 4.984q.078-1.688-1.258-1.734-1.805-.062-2.438 2.04.344-.15.64-.15.665 0 .58.75-.032.446-.58 1.306t-.82.86q-.335 0-.64-1.32-.102-.423-.352-1.993-.234-1.477-1.25-1.383-.46.055-1.28.78L1.428 5.267l.405.523q.594-.407.68-.407.445 0 .836 1.398.117.43.352 1.287t.352 1.285q.53 1.4 1.28 1.4 1.228 0 2.993-2.298 1.72-2.21 1.766-3.47zM12 3.25v7.5q0 .93-.66 1.59T9.75 13h-7.5q-.93 0-1.59-.66T0 10.75v-7.5q0-.93.66-1.59T2.25 1h7.5q.93 0 1.59.66T12 3.25z" /></svg>