<svg xmlns="http://www.w3.org/2000/svg" viewBox="0 0 15 14"><path d="M14.977 4.063q.18.5-1.172 2.297-.187.25-.508.664-.61.78-.703 1.023-.133.32.11.633.132.164.632.64h.008l.03.032q1.103 1.023 1.493 1.727.023.03.05.09t.056.2-.004.26-.2.21-.46.1l-2 .03q-.19.04-.44-.04t-.41-.17l-.16-.098q-.24-.163-.55-.5t-.54-.604-.48-.455T9.3 10q-.024.008-.063.027t-.133.11-.168.23-.135.404-.05.61q0 .12-.03.22t-.06.15l-.03.04q-.14.15-.41.18h-.89q-.55.03-1.14-.13t-1.03-.417-.8-.514-.55-.45l-.19-.187q-.076-.08-.213-.24t-.56-.71-.827-1.18-.957-1.65T.04 4.37q-.048-.126-.048-.212t.023-.125l.03-.047q.118-.148.446-.148l2.15-.016q.1.016.18.05t.13.067l.04.02q.13.08.19.25.16.39.36.81t.32.63l.13.22q.23.47.44.81t.38.53.32.3.266.11.21-.04q.017-.01.04-.04t.094-.17.1-.37.077-.635 0-.974q-.012-.31-.07-.57t-.11-.36l-.05-.092q-.19-.263-.66-.333-.1-.02.04-.19.13-.15.298-.233.417-.2 1.87-.185.64.01 1.055.1.154.04.26.107t.16.185.08.25.026.35-.01.43-.02.55-.015.646q0 .085-.003.33t-.008.372.025.317.09.305.177.19q.06.017.13.03t.2-.084.29-.27.41-.52.53-.84q.47-.81.83-1.76.03-.074.077-.133t.085-.08l.03-.025.04-.02.1-.026.156-.006 2.25-.012q.303-.04.5.02t.24.13z" /></svg>