<svg xmlns="http://www.w3.org/2000/svg" viewBox="0 0 16 14"><path d="M8 11.898q-.156 0-.727-.574t-.57-.73q0-.25.488-.422T8 10t.81.172.487.422q0 .156-.57.73T8 11.898zm2.11-2.117q-.017 0-.313-.192t-.793-.39T8 9t-1.004.195-.79.39-.315.196q-.14 0-.73-.583t-.59-.727q0-.103.08-.18.61-.603 1.53-.946T8 7t1.82.343 1.53.945q.08.078.08.18 0 .14-.59.727t-.73.586zm2.132-2.122q-.086 0-.18-.062-1.062-.82-1.97-1.207T8 6q-.665 0-1.333.172t-1.164.414-.887.484T4 7.484t-.243.172q-.133 0-.72-.586t-.585-.727q0-.094.078-.172 1.03-1.03 2.5-1.6T8 4t2.968.57 2.5 1.6q.078.08.078.173 0 .14-.586.727t-.72.586zM14.36 5.54q-.087 0-.173-.07-1.398-1.228-2.902-1.85T8 3t-3.285.62-2.902 1.85q-.086.07-.172.07-.13 0-.72-.587t-.59-.727q0-.102.078-.18 1.46-1.453 3.477-2.25T8 1t4.117.796 3.477 2.25q.078.078.078.18 0 .14-.59.727t-.723.586z" /></svg>