<svg xmlns="http://www.w3.org/2000/svg" viewBox="0 0 18 14"><path d="M11.672 12.805l-2.305-5.43q-.195.383-1.238 2.387t-1.555 3.043q-.008.008-.215.004t-.206-.016Q5.514 11.29 4.16 8.21T2.133 3.556q-.164-.39-.52-.84t-.81-.785-.796-.333L.003 1.41 0 1.197h4.554v.39q-.305.015-.62.124t-.52.337-.08.5q.204.46 1.692 3.898t1.84 4.22q.242-.478 1.094-2.083T8.983 6.65Q8.835 6.343 8 4.453T6.936 2.15q-.297-.54-1.57-.556v-.39l4.008.007v.37q-.47.017-.73.196t-.098.54q.258.546.68 1.48t.674 1.46q.858-1.67 1.35-2.835.188-.43-.077-.62t-1.008-.206q.008-.055.008-.195v-.19q.5 0 1.332-.003T12.91 1.2t.724-.005v.383q-.484.016-.93.258T12 2.47l-1.662 3.45q.102.258.996 2.266t.95 2.14l3.444-7.944q-.11-.297-.387-.488t-.505-.246-.434-.062v-.39l3.594.03.008.016-.006.344q-1.086.03-1.57 1.133-4.11 9.5-4.367 10.084h-.384z" /></svg>