<svg xmlns="http://www.w3.org/2000/svg" viewBox="0 0 13 14"><path d="M3 11.5q0-.203-.148-.352T2.5 11t-.352.148T2 11.5t.148.352T2.5 12t.352-.148T3 11.5zm5.03-3.28l-5.327 5.327q-.29.29-.703.29-.406 0-.71-.29l-.83-.844Q.165 12.423.165 12q0-.414.297-.71l5.32-5.32q.306.765.896 1.354t1.355.895zm4.954-3.4q0 .305-.18.828-.367 1.047-1.285 1.7t-2.02.65Q8.052 8 7.024 6.973T6 4.5t1.026-2.474T9.5 1q.452 0 .948.128t.84.363q.125.088.125.22t-.125.22l-2.29 1.32V5l1.51.835q.038-.023.616-.38t1.06-.632.55-.277q.117 0 .184.078t.066.195z" /></svg>