<svg xmlns="http://www.w3.org/2000/svg" viewBox="0 0 12 14"><path d="M5.352 5.977q0-.008-.984-1.734-.164-.266-.406-.266H2.524q-.14 0-.203.086-.053.094.01.227l.977 1.688v.008L1.777 8.69q-.07.108 0 .218.06.102.185.102h1.445q.242 0 .39-.28zm4.875-3.883Q10.172 2 10.04 2H8.58q-.235 0-.384.273l-3.21 5.695q.007.016 2.046 3.758.156.273.406.273h1.438q.14 0 .195-.096.064-.102-.006-.22l-2.03-3.718V7.96l3.194-5.65q.062-.124 0-.218zM12 3.25v7.5q0 .93-.66 1.59T9.75 13h-7.5q-.93 0-1.59-.66T0 10.75v-7.5q0-.93.66-1.59T2.25 1h7.5q.93 0 1.59.66T12 3.25z" /></svg>