<svg xmlns="http://www.w3.org/2000/svg" viewBox="0 0 14 14"><path d="M6.04 10.305v.992q-.01 2.28-.048 2.383-.094.25-.398.312-.422.07-1.418-.297T2.906 13q-.102-.117-.133-.28-.008-.095.03-.204.032-.078.267-.367t1.414-1.69q.008 0 .47-.55.116-.15.308-.19t.387.02q.18.074.29.223t.1.33zm-1.165-1.96q-.023.43-.406.546l-.94.31q-2.15.69-2.28.69-.28-.01-.43-.28-.09-.2-.13-.59-.06-.59.01-1.3t.23-.97.436-.25q.102 0 1.58.603.546.226.9.366l.654.265q.18.07.278.238t.09.38zm6.453 2.32q-.055.42-.715 1.257t-1.06.992q-.288.11-.49-.055-.11-.08-1.44-2.25l-.366-.6q-.11-.17-.09-.36t.152-.36q.27-.34.64-.208.01.01.93.312 1.58.515 1.89.62t.37.16q.22.172.17.477zm-5.25-4.938q.04.797-.422.953-.453.133-.89-.555L1.81 1.453q-.06-.273.15-.483.32-.337 1.62-.7T5.336.024q.312.078.383.352.02.14.17 2.387t.18 2.965zm5.172.843q.023.305-.203.46-.117.08-2.57.673-.523.117-.71.18l.007-.016q-.18.047-.36-.03t-.288-.25q-.234-.368 0-.68l.586-.798q.978-1.34 1.172-1.6t.266-.31q.22-.15.508-.02.375.18.96 1.042t.634 1.31v.022z" /></svg>